<?xml version="1.0" standalone="no"?>
<!DOCTYPE svg PUBLIC "-//W3C//DTD SVG 1.1//EN" "http://www.w3.org/Graphics/SVG/1.1/DTD/svg11.dtd" >
<svg xmlns="http://www.w3.org/2000/svg" xmlns:xlink="http://www.w3.org/1999/xlink" version="1.1">
<metadata>
Created by FontForge 20190801 at Tue Jan  8 23:06:44 2019
 By Jimmy Wärting
Maison Neue is the thoroughly reworked version of our early Maison typeface family. While the original version was constructed on geometric principles, Maison Neue has now been meticulously redrawn and extended. Paying particular attention to harmony, rhythm and flow, the new typeface also accounts for up-to-date display and reproduction technologies to create a distinctly contemporary grotesque, with a classic touch. The whole family contains 40 styles thus far; each includes an extended Latin character set and a variety of OpenType features.
</metadata>
<defs>
<font id="MaisonNeue-LightItalic" horiz-adv-x="650" >
  <font-face 
    font-family="Maison Neue Light"
    font-weight="300"
    font-style="italic"
    font-stretch="normal"
    units-per-em="1000"
    panose-1="2 11 3 4 4 0 0 0 0 0"
    ascent="730"
    descent="-270"
    x-height="530"
    cap-height="700"
    bbox="-632 -300 2180 998"
    underline-thickness="70"
    underline-position="-120"
    slope="-10"
    unicode-range="U+000D-FEFF"
  />
<missing-glyph horiz-adv-x="686" 
d="M60 -5v423c0 171 131 292 292 292c161 2 297 -123 294 -292v-423h-28l-65 65l-68 -65l-63 65l-71 -65l-69 65l-63 -65l-67 65l-66 -65h-26zM160 300l63 63l64 -63l14 14l-64 63l64 64l-14 14l-64 -64l-63 64l-14 -14l63 -64l-63 -63zM420 300l63 63l64 -63l14 14l-64 63
l64 64l-14 14l-64 -64l-63 64l-14 -14l63 -64l-63 -63z" />
    <glyph glyph-name="W_W_W" unicode="WWW" horiz-adv-x="2121" 
d="M116 0l-21 700h62l15 -606h2l288 606h61l78 -606h2l287 606h61l78 -606h2l288 606h60l78 -606h2l288 606h61l78 -606h2l226 606h66l-264 -700h-75l-77 605h-2l-285 -605h-64l-77 605h-2l-286 -605h-63l-77 605h-2l-286 -605h-64l-76 605h-2l-286 -605h-76z" />
    <glyph glyph-name="fi" unicode="fi" horiz-adv-x="495" 
d="M433 698h76l-13 -74h-77zM217 530h257l-93 -530h-59l83 477h-197l-84 -477h-59l84 477h-89l9 53h89l11 63c12 69 54 103 127 103h75l-10 -55h-65c-43 0 -62 -17 -70 -61z" />
    <glyph glyph-name="fl" unicode="fl" horiz-adv-x="498" 
d="M450 730h59l-128 -730h-59l84 477h-198l-84 -477h-59l84 477h-89l9 53h89l11 63c12 69 54 103 127 103h75l-10 -55h-65c-43 0 -62 -17 -70 -61l-9 -50h198z" />
    <glyph glyph-name="w_w_w" unicode="www" horiz-adv-x="1808" 
d="M104 0l-30 530h58l23 -447h2l216 447h61l78 -447h2l216 447h61l78 -447h2l216 447h61l78 -447h2l216 447h61l78 -447h2l181 447h62l-218 -530h-63l-80 458h-2l-222 -458h-53l-80 458h-2l-222 -458h-53l-80 458h-2l-222 -458h-53l-81 458h-2l-221 -458h-68z" />
    <glyph glyph-name=".notdef" horiz-adv-x="686" 
d="M60 -5v423c0 171 131 292 292 292c161 2 297 -123 294 -292v-423h-28l-65 65l-68 -65l-63 65l-71 -65l-69 65l-63 -65l-67 65l-66 -65h-26zM160 300l63 63l64 -63l14 14l-64 63l64 64l-14 14l-64 -64l-63 64l-14 -14l63 -64l-63 -63zM420 300l63 63l64 -63l14 14l-64 63
l64 64l-14 14l-64 -64l-63 64l-14 -14l63 -64l-63 -63z" />
    <glyph glyph-name="NULL" horiz-adv-x="0" 
 />
    <glyph glyph-name="CR" unicode="&#xd;" horiz-adv-x="361" 
 />
    <glyph glyph-name="space" unicode=" " horiz-adv-x="274" 
 />
    <glyph glyph-name="A" unicode="A" horiz-adv-x="579" 
d="M467 0l-27 149h-338l-80 -149h-66l380 700h61l132 -700h-62zM132 204h298l-74 413h-2z" />
    <glyph glyph-name="Aacute" unicode="&#xc1;" horiz-adv-x="579" 
d="M467 0l-27 149h-338l-80 -149h-66l380 700h61l132 -700h-62zM132 204h298l-74 413h-2zM338 760l88 110h85l-116 -110h-57z" />
    <glyph glyph-name="Abreve" unicode="&#x102;" horiz-adv-x="579" 
d="M467 0l-27 149h-338l-80 -149h-66l380 700h61l132 -700h-62zM132 204h298l-74 413h-2zM269 861h38c5 -39 25 -59 62 -59c44 0 75 20 93 59h38c-19 -71 -65 -111 -133 -111c-60 0 -99 44 -98 111z" />
    <glyph glyph-name="uni01CD" unicode="&#x1cd;" horiz-adv-x="579" 
d="M467 0l-27 149h-338l-80 -149h-66l380 700h61l132 -700h-62zM132 204h298l-74 413h-2zM460 865l34 -34l-80 -81h-79l-57 89l40 26l56 -89z" />
    <glyph glyph-name="Acircumflex" unicode="&#xc2;" horiz-adv-x="579" 
d="M467 0l-27 149h-338l-80 -149h-66l380 700h61l132 -700h-62zM132 204h298l-74 413h-2zM480 766l-40 -26l-56 88l-86 -88l-33 34l80 81h78z" />
    <glyph glyph-name="uni1EAC" unicode="&#x1eac;" horiz-adv-x="579" 
d="M467 0l-27 149h-338l-80 -149h-66l380 700h61l132 -700h-62zM132 204h298l-74 413h-2zM480 766l-40 -26l-56 88l-86 -88l-33 34l80 81h78zM186 -132l14 83h85l-14 -83h-85z" />
    <glyph glyph-name="Adieresis" unicode="&#xc4;" horiz-adv-x="579" 
d="M467 0l-27 149h-338l-80 -149h-66l380 700h61l132 -700h-62zM132 204h298l-74 413h-2zM248 750l14 83h85l-14 -83h-85zM420 750l14 83h85l-14 -83h-85z" />
    <glyph glyph-name="uni01DE" unicode="&#x1de;" horiz-adv-x="579" 
d="M467 0l-27 149h-338l-80 -149h-66l380 700h61l132 -700h-62zM132 204h298l-74 413h-2zM248 750l14 83h85l-14 -83h-85zM420 750l14 83h85l-14 -83h-85zM281 873l9 49h253l-9 -49h-253z" />
    <glyph glyph-name="uni1EA0" unicode="&#x1ea0;" horiz-adv-x="579" 
d="M467 0l-27 149h-338l-80 -149h-66l380 700h61l132 -700h-62zM132 204h298l-74 413h-2zM186 -132l14 83h85l-14 -83h-85z" />
    <glyph glyph-name="Agrave" unicode="&#xc0;" horiz-adv-x="579" 
d="M467 0l-27 149h-338l-80 -149h-66l380 700h61l132 -700h-62zM132 204h298l-74 413h-2zM349 760l-77 110h82l49 -110h-54z" />
    <glyph glyph-name="Amacron" unicode="&#x100;" horiz-adv-x="579" 
d="M467 0l-27 149h-338l-80 -149h-66l380 700h61l132 -700h-62zM132 204h298l-74 413h-2zM261 760l9 49h253l-9 -49h-253z" />
    <glyph glyph-name="Aogonek" unicode="&#x104;" horiz-adv-x="579" 
d="M467 0l-27 149h-338l-80 -149h-66l380 700h61l132 -700h-62zM132 204h298l-74 413h-2zM368 -128c0 49 45 99 125 140l30 -12c-61 -31 -101 -75 -101 -112c0 -18 11 -27 33 -27c19 0 40 6 63 19l11 -47c-29 -15 -58 -23 -85 -23c-49 0 -76 22 -76 62z" />
    <glyph glyph-name="Aring" unicode="&#xc5;" horiz-adv-x="579" 
d="M467 0l-27 149h-338l-80 -149h-66l380 700h61l132 -700h-62zM132 204h298l-74 413h-2zM253 770c0 61 47 107 114 107s114 -46 114 -107c0 -63 -47 -108 -114 -108s-114 45 -114 108zM437 770c0 40 -30 69 -70 69s-70 -29 -70 -69c0 -41 30 -70 70 -70s70 29 70 70z" />
    <glyph glyph-name="Aringacute" unicode="&#x1fa;" horiz-adv-x="579" 
d="M467 0l-27 149h-338l-80 -149h-66l380 700h61l132 -700h-62zM132 204h298l-74 413h-2zM253 770c0 61 47 107 114 107s114 -46 114 -107c0 -63 -47 -108 -114 -108s-114 45 -114 108zM437 770c0 40 -30 69 -70 69s-70 -29 -70 -69c0 -41 30 -70 70 -70s70 29 70 70z
M328 867l88 110h85l-116 -110h-57z" />
    <glyph glyph-name="Atilde" unicode="&#xc3;" horiz-adv-x="579" 
d="M467 0l-27 149h-338l-80 -149h-66l380 700h61l132 -700h-62zM132 204h298l-74 413h-2zM372 778c-19 12 -35 18 -48 18c-20 0 -34 -12 -42 -36h-37c9 51 43 83 84 83c25 0 43 -8 68 -23c23 -12 33 -18 48 -18c21 0 35 12 43 36h37c-9 -51 -43 -83 -84 -83
c-25 0 -44 8 -69 23z" />
    <glyph glyph-name="AE" unicode="&#xc6;" horiz-adv-x="846" 
d="M856 642h-291l-44 -253h263l-11 -57h-263l-49 -274h292l-10 -58h-353l27 154h-294l-96 -154h-71l440 700h471zM427 211l76 431h-77l-268 -431h269z" />
    <glyph glyph-name="AEacute" unicode="&#x1fc;" horiz-adv-x="846" 
d="M856 642h-291l-44 -253h263l-11 -57h-263l-49 -274h292l-10 -58h-353l27 154h-294l-96 -154h-71l440 700h471zM427 211l76 431h-77l-268 -431h269zM478 760l88 110h85l-116 -110h-57z" />
    <glyph glyph-name="B" unicode="B" horiz-adv-x="635" 
d="M44 0l123 700h236c128 0 198 -56 198 -159c0 -81 -48 -144 -131 -172v-2c61 -21 100 -75 100 -142c0 -143 -98 -225 -270 -225h-256zM177 396h178c113 0 183 53 183 140c0 67 -48 105 -133 105h-185zM118 59h190c131 0 200 57 200 164c0 73 -54 117 -149 117h-192z" />
    <glyph glyph-name="uni1E04" unicode="&#x1e04;" horiz-adv-x="635" 
d="M44 0l123 700h236c128 0 198 -56 198 -159c0 -81 -48 -144 -131 -172v-2c61 -21 100 -75 100 -142c0 -143 -98 -225 -270 -225h-256zM177 396h178c113 0 183 53 183 140c0 67 -48 105 -133 105h-185zM118 59h190c131 0 200 57 200 164c0 73 -54 117 -149 117h-192z
M215 -132l14 83h85l-14 -83h-85z" />
    <glyph glyph-name="C" unicode="C" horiz-adv-x="659" 
d="M59 280c-3 240 150 439 339 435c142 0 239 -98 249 -242l-62 -7c-11 119 -82 190 -187 190c-153 4 -280 -172 -277 -376c0 -141 77 -236 195 -236c112 0 198 74 246 202l58 -21c-51 -147 -161 -240 -304 -240c-154 0 -257 119 -257 295z" />
    <glyph glyph-name="Cacute" unicode="&#x106;" horiz-adv-x="659" 
d="M59 280c-3 240 150 439 339 435c142 0 239 -98 249 -242l-62 -7c-11 119 -82 190 -187 190c-153 4 -280 -172 -277 -376c0 -141 77 -236 195 -236c112 0 198 74 246 202l58 -21c-51 -147 -161 -240 -304 -240c-154 0 -257 119 -257 295zM369 775l88 110h85l-116 -110h-57
z" />
    <glyph glyph-name="Ccaron" unicode="&#x10c;" horiz-adv-x="659" 
d="M59 280c-3 240 150 439 339 435c142 0 239 -98 249 -242l-62 -7c-11 119 -82 190 -187 190c-153 4 -280 -172 -277 -376c0 -141 77 -236 195 -236c112 0 198 74 246 202l58 -21c-51 -147 -161 -240 -304 -240c-154 0 -257 119 -257 295zM491 880l34 -34l-80 -81h-79
l-57 89l40 26l56 -89z" />
    <glyph glyph-name="Ccedilla" unicode="&#xc7;" horiz-adv-x="659" 
d="M59 280c-3 240 150 439 339 435c142 0 239 -98 249 -242l-62 -7c-11 119 -82 190 -187 190c-153 4 -280 -172 -277 -376c0 -141 77 -236 195 -236c112 0 198 74 246 202l58 -21c-51 -147 -161 -240 -304 -240c-154 0 -257 119 -257 295zM413 -128c0 -55 -46 -96 -106 -96
c-40 0 -72 13 -97 39l30 31c19 -21 38 -30 66 -30c37 0 65 24 65 56c0 23 -16 37 -45 37c-21 0 -42 -10 -63 -29l-34 18l73 102l42 -5l-43 -57c10 4 21 6 33 6c47 0 79 -29 79 -72z" />
    <glyph glyph-name="Ccircumflex" unicode="&#x108;" horiz-adv-x="659" 
d="M59 280c-3 240 150 439 339 435c142 0 239 -98 249 -242l-62 -7c-11 119 -82 190 -187 190c-153 4 -280 -172 -277 -376c0 -141 77 -236 195 -236c112 0 198 74 246 202l58 -21c-51 -147 -161 -240 -304 -240c-154 0 -257 119 -257 295zM511 781l-40 -26l-56 88l-86 -88
l-33 34l80 81h78z" />
    <glyph glyph-name="Cdotaccent" unicode="&#x10a;" horiz-adv-x="659" 
d="M59 280c-3 240 150 439 339 435c142 0 239 -98 249 -242l-62 -7c-11 119 -82 190 -187 190c-153 4 -280 -172 -277 -376c0 -141 77 -236 195 -236c112 0 198 74 246 202l58 -21c-51 -147 -161 -240 -304 -240c-154 0 -257 119 -257 295zM366 775l14 83h85l-14 -83h-85z
" />
    <glyph glyph-name="D" unicode="D" horiz-adv-x="658" 
d="M44 0l123 700h185c164 0 275 -116 275 -291c2 -244 -147 -412 -364 -409h-219zM117 59h144c183 0 304 135 304 350c0 71 -19 127 -58 169s-91 63 -156 63h-131z" />
    <glyph glyph-name="Eth" unicode="&#xd0;" horiz-adv-x="658" 
d="M44 0l123 700h185c164 0 275 -116 275 -291c2 -244 -147 -412 -364 -409h-219zM117 59h144c183 0 304 135 304 350c0 71 -19 127 -58 169s-91 63 -156 63h-131zM-5 327l9 52h344l-10 -52h-343z" />
    <glyph glyph-name="Dcaron" unicode="&#x10e;" horiz-adv-x="658" 
d="M44 0l123 700h185c164 0 275 -116 275 -291c2 -244 -147 -412 -364 -409h-219zM117 59h144c183 0 304 135 304 350c0 71 -19 127 -58 169s-91 63 -156 63h-131zM457 865l34 -34l-80 -81h-79l-57 89l40 26l56 -89z" />
    <glyph glyph-name="Dcroat" unicode="&#x110;" horiz-adv-x="658" 
d="M44 0l123 700h185c164 0 275 -116 275 -291c2 -244 -147 -412 -364 -409h-219zM117 59h144c183 0 304 135 304 350c0 71 -19 127 -58 169s-91 63 -156 63h-131zM-5 327l9 52h344l-10 -52h-343z" />
    <glyph glyph-name="uni1E0C" unicode="&#x1e0c;" horiz-adv-x="658" 
d="M44 0l123 700h185c164 0 275 -116 275 -291c2 -244 -147 -412 -364 -409h-219zM117 59h144c183 0 304 135 304 350c0 71 -19 127 -58 169s-91 63 -156 63h-131zM220 -132l14 83h85l-14 -83h-85z" />
    <glyph glyph-name="E" unicode="E" horiz-adv-x="561" 
d="M570 641h-350l-45 -252h322l-10 -56h-322l-48 -274h350l-10 -59h-413l123 700h413z" />
    <glyph glyph-name="Eacute" unicode="&#xc9;" horiz-adv-x="561" 
d="M570 641h-350l-45 -252h322l-10 -56h-322l-48 -274h350l-10 -59h-413l123 700h413zM345 760l88 110h85l-116 -110h-57z" />
    <glyph glyph-name="Ebreve" unicode="&#x114;" horiz-adv-x="561" 
d="M570 641h-350l-45 -252h322l-10 -56h-322l-48 -274h350l-10 -59h-413l123 700h413zM276 861h38c5 -39 25 -59 62 -59c44 0 75 20 93 59h38c-19 -71 -65 -111 -133 -111c-60 0 -99 44 -98 111z" />
    <glyph glyph-name="Ecaron" unicode="&#x11a;" horiz-adv-x="561" 
d="M570 641h-350l-45 -252h322l-10 -56h-322l-48 -274h350l-10 -59h-413l123 700h413zM467 865l34 -34l-80 -81h-79l-57 89l40 26l56 -89z" />
    <glyph glyph-name="uni0228" unicode="&#x228;" horiz-adv-x="561" 
d="M570 641h-350l-45 -252h322l-10 -56h-322l-48 -274h350l-10 -59h-413l123 700h413zM368 -114c0 -55 -46 -96 -106 -96c-40 0 -72 13 -97 39l30 31c19 -21 38 -30 66 -30c37 0 65 24 65 56c0 23 -16 37 -45 37c-21 0 -42 -10 -63 -29l-34 18l73 102l42 -5l-43 -57
c10 4 21 6 33 6c47 0 79 -29 79 -72z" />
    <glyph glyph-name="Ecircumflex" unicode="&#xca;" horiz-adv-x="561" 
d="M570 641h-350l-45 -252h322l-10 -56h-322l-48 -274h350l-10 -59h-413l123 700h413zM487 766l-40 -26l-56 88l-86 -88l-33 34l80 81h78z" />
    <glyph glyph-name="uni1EC6" unicode="&#x1ec6;" horiz-adv-x="561" 
d="M570 641h-350l-45 -252h322l-10 -56h-322l-48 -274h350l-10 -59h-413l123 700h413zM487 766l-40 -26l-56 88l-86 -88l-33 34l80 81h78zM209 -132l14 83h85l-14 -83h-85z" />
    <glyph glyph-name="Edieresis" unicode="&#xcb;" horiz-adv-x="561" 
d="M570 641h-350l-45 -252h322l-10 -56h-322l-48 -274h350l-10 -59h-413l123 700h413zM255 750l14 83h85l-14 -83h-85zM427 750l14 83h85l-14 -83h-85z" />
    <glyph glyph-name="Edotaccent" unicode="&#x116;" horiz-adv-x="561" 
d="M570 641h-350l-45 -252h322l-10 -56h-322l-48 -274h350l-10 -59h-413l123 700h413zM342 760l14 83h85l-14 -83h-85z" />
    <glyph glyph-name="uni1EB8" unicode="&#x1eb8;" horiz-adv-x="561" 
d="M570 641h-350l-45 -252h322l-10 -56h-322l-48 -274h350l-10 -59h-413l123 700h413zM209 -132l14 83h85l-14 -83h-85z" />
    <glyph glyph-name="Egrave" unicode="&#xc8;" horiz-adv-x="561" 
d="M570 641h-350l-45 -252h322l-10 -56h-322l-48 -274h350l-10 -59h-413l123 700h413zM356 760l-77 110h82l49 -110h-54z" />
    <glyph glyph-name="Emacron" unicode="&#x112;" horiz-adv-x="561" 
d="M570 641h-350l-45 -252h322l-10 -56h-322l-48 -274h350l-10 -59h-413l123 700h413zM268 760l9 49h253l-9 -49h-253z" />
    <glyph glyph-name="Eogonek" unicode="&#x118;" horiz-adv-x="561" 
d="M570 641h-350l-45 -252h322l-10 -56h-322l-48 -274h350l-10 -59h-413l123 700h413zM262 -128c0 49 45 99 125 140l30 -12c-61 -31 -101 -75 -101 -112c0 -18 11 -27 33 -27c19 0 40 6 63 19l11 -47c-29 -15 -58 -23 -85 -23c-49 0 -76 22 -76 62z" />
    <glyph glyph-name="uni018E" unicode="&#x18e;" horiz-adv-x="575" 
d="M560 700l-123 -700h-413l10 59h350l49 273h-321l10 57h321l44 252h-349l9 59h413z" />
    <glyph glyph-name="uni1EBC" unicode="&#x1ebc;" horiz-adv-x="561" 
d="M570 641h-350l-45 -252h322l-10 -56h-322l-48 -274h350l-10 -59h-413l123 700h413zM379 778c-19 12 -35 18 -48 18c-20 0 -34 -12 -42 -36h-37c9 51 43 83 84 83c25 0 43 -8 68 -23c23 -12 33 -18 48 -18c21 0 35 12 43 36h37c-9 -51 -43 -83 -84 -83c-25 0 -44 8 -69 23
z" />
    <glyph glyph-name="F" unicode="F" horiz-adv-x="550" 
d="M570 641h-350l-49 -276h322l-10 -56h-322l-54 -309h-63l123 700h413z" />
    <glyph glyph-name="G" unicode="G" horiz-adv-x="672" 
d="M564 276h-196l9 59h259l-7 -49c-26 -178 -152 -301 -313 -301c-154 0 -257 119 -257 295c-3 240 150 439 339 435c142 0 239 -98 249 -242l-62 -7c-11 119 -82 190 -187 190c-153 4 -280 -172 -277 -376c0 -141 77 -236 195 -236c129 0 224 103 248 232z" />
    <glyph glyph-name="Gbreve" unicode="&#x11e;" horiz-adv-x="672" 
d="M564 276h-196l9 59h259l-7 -49c-26 -178 -152 -301 -313 -301c-154 0 -257 119 -257 295c-3 240 150 439 339 435c142 0 239 -98 249 -242l-62 -7c-11 119 -82 190 -187 190c-153 4 -280 -172 -277 -376c0 -141 77 -236 195 -236c129 0 224 103 248 232zM300 876h38
c5 -39 25 -59 62 -59c44 0 75 20 93 59h38c-19 -71 -65 -111 -133 -111c-60 0 -99 44 -98 111z" />
    <glyph glyph-name="Gcircumflex" unicode="&#x11c;" horiz-adv-x="672" 
d="M564 276h-196l9 59h259l-7 -49c-26 -178 -152 -301 -313 -301c-154 0 -257 119 -257 295c-3 240 150 439 339 435c142 0 239 -98 249 -242l-62 -7c-11 119 -82 190 -187 190c-153 4 -280 -172 -277 -376c0 -141 77 -236 195 -236c129 0 224 103 248 232zM511 781l-40 -26
l-56 88l-86 -88l-33 34l80 81h78z" />
    <glyph glyph-name="uni0122" unicode="&#x122;" horiz-adv-x="672" 
d="M564 276h-196l9 59h259l-7 -49c-26 -178 -152 -301 -313 -301c-154 0 -257 119 -257 295c-3 240 150 439 339 435c142 0 239 -98 249 -242l-62 -7c-11 119 -82 190 -187 190c-153 4 -280 -172 -277 -376c0 -141 77 -236 195 -236c129 0 224 103 248 232zM242 -222l5 32
c25 4 36 17 43 44h-38l15 82h88l-13 -71c-8 -53 -43 -83 -100 -87z" />
    <glyph glyph-name="Gdotaccent" unicode="&#x120;" horiz-adv-x="672" 
d="M564 276h-196l9 59h259l-7 -49c-26 -178 -152 -301 -313 -301c-154 0 -257 119 -257 295c-3 240 150 439 339 435c142 0 239 -98 249 -242l-62 -7c-11 119 -82 190 -187 190c-153 4 -280 -172 -277 -376c0 -141 77 -236 195 -236c129 0 224 103 248 232zM366 775l14 83
h85l-14 -83h-85z" />
    <glyph glyph-name="H" unicode="H" horiz-adv-x="653" 
d="M44 0l123 700h63l-55 -311h346l55 311h62l-123 -700h-62l59 334h-346l-59 -334h-63z" />
    <glyph glyph-name="Hbar" unicode="&#x126;" horiz-adv-x="645" 
d="M698 573l-9 -53h-86l-91 -520h-63l59 333h-346l-59 -333h-62l91 520h-87l9 53h88l22 127h62l-22 -127h346l22 127h63l-22 -127h85zM517 389l23 131h-345l-23 -131h345z" />
    <glyph glyph-name="Hcircumflex" unicode="&#x124;" horiz-adv-x="653" 
d="M44 0l123 700h63l-55 -311h346l55 311h62l-123 -700h-62l59 334h-346l-59 -334h-63zM506 766l-40 -26l-56 88l-86 -88l-33 34l80 81h78z" />
    <glyph glyph-name="uni1E24" unicode="&#x1e24;" horiz-adv-x="653" 
d="M44 0l123 700h63l-55 -311h346l55 311h62l-123 -700h-62l59 334h-346l-59 -334h-63zM217 -132l14 83h85l-14 -83h-85z" />
    <glyph glyph-name="I" unicode="I" horiz-adv-x="244" 
d="M44 0l123 700h63l-123 -700h-63z" />
    <glyph glyph-name="Iacute" unicode="&#xcd;" horiz-adv-x="244" 
d="M44 0l123 700h63l-123 -700h-63zM170 760l88 110h85l-116 -110h-57z" />
    <glyph glyph-name="Ibreve" unicode="&#x12c;" horiz-adv-x="244" 
d="M44 0l123 700h63l-123 -700h-63zM101 861h38c5 -39 25 -59 62 -59c44 0 75 20 93 59h38c-19 -71 -65 -111 -133 -111c-60 0 -99 44 -98 111z" />
    <glyph glyph-name="uni01CF" unicode="&#x1cf;" horiz-adv-x="244" 
d="M44 0l123 700h63l-123 -700h-63zM292 865l34 -34l-80 -81h-79l-57 89l40 26l56 -89z" />
    <glyph glyph-name="Icircumflex" unicode="&#xce;" horiz-adv-x="244" 
d="M44 0l123 700h63l-123 -700h-63zM312 766l-40 -26l-56 88l-86 -88l-33 34l80 81h78z" />
    <glyph glyph-name="Idieresis" unicode="&#xcf;" horiz-adv-x="244" 
d="M44 0l123 700h63l-123 -700h-63zM80 750l14 83h85l-14 -83h-85zM252 750l14 83h85l-14 -83h-85z" />
    <glyph glyph-name="Idotaccent" unicode="&#x130;" horiz-adv-x="244" 
d="M44 0l123 700h63l-123 -700h-63zM167 760l14 83h85l-14 -83h-85z" />
    <glyph glyph-name="uni1ECA" unicode="&#x1eca;" horiz-adv-x="244" 
d="M44 0l123 700h63l-123 -700h-63zM13 -132l14 83h85l-14 -83h-85z" />
    <glyph glyph-name="Igrave" unicode="&#xcc;" horiz-adv-x="244" 
d="M44 0l123 700h63l-123 -700h-63zM181 760l-77 110h82l49 -110h-54z" />
    <glyph glyph-name="Imacron" unicode="&#x12a;" horiz-adv-x="244" 
d="M44 0l123 700h63l-123 -700h-63zM93 760l9 49h253l-9 -49h-253z" />
    <glyph glyph-name="Iogonek" unicode="&#x12e;" horiz-adv-x="244" 
d="M44 0l123 700h63l-123 -700h-63zM-55 -128c0 49 45 99 125 140l30 -12c-61 -31 -101 -75 -101 -112c0 -18 11 -27 33 -27c19 0 40 6 63 19l11 -47c-29 -15 -58 -23 -85 -23c-49 0 -76 22 -76 62z" />
    <glyph glyph-name="Itilde" unicode="&#x128;" horiz-adv-x="244" 
d="M44 0l123 700h63l-123 -700h-63zM204 778c-19 12 -35 18 -48 18c-20 0 -34 -12 -42 -36h-37c9 51 43 83 84 83c25 0 43 -8 68 -23c23 -12 33 -18 48 -18c21 0 35 12 43 36h37c-9 -51 -43 -83 -84 -83c-25 0 -44 8 -69 23z" />
    <glyph glyph-name="J" unicode="J" horiz-adv-x="515" 
d="M16 189l62 6c4 -101 45 -151 123 -151c81 0 137 57 154 156l88 500h63l-90 -510c-23 -129 -100 -205 -215 -205s-181 76 -185 204z" />
    <glyph glyph-name="Jcircumflex" unicode="&#x134;" horiz-adv-x="515" 
d="M16 189l62 6c4 -101 45 -151 123 -151c81 0 137 57 154 156l88 500h63l-90 -510c-23 -129 -100 -205 -215 -205s-181 76 -185 204zM588 766l-40 -26l-56 88l-86 -88l-33 34l80 81h78z" />
    <glyph glyph-name="K" unicode="K" horiz-adv-x="587" 
d="M628 700l-311 -306l217 -394h-73l-188 348h-2l-124 -122l-40 -226h-63l123 700h63l-67 -377h2l379 377h84z" />
    <glyph glyph-name="uni0136" unicode="&#x136;" horiz-adv-x="587" 
d="M628 700l-311 -306l217 -394h-73l-188 348h-2l-124 -122l-40 -226h-63l123 700h63l-67 -377h2l379 377h84zM216 -207l5 32c25 4 36 17 43 44h-38l15 82h88l-13 -71c-8 -53 -43 -83 -100 -87z" />
    <glyph glyph-name="L" unicode="L" horiz-adv-x="514" 
d="M43 0l124 700h63l-114 -641h327l-11 -59h-389z" />
    <glyph glyph-name="Lacute" unicode="&#x139;" horiz-adv-x="514" 
d="M43 0l124 700h63l-114 -641h327l-11 -59h-389zM170 760l88 110h85l-116 -110h-57z" />
    <glyph glyph-name="Lcaron" unicode="&#x13d;" horiz-adv-x="488" 
d="M43 0l124 700h63l-114 -641h327l-11 -59h-389zM435 542l5 32c25 4 36 17 43 44h-38l15 82h88l-13 -71c-8 -53 -43 -83 -100 -87z" />
    <glyph glyph-name="uni013B" unicode="&#x13b;" horiz-adv-x="514" 
d="M43 0l124 700h63l-114 -641h327l-11 -59h-389zM164 -207l5 32c25 4 36 17 43 44h-38l15 82h88l-13 -71c-8 -53 -43 -83 -100 -87z" />
    <glyph glyph-name="Ldot" unicode="&#x13f;" horiz-adv-x="514" 
d="M43 0l124 700h63l-114 -641h327l-11 -59h-389zM323 341l17 99h102l-18 -99h-101z" />
    <glyph glyph-name="uni1E36" unicode="&#x1e36;" horiz-adv-x="514" 
d="M43 0l124 700h63l-114 -641h327l-11 -59h-389zM176 -132l14 83h85l-14 -83h-85z" />
    <glyph glyph-name="Lslash" unicode="&#x141;" horiz-adv-x="593" 
d="M122 0l124 700h63l-114 -641h327l-11 -59h-389zM189 299l259 163l-23 34l-205 -131v3l-228 -149l21 -31l177 115z" />
    <glyph glyph-name="M" unicode="M" horiz-adv-x="841" 
d="M43 0l124 700h81l143 -598h2l346 598h89l-124 -700h-62l107 601h-2l-350 -601h-38l-145 601h-3l-106 -601h-62z" />
    <glyph glyph-name="N" unicode="N" horiz-adv-x="664" 
d="M44 0l123 700h70l242 -604h2l107 604h62l-124 -700h-69l-242 604h-2l-107 -604h-62z" />
    <glyph glyph-name="Nacute" unicode="&#x143;" horiz-adv-x="664" 
d="M44 0l123 700h70l242 -604h2l107 604h62l-124 -700h-69l-242 604h-2l-107 -604h-62zM385 760l88 110h85l-116 -110h-57z" />
    <glyph glyph-name="Ncaron" unicode="&#x147;" horiz-adv-x="664" 
d="M44 0l123 700h70l242 -604h2l107 604h62l-124 -700h-69l-242 604h-2l-107 -604h-62zM507 865l34 -34l-80 -81h-79l-57 89l40 26l56 -89z" />
    <glyph glyph-name="uni0145" unicode="&#x145;" horiz-adv-x="664" 
d="M44 0l123 700h70l242 -604h2l107 604h62l-124 -700h-69l-242 604h-2l-107 -604h-62zM227 -207l5 32c25 4 36 17 43 44h-38l15 82h88l-13 -71c-8 -53 -43 -83 -100 -87z" />
    <glyph glyph-name="uni1E44" unicode="&#x1e44;" horiz-adv-x="664" 
d="M44 0l123 700h70l242 -604h2l107 604h62l-124 -700h-69l-242 604h-2l-107 -604h-62zM382 760l14 83h85l-14 -83h-85z" />
    <glyph glyph-name="uni1E46" unicode="&#x1e46;" horiz-adv-x="664" 
d="M44 0l123 700h70l242 -604h2l107 604h62l-124 -700h-69l-242 604h-2l-107 -604h-62zM239 -132l14 83h85l-14 -83h-85z" />
    <glyph glyph-name="Eng" unicode="&#x14a;" horiz-adv-x="664" 
d="M650 700l-124 -700h-2l-8 -46c-16 -89 -54 -117 -119 -117h-46l9 55h30c32 0 52 11 60 54l10 54h-3l-242 604h-2l-107 -604h-62l123 700h70l242 -604h2l107 604h62z" />
    <glyph glyph-name="Ntilde" unicode="&#xd1;" horiz-adv-x="664" 
d="M44 0l123 700h70l242 -604h2l107 604h62l-124 -700h-69l-242 604h-2l-107 -604h-62zM419 778c-19 12 -35 18 -48 18c-20 0 -34 -12 -42 -36h-37c9 51 43 83 84 83c25 0 43 -8 68 -23c23 -12 33 -18 48 -18c21 0 35 12 43 36h37c-9 -51 -43 -83 -84 -83
c-25 0 -44 8 -69 23z" />
    <glyph glyph-name="O" unicode="O" horiz-adv-x="693" 
d="M58 280c-4 239 155 440 344 435c159 0 263 -119 263 -295c3 -239 -154 -440 -344 -435c-159 0 -263 119 -263 295zM602 420c0 141 -78 236 -200 236c-153 4 -284 -173 -281 -376c0 -141 79 -236 200 -236c154 -4 283 172 281 376z" />
    <glyph glyph-name="Oacute" unicode="&#xd3;" horiz-adv-x="693" 
d="M58 280c-4 239 155 440 344 435c159 0 263 -119 263 -295c3 -239 -154 -440 -344 -435c-159 0 -263 119 -263 295zM602 420c0 141 -78 236 -200 236c-153 4 -284 -173 -281 -376c0 -141 79 -236 200 -236c154 -4 283 172 281 376zM373 775l88 110h85l-116 -110h-57z" />
    <glyph glyph-name="Obreve" unicode="&#x14e;" horiz-adv-x="693" 
d="M58 280c-4 239 155 440 344 435c159 0 263 -119 263 -295c3 -239 -154 -440 -344 -435c-159 0 -263 119 -263 295zM602 420c0 141 -78 236 -200 236c-153 4 -284 -173 -281 -376c0 -141 79 -236 200 -236c154 -4 283 172 281 376zM304 876h38c5 -39 25 -59 62 -59
c44 0 75 20 93 59h38c-19 -71 -65 -111 -133 -111c-60 0 -99 44 -98 111z" />
    <glyph glyph-name="uni01D1" unicode="&#x1d1;" horiz-adv-x="693" 
d="M58 280c-4 239 155 440 344 435c159 0 263 -119 263 -295c3 -239 -154 -440 -344 -435c-159 0 -263 119 -263 295zM602 420c0 141 -78 236 -200 236c-153 4 -284 -173 -281 -376c0 -141 79 -236 200 -236c154 -4 283 172 281 376zM495 880l34 -34l-80 -81h-79l-57 89
l40 26l56 -89z" />
    <glyph glyph-name="Ocircumflex" unicode="&#xd4;" horiz-adv-x="693" 
d="M58 280c-4 239 155 440 344 435c159 0 263 -119 263 -295c3 -239 -154 -440 -344 -435c-159 0 -263 119 -263 295zM602 420c0 141 -78 236 -200 236c-153 4 -284 -173 -281 -376c0 -141 79 -236 200 -236c154 -4 283 172 281 376zM515 781l-40 -26l-56 88l-86 -88l-33 34
l80 81h78z" />
    <glyph glyph-name="uni1ED8" unicode="&#x1ed8;" horiz-adv-x="693" 
d="M58 280c-4 239 155 440 344 435c159 0 263 -119 263 -295c3 -239 -154 -440 -344 -435c-159 0 -263 119 -263 295zM602 420c0 141 -78 236 -200 236c-153 4 -284 -173 -281 -376c0 -141 79 -236 200 -236c154 -4 283 172 281 376zM515 781l-40 -26l-56 88l-86 -88l-33 34
l80 81h78zM259 -147l14 83h85l-14 -83h-85z" />
    <glyph glyph-name="Odieresis" unicode="&#xd6;" horiz-adv-x="693" 
d="M58 280c-4 239 155 440 344 435c159 0 263 -119 263 -295c3 -239 -154 -440 -344 -435c-159 0 -263 119 -263 295zM602 420c0 141 -78 236 -200 236c-153 4 -284 -173 -281 -376c0 -141 79 -236 200 -236c154 -4 283 172 281 376zM283 765l14 83h85l-14 -83h-85zM455 765
l14 83h85l-14 -83h-85z" />
    <glyph glyph-name="uni1ECC" unicode="&#x1ecc;" horiz-adv-x="693" 
d="M58 280c-4 239 155 440 344 435c159 0 263 -119 263 -295c3 -239 -154 -440 -344 -435c-159 0 -263 119 -263 295zM602 420c0 141 -78 236 -200 236c-153 4 -284 -173 -281 -376c0 -141 79 -236 200 -236c154 -4 283 172 281 376zM259 -147l14 83h85l-14 -83h-85z" />
    <glyph glyph-name="Ograve" unicode="&#xd2;" horiz-adv-x="693" 
d="M58 280c-4 239 155 440 344 435c159 0 263 -119 263 -295c3 -239 -154 -440 -344 -435c-159 0 -263 119 -263 295zM602 420c0 141 -78 236 -200 236c-153 4 -284 -173 -281 -376c0 -141 79 -236 200 -236c154 -4 283 172 281 376zM384 775l-77 110h82l49 -110h-54z" />
    <glyph glyph-name="Ohungarumlaut" unicode="&#x150;" horiz-adv-x="693" 
d="M58 280c-4 239 155 440 344 435c159 0 263 -119 263 -295c3 -239 -154 -440 -344 -435c-159 0 -263 119 -263 295zM602 420c0 141 -78 236 -200 236c-153 4 -284 -173 -281 -376c0 -141 79 -236 200 -236c154 -4 283 172 281 376zM304 775l88 110h85l-116 -110h-57z
M441 775l88 110h84l-116 -110h-56z" />
    <glyph glyph-name="Omacron" unicode="&#x14c;" horiz-adv-x="693" 
d="M58 280c-4 239 155 440 344 435c159 0 263 -119 263 -295c3 -239 -154 -440 -344 -435c-159 0 -263 119 -263 295zM602 420c0 141 -78 236 -200 236c-153 4 -284 -173 -281 -376c0 -141 79 -236 200 -236c154 -4 283 172 281 376zM296 775l9 49h253l-9 -49h-253z" />
    <glyph glyph-name="Oslash" unicode="&#xd8;" horiz-adv-x="693" 
d="M665 420c3 -239 -154 -440 -344 -435c-66 0 -122 19 -168 58l-50 -68l-35 25l55 74c-43 53 -65 122 -65 206c-4 239 155 440 344 435c61 0 113 -16 156 -49l43 59l34 -26l-45 -61c48 -52 75 -127 75 -218zM161 126l362 492c-34 27 -74 40 -121 40
c-155 3 -285 -173 -282 -379c0 -61 14 -112 41 -153zM604 421c0 68 -17 124 -51 167l-364 -496c35 -33 79 -50 132 -50c155 -4 286 175 283 379z" />
    <glyph glyph-name="Oslashacute" unicode="&#x1fe;" horiz-adv-x="693" 
d="M665 420c3 -239 -154 -440 -344 -435c-66 0 -122 19 -168 58l-50 -68l-35 25l55 74c-43 53 -65 122 -65 206c-4 239 155 440 344 435c61 0 113 -16 156 -49l43 59l34 -26l-45 -61c48 -52 75 -127 75 -218zM161 126l362 492c-34 27 -74 40 -121 40
c-155 3 -285 -173 -282 -379c0 -61 14 -112 41 -153zM604 421c0 68 -17 124 -51 167l-364 -496c35 -33 79 -50 132 -50c155 -4 286 175 283 379zM373 775l88 110h85l-116 -110h-57z" />
    <glyph glyph-name="Otilde" unicode="&#xd5;" horiz-adv-x="693" 
d="M58 280c-4 239 155 440 344 435c159 0 263 -119 263 -295c3 -239 -154 -440 -344 -435c-159 0 -263 119 -263 295zM602 420c0 141 -78 236 -200 236c-153 4 -284 -173 -281 -376c0 -141 79 -236 200 -236c154 -4 283 172 281 376zM407 793c-19 12 -35 18 -48 18
c-20 0 -34 -12 -42 -36h-37c9 51 43 83 84 83c25 0 43 -8 68 -23c23 -12 33 -18 48 -18c21 0 35 12 43 36h37c-9 -51 -43 -83 -84 -83c-25 0 -44 8 -69 23z" />
    <glyph glyph-name="uni1E4C" unicode="&#x1e4c;" horiz-adv-x="693" 
d="M58 280c-4 239 155 440 344 435c159 0 263 -119 263 -295c3 -239 -154 -440 -344 -435c-159 0 -263 119 -263 295zM602 420c0 141 -78 236 -200 236c-153 4 -284 -173 -281 -376c0 -141 79 -236 200 -236c154 -4 283 172 281 376zM407 793c-19 12 -35 18 -48 18
c-20 0 -34 -12 -42 -36h-37c9 51 43 83 84 83c25 0 43 -8 68 -23c23 -12 33 -18 48 -18c21 0 35 12 43 36h37c-9 -51 -43 -83 -84 -83c-25 0 -44 8 -69 23zM395 888l88 110h85l-116 -110h-57z" />
    <glyph glyph-name="OE" unicode="&#x152;" horiz-adv-x="957" 
d="M59 280c-3 246 148 438 343 435c69 0 127 -22 174 -65h2l9 50h389l-10 -58h-328l-45 -253h300l-10 -56h-300l-48 -275h327l-9 -58h-389l7 38h-2c-41 -35 -93 -53 -154 -53c-153 0 -256 120 -256 295zM486 125l79 455c-39 51 -94 77 -163 77c-157 4 -285 -166 -282 -377
c0 -142 80 -237 201 -237c64 0 125 30 165 82z" />
    <glyph glyph-name="P" unicode="P" horiz-adv-x="611" 
d="M44 0l123 700h246c131 0 210 -71 210 -190c0 -145 -102 -234 -271 -234h-197l-48 -276h-63zM166 335h189c133 0 205 62 205 175c0 87 -52 131 -149 131h-191z" />
    <glyph glyph-name="Thorn" unicode="&#xde;" horiz-adv-x="610" 
d="M44 0l123 700h63l-24 -135h183c132 0 210 -70 210 -190c0 -145 -102 -233 -271 -233h-196l-25 -142h-63zM142 201h190c132 0 204 61 204 174c0 87 -52 131 -149 131h-190z" />
    <glyph glyph-name="Q" unicode="Q" horiz-adv-x="686" 
d="M556 98l67 -80l-41 -33l-64 76c-56 -49 -124 -76 -197 -76c-159 0 -263 119 -263 295c-4 239 155 440 344 435c159 0 263 -119 263 -295c0 -127 -40 -242 -109 -322zM479 108l-147 175l41 33l142 -169c55 69 87 166 87 273c0 141 -78 236 -200 236
c-153 4 -284 -173 -281 -376c0 -141 79 -236 200 -236c59 0 111 21 158 64z" />
    <glyph glyph-name="R" unicode="R" horiz-adv-x="606" 
d="M44 0l123 700h233c131 0 209 -70 209 -182c0 -129 -90 -213 -242 -222v-2l123 -294h-69l-118 294h-145l-51 -294h-63zM168 353h175c132 0 204 61 204 165c0 79 -53 123 -150 123h-177z" />
    <glyph glyph-name="Racute" unicode="&#x154;" horiz-adv-x="606" 
d="M44 0l123 700h233c131 0 209 -70 209 -182c0 -129 -90 -213 -242 -222v-2l123 -294h-69l-118 294h-145l-51 -294h-63zM168 353h175c132 0 204 61 204 165c0 79 -53 123 -150 123h-177zM318 760l88 110h85l-116 -110h-57z" />
    <glyph glyph-name="Rcaron" unicode="&#x158;" horiz-adv-x="606" 
d="M44 0l123 700h233c131 0 209 -70 209 -182c0 -129 -90 -213 -242 -222v-2l123 -294h-69l-118 294h-145l-51 -294h-63zM168 353h175c132 0 204 61 204 165c0 79 -53 123 -150 123h-177zM440 865l34 -34l-80 -81h-79l-57 89l40 26l56 -89z" />
    <glyph glyph-name="uni0156" unicode="&#x156;" horiz-adv-x="606" 
d="M44 0l123 700h233c131 0 209 -70 209 -182c0 -129 -90 -213 -242 -222v-2l123 -294h-69l-118 294h-145l-51 -294h-63zM168 353h175c132 0 204 61 204 165c0 79 -53 123 -150 123h-177zM206 -207l5 32c25 4 36 17 43 44h-38l15 82h88l-13 -71c-8 -53 -43 -83 -100 -87z
" />
    <glyph glyph-name="S" unicode="S" horiz-adv-x="595" 
d="M30 228l63 10c14 -129 84 -194 211 -194c51 0 93 13 125 38c33 25 49 58 49 99c0 71 -40 110 -175 164c-144 59 -190 106 -190 189c0 103 93 181 212 181c137 0 228 -75 248 -202l-62 -10c-20 103 -81 153 -186 153c-83 0 -150 -54 -150 -120c0 -57 36 -89 157 -138
c155 -64 208 -118 208 -216c0 -115 -98 -197 -236 -197c-160 0 -259 87 -274 243z" />
    <glyph glyph-name="Sacute" unicode="&#x15a;" horiz-adv-x="595" 
d="M30 228l63 10c14 -129 84 -194 211 -194c51 0 93 13 125 38c33 25 49 58 49 99c0 71 -40 110 -175 164c-144 59 -190 106 -190 189c0 103 93 181 212 181c137 0 228 -75 248 -202l-62 -10c-20 103 -81 153 -186 153c-83 0 -150 -54 -150 -120c0 -57 36 -89 157 -138
c155 -64 208 -118 208 -216c0 -115 -98 -197 -236 -197c-160 0 -259 87 -274 243zM296 775l88 110h85l-116 -110h-57z" />
    <glyph glyph-name="Scaron" unicode="&#x160;" horiz-adv-x="595" 
d="M30 228l63 10c14 -129 84 -194 211 -194c51 0 93 13 125 38c33 25 49 58 49 99c0 71 -40 110 -175 164c-144 59 -190 106 -190 189c0 103 93 181 212 181c137 0 228 -75 248 -202l-62 -10c-20 103 -81 153 -186 153c-83 0 -150 -54 -150 -120c0 -57 36 -89 157 -138
c155 -64 208 -118 208 -216c0 -115 -98 -197 -236 -197c-160 0 -259 87 -274 243zM418 880l34 -34l-80 -81h-79l-57 89l40 26l56 -89z" />
    <glyph glyph-name="Scedilla" unicode="&#x15e;" horiz-adv-x="595" 
d="M30 228l63 10c14 -129 84 -194 211 -194c51 0 93 13 125 38c33 25 49 58 49 99c0 71 -40 110 -175 164c-144 59 -190 106 -190 189c0 103 93 181 212 181c137 0 228 -75 248 -202l-62 -10c-20 103 -81 153 -186 153c-83 0 -150 -54 -150 -120c0 -57 36 -89 157 -138
c155 -64 208 -118 208 -216c0 -115 -98 -197 -236 -197c-160 0 -259 87 -274 243zM401 -128c0 -55 -46 -96 -106 -96c-40 0 -72 13 -97 39l30 31c19 -21 38 -30 66 -30c37 0 65 24 65 56c0 23 -16 37 -45 37c-21 0 -42 -10 -63 -29l-34 18l73 102l42 -5l-43 -57
c10 4 21 6 33 6c47 0 79 -29 79 -72z" />
    <glyph glyph-name="Scircumflex" unicode="&#x15c;" horiz-adv-x="595" 
d="M30 228l63 10c14 -129 84 -194 211 -194c51 0 93 13 125 38c33 25 49 58 49 99c0 71 -40 110 -175 164c-144 59 -190 106 -190 189c0 103 93 181 212 181c137 0 228 -75 248 -202l-62 -10c-20 103 -81 153 -186 153c-83 0 -150 -54 -150 -120c0 -57 36 -89 157 -138
c155 -64 208 -118 208 -216c0 -115 -98 -197 -236 -197c-160 0 -259 87 -274 243zM438 781l-40 -26l-56 88l-86 -88l-33 34l80 81h78z" />
    <glyph glyph-name="uni0218" unicode="&#x218;" horiz-adv-x="595" 
d="M30 228l63 10c14 -129 84 -194 211 -194c51 0 93 13 125 38c33 25 49 58 49 99c0 71 -40 110 -175 164c-144 59 -190 106 -190 189c0 103 93 181 212 181c137 0 228 -75 248 -202l-62 -10c-20 103 -81 153 -186 153c-83 0 -150 -54 -150 -120c0 -57 36 -89 157 -138
c155 -64 208 -118 208 -216c0 -115 -98 -197 -236 -197c-160 0 -259 87 -274 243zM230 -222l5 32c25 4 36 17 43 44h-38l15 82h88l-13 -71c-8 -53 -43 -83 -100 -87z" />
    <glyph glyph-name="uni1E62" unicode="&#x1e62;" horiz-adv-x="595" 
d="M30 228l63 10c14 -129 84 -194 211 -194c51 0 93 13 125 38c33 25 49 58 49 99c0 71 -40 110 -175 164c-144 59 -190 106 -190 189c0 103 93 181 212 181c137 0 228 -75 248 -202l-62 -10c-20 103 -81 153 -186 153c-83 0 -150 -54 -150 -120c0 -57 36 -89 157 -138
c155 -64 208 -118 208 -216c0 -115 -98 -197 -236 -197c-160 0 -259 87 -274 243zM242 -147l14 83h85l-14 -83h-85z" />
    <glyph glyph-name="uni018F" unicode="&#x18f;" horiz-adv-x="681" 
d="M652 420c3 -243 -148 -439 -339 -435c-157 0 -255 115 -255 295c0 31 2 61 7 91h522c1 21 2 38 2 49c0 144 -75 236 -195 236c-100 0 -190 -67 -241 -179l-58 23c61 135 172 215 299 215c156 0 258 -118 258 -295zM579 315h-457c-1 -19 -2 -32 -2 -39
c0 -141 76 -232 193 -232c129 0 234 113 266 271z" />
    <glyph glyph-name="T" unicode="T" horiz-adv-x="575" 
d="M210 0l113 641h-221l10 59h505l-10 -59h-222l-113 -641h-62z" />
    <glyph glyph-name="_123" horiz-adv-x="575" 
d="M210 0l113 641h-221l10 59h505l-10 -59h-222l-113 -641h-62z" />
    <glyph glyph-name="Tbar" unicode="&#x166;" horiz-adv-x="575" 
d="M210 0l113 641h-221l10 59h505l-10 -59h-222l-113 -641h-62zM127 327l9 52h344l-10 -52h-343z" />
    <glyph glyph-name="_125" horiz-adv-x="575" 
d="M210 0l113 641h-221l10 59h505l-10 -59h-222l-113 -641h-62zM127 327l9 52h344l-10 -52h-343z" />
    <glyph glyph-name="Tcaron" unicode="&#x164;" horiz-adv-x="575" 
d="M210 0l113 641h-221l10 59h505l-10 -59h-222l-113 -641h-62zM458 865l34 -34l-80 -81h-79l-57 89l40 26l56 -89z" />
    <glyph glyph-name="_127" horiz-adv-x="575" 
d="M210 0l113 641h-221l10 59h505l-10 -59h-222l-113 -641h-62zM458 865l34 -34l-80 -81h-79l-57 89l40 26l56 -89z" />
    <glyph glyph-name="uni0162" unicode="&#x162;" horiz-adv-x="575" 
d="M210 0l113 641h-221l10 59h505l-10 -59h-222l-113 -641h-62zM338 -114c0 -55 -46 -96 -106 -96c-40 0 -72 13 -97 39l30 31c19 -21 38 -30 66 -30c37 0 65 24 65 56c0 23 -16 37 -45 37c-21 0 -42 -10 -63 -29l-34 18l73 102l42 -5l-43 -57c10 4 21 6 33 6
c47 0 79 -29 79 -72z" />
    <glyph glyph-name="_129" horiz-adv-x="575" 
d="M210 0l113 641h-221l10 59h505l-10 -59h-222l-113 -641h-62zM339 -114c0 -55 -46 -96 -106 -96c-40 0 -72 13 -97 39l30 31c19 -21 38 -30 66 -30c37 0 65 24 65 56c0 23 -16 37 -45 37c-21 0 -42 -10 -63 -29l-34 18l73 102l42 -5l-43 -57c10 4 21 6 33 6
c47 0 79 -29 79 -72z" />
    <glyph glyph-name="uni021A" unicode="&#x21a;" horiz-adv-x="575" 
d="M210 0l113 641h-221l10 59h505l-10 -59h-222l-113 -641h-62zM167 -207l5 32c25 4 36 17 43 44h-38l15 82h88l-13 -71c-8 -53 -43 -83 -100 -87z" />
    <glyph glyph-name="_131" horiz-adv-x="575" 
d="M210 0l113 641h-221l10 59h505l-10 -59h-222l-113 -641h-62zM168 -207l5 32c25 4 36 17 43 44h-38l15 82h88l-13 -71c-8 -53 -43 -83 -100 -87z" />
    <glyph glyph-name="uni1E6C" unicode="&#x1e6c;" horiz-adv-x="575" 
d="M210 0l113 641h-221l10 59h505l-10 -59h-222l-113 -641h-62zM179 -132l14 83h85l-14 -83h-85z" />
    <glyph glyph-name="_133" horiz-adv-x="575" 
d="M210 0l113 641h-221l10 59h505l-10 -59h-222l-113 -641h-62zM180 -132l14 83h85l-14 -83h-85z" />
    <glyph glyph-name="U" unicode="U" horiz-adv-x="663" 
d="M76 188c0 15 2 34 5 55l82 457h62l-80 -457c-3 -16 -5 -34 -5 -54c0 -93 53 -145 150 -145c121 0 198 71 221 200l81 456h63l-82 -462c-29 -163 -129 -253 -286 -253c-129 0 -211 79 -211 203z" />
    <glyph glyph-name="Uacute" unicode="&#xda;" horiz-adv-x="663" 
d="M76 188c0 15 2 34 5 55l82 457h62l-80 -457c-3 -16 -5 -34 -5 -54c0 -93 53 -145 150 -145c121 0 198 71 221 200l81 456h63l-82 -462c-29 -163 -129 -253 -286 -253c-129 0 -211 79 -211 203zM380 760l88 110h85l-116 -110h-57z" />
    <glyph glyph-name="Ubreve" unicode="&#x16c;" horiz-adv-x="663" 
d="M76 188c0 15 2 34 5 55l82 457h62l-80 -457c-3 -16 -5 -34 -5 -54c0 -93 53 -145 150 -145c121 0 198 71 221 200l81 456h63l-82 -462c-29 -163 -129 -253 -286 -253c-129 0 -211 79 -211 203zM311 861h38c5 -39 25 -59 62 -59c44 0 75 20 93 59h38
c-19 -71 -65 -111 -133 -111c-60 0 -99 44 -98 111z" />
    <glyph glyph-name="uni01D3" unicode="&#x1d3;" horiz-adv-x="663" 
d="M76 188c0 15 2 34 5 55l82 457h62l-80 -457c-3 -16 -5 -34 -5 -54c0 -93 53 -145 150 -145c121 0 198 71 221 200l81 456h63l-82 -462c-29 -163 -129 -253 -286 -253c-129 0 -211 79 -211 203zM502 865l34 -34l-80 -81h-79l-57 89l40 26l56 -89z" />
    <glyph glyph-name="Ucircumflex" unicode="&#xdb;" horiz-adv-x="663" 
d="M76 188c0 15 2 34 5 55l82 457h62l-80 -457c-3 -16 -5 -34 -5 -54c0 -93 53 -145 150 -145c121 0 198 71 221 200l81 456h63l-82 -462c-29 -163 -129 -253 -286 -253c-129 0 -211 79 -211 203zM522 766l-40 -26l-56 88l-86 -88l-33 34l80 81h78z" />
    <glyph glyph-name="Udieresis" unicode="&#xdc;" horiz-adv-x="663" 
d="M76 188c0 15 2 34 5 55l82 457h62l-80 -457c-3 -16 -5 -34 -5 -54c0 -93 53 -145 150 -145c121 0 198 71 221 200l81 456h63l-82 -462c-29 -163 -129 -253 -286 -253c-129 0 -211 79 -211 203zM290 750l14 83h85l-14 -83h-85zM462 750l14 83h85l-14 -83h-85z" />
    <glyph glyph-name="uni01D7" unicode="&#x1d7;" horiz-adv-x="663" 
d="M76 188c0 15 2 34 5 55l82 457h62l-80 -457c-3 -16 -5 -34 -5 -54c0 -93 53 -145 150 -145c121 0 198 71 221 200l81 456h63l-82 -462c-29 -163 -129 -253 -286 -253c-129 0 -211 79 -211 203zM290 750l14 83h85l-14 -83h-85zM462 750l14 83h85l-14 -83h-85zM400 873
l88 110h85l-116 -110h-57z" />
    <glyph glyph-name="uni01D9" unicode="&#x1d9;" horiz-adv-x="663" 
d="M76 188c0 15 2 34 5 55l82 457h62l-80 -457c-3 -16 -5 -34 -5 -54c0 -93 53 -145 150 -145c121 0 198 71 221 200l81 456h63l-82 -462c-29 -163 -129 -253 -286 -253c-129 0 -211 79 -211 203zM290 750l14 83h85l-14 -83h-85zM462 750l14 83h85l-14 -83h-85zM521 978
l34 -34l-80 -81h-79l-57 89l40 26l56 -89z" />
    <glyph glyph-name="uni01DB" unicode="&#x1db;" horiz-adv-x="663" 
d="M76 188c0 15 2 34 5 55l82 457h62l-80 -457c-3 -16 -5 -34 -5 -54c0 -93 53 -145 150 -145c121 0 198 71 221 200l81 456h63l-82 -462c-29 -163 -129 -253 -286 -253c-129 0 -211 79 -211 203zM290 750l14 83h85l-14 -83h-85zM462 750l14 83h85l-14 -83h-85zM411 873
l-77 110h82l49 -110h-54z" />
    <glyph glyph-name="uni01D5" unicode="&#x1d5;" horiz-adv-x="663" 
d="M76 188c0 15 2 34 5 55l82 457h62l-80 -457c-3 -16 -5 -34 -5 -54c0 -93 53 -145 150 -145c121 0 198 71 221 200l81 456h63l-82 -462c-29 -163 -129 -253 -286 -253c-129 0 -211 79 -211 203zM290 750l14 83h85l-14 -83h-85zM462 750l14 83h85l-14 -83h-85zM323 873
l9 49h253l-9 -49h-253z" />
    <glyph glyph-name="uni1EE4" unicode="&#x1ee4;" horiz-adv-x="663" 
d="M76 188c0 15 2 34 5 55l82 457h62l-80 -457c-3 -16 -5 -34 -5 -54c0 -93 53 -145 150 -145c121 0 198 71 221 200l81 456h63l-82 -462c-29 -163 -129 -253 -286 -253c-129 0 -211 79 -211 203zM225 -147l14 83h85l-14 -83h-85z" />
    <glyph glyph-name="Ugrave" unicode="&#xd9;" horiz-adv-x="663" 
d="M76 188c0 15 2 34 5 55l82 457h62l-80 -457c-3 -16 -5 -34 -5 -54c0 -93 53 -145 150 -145c121 0 198 71 221 200l81 456h63l-82 -462c-29 -163 -129 -253 -286 -253c-129 0 -211 79 -211 203zM391 760l-77 110h82l49 -110h-54z" />
    <glyph glyph-name="Uhungarumlaut" unicode="&#x170;" horiz-adv-x="663" 
d="M76 188c0 15 2 34 5 55l82 457h62l-80 -457c-3 -16 -5 -34 -5 -54c0 -93 53 -145 150 -145c121 0 198 71 221 200l81 456h63l-82 -462c-29 -163 -129 -253 -286 -253c-129 0 -211 79 -211 203zM311 760l88 110h85l-116 -110h-57zM448 760l88 110h84l-116 -110h-56z" />
    <glyph glyph-name="Umacron" unicode="&#x16a;" horiz-adv-x="663" 
d="M76 188c0 15 2 34 5 55l82 457h62l-80 -457c-3 -16 -5 -34 -5 -54c0 -93 53 -145 150 -145c121 0 198 71 221 200l81 456h63l-82 -462c-29 -163 -129 -253 -286 -253c-129 0 -211 79 -211 203zM303 760l9 49h253l-9 -49h-253z" />
    <glyph glyph-name="Uogonek" unicode="&#x172;" horiz-adv-x="663" 
d="M76 188c0 15 2 34 5 55l82 457h62l-80 -457c-3 -16 -5 -34 -5 -54c0 -93 53 -145 150 -145c121 0 198 71 221 200l81 456h63l-82 -462c-29 -163 -129 -253 -286 -253c-129 0 -211 79 -211 203zM234 -128c0 49 45 99 125 140l30 -12c-61 -31 -101 -75 -101 -112
c0 -18 11 -27 33 -27c19 0 40 6 63 19l11 -47c-29 -15 -58 -23 -85 -23c-49 0 -76 22 -76 62z" />
    <glyph glyph-name="Uring" unicode="&#x16e;" horiz-adv-x="663" 
d="M76 188c0 15 2 34 5 55l82 457h62l-80 -457c-3 -16 -5 -34 -5 -54c0 -93 53 -145 150 -145c121 0 198 71 221 200l81 456h63l-82 -462c-29 -163 -129 -253 -286 -253c-129 0 -211 79 -211 203zM295 770c0 61 47 107 114 107s114 -46 114 -107c0 -63 -47 -108 -114 -108
s-114 45 -114 108zM479 770c0 40 -30 69 -70 69s-70 -29 -70 -69c0 -41 30 -70 70 -70s70 29 70 70z" />
    <glyph glyph-name="Utilde" unicode="&#x168;" horiz-adv-x="663" 
d="M76 188c0 15 2 34 5 55l82 457h62l-80 -457c-3 -16 -5 -34 -5 -54c0 -93 53 -145 150 -145c121 0 198 71 221 200l81 456h63l-82 -462c-29 -163 -129 -253 -286 -253c-129 0 -211 79 -211 203zM414 778c-19 12 -35 18 -48 18c-20 0 -34 -12 -42 -36h-37c9 51 43 83 84 83
c25 0 43 -8 68 -23c23 -12 33 -18 48 -18c21 0 35 12 43 36h37c-9 -51 -43 -83 -84 -83c-25 0 -44 8 -69 23z" />
    <glyph glyph-name="V" unicode="V" horiz-adv-x="590" 
d="M212 0l-132 700h66l111 -616h2l331 616h73l-381 -700h-70z" />
    <glyph glyph-name="W" unicode="W" horiz-adv-x="836" 
d="M116 0l-21 700h62l15 -606h2l288 606h61l78 -606h2l226 606h66l-264 -700h-75l-76 605h-2l-286 -605h-76z" />
    <glyph glyph-name="Wacute" unicode="&#x1e82;" horiz-adv-x="836" 
d="M116 0l-21 700h62l15 -606h2l288 606h61l78 -606h2l226 606h66l-264 -700h-75l-76 605h-2l-286 -605h-76zM467 760l88 110h85l-116 -110h-57z" />
    <glyph glyph-name="Wcircumflex" unicode="&#x174;" horiz-adv-x="836" 
d="M116 0l-21 700h62l15 -606h2l288 606h61l78 -606h2l226 606h66l-264 -700h-75l-76 605h-2l-286 -605h-76zM609 766l-40 -26l-56 88l-86 -88l-33 34l80 81h78z" />
    <glyph glyph-name="Wdieresis" unicode="&#x1e84;" horiz-adv-x="836" 
d="M116 0l-21 700h62l15 -606h2l288 606h61l78 -606h2l226 606h66l-264 -700h-75l-76 605h-2l-286 -605h-76zM377 750l14 83h85l-14 -83h-85zM549 750l14 83h85l-14 -83h-85z" />
    <glyph glyph-name="Wgrave" unicode="&#x1e80;" horiz-adv-x="836" 
d="M116 0l-21 700h62l15 -606h2l288 606h61l78 -606h2l226 606h66l-264 -700h-75l-76 605h-2l-286 -605h-76zM478 760l-77 110h82l49 -110h-54z" />
    <glyph glyph-name="X" unicode="X" horiz-adv-x="538" 
d="M-37 0l284 355l-153 345h68l128 -296h2l231 296h79l-277 -345l156 -355h-68l-130 306h-2l-240 -306h-78z" />
    <glyph glyph-name="Y" unicode="Y" horiz-adv-x="560" 
d="M201 0l53 290l-177 410h68l144 -349h2l268 349h78l-321 -410l-52 -290h-63z" />
    <glyph glyph-name="Yacute" unicode="&#xdd;" horiz-adv-x="560" 
d="M201 0l53 290l-177 410h68l144 -349h2l268 349h78l-321 -410l-52 -290h-63zM328 760l88 110h85l-116 -110h-57z" />
    <glyph glyph-name="Ycircumflex" unicode="&#x176;" horiz-adv-x="560" 
d="M201 0l53 290l-177 410h68l144 -349h2l268 349h78l-321 -410l-52 -290h-63zM470 766l-40 -26l-56 88l-86 -88l-33 34l80 81h78z" />
    <glyph glyph-name="Ydieresis" unicode="&#x178;" horiz-adv-x="560" 
d="M201 0l53 290l-177 410h68l144 -349h2l268 349h78l-321 -410l-52 -290h-63zM238 750l14 83h85l-14 -83h-85zM410 750l14 83h85l-14 -83h-85z" />
    <glyph glyph-name="uni1EF4" unicode="&#x1ef4;" horiz-adv-x="560" 
d="M201 0l53 290l-177 410h68l144 -349h2l268 349h78l-321 -410l-52 -290h-63zM171 -132l14 83h85l-14 -83h-85z" />
    <glyph glyph-name="Ygrave" unicode="&#x1ef2;" horiz-adv-x="560" 
d="M201 0l53 290l-177 410h68l144 -349h2l268 349h78l-321 -410l-52 -290h-63zM339 760l-77 110h82l49 -110h-54z" />
    <glyph glyph-name="uni1EF8" unicode="&#x1ef8;" horiz-adv-x="560" 
d="M201 0l53 290l-177 410h68l144 -349h2l268 349h78l-321 -410l-52 -290h-63zM362 778c-19 12 -35 18 -48 18c-20 0 -34 -12 -42 -36h-37c9 51 43 83 84 83c25 0 43 -8 68 -23c23 -12 33 -18 48 -18c21 0 35 12 43 36h37c-9 -51 -43 -83 -84 -83c-25 0 -44 8 -69 23z" />
    <glyph glyph-name="Z" unicode="Z" horiz-adv-x="579" 
d="M-16 0l8 53l540 586v2h-414l11 59h496l-9 -53l-539 -586v-2h420l-10 -59h-503z" />
    <glyph glyph-name="Zacute" unicode="&#x179;" horiz-adv-x="579" 
d="M-16 0l8 53l540 586v2h-414l11 59h496l-9 -53l-539 -586v-2h420l-10 -59h-503zM348 760l88 110h85l-116 -110h-57z" />
    <glyph glyph-name="Zcaron" unicode="&#x17d;" horiz-adv-x="579" 
d="M-16 0l8 53l540 586v2h-414l11 59h496l-9 -53l-539 -586v-2h420l-10 -59h-503zM470 865l34 -34l-80 -81h-79l-57 89l40 26l56 -89z" />
    <glyph glyph-name="Zdotaccent" unicode="&#x17b;" horiz-adv-x="579" 
d="M-16 0l8 53l540 586v2h-414l11 59h496l-9 -53l-539 -586v-2h420l-10 -59h-503zM345 760l14 83h85l-14 -83h-85z" />
    <glyph glyph-name="uni1E92" unicode="&#x1e92;" horiz-adv-x="579" 
d="M-16 0l8 53l540 586v2h-414l11 59h496l-9 -53l-539 -586v-2h420l-10 -59h-503zM194 -132l14 83h85l-14 -83h-85z" />
    <glyph glyph-name="a" unicode="a" horiz-adv-x="578" 
d="M495 530h59l-93 -530h-58l11 60h-2c-35 -45 -92 -72 -159 -72c-125 0 -205 88 -205 228c-3 179 123 333 272 329c71 0 128 -28 163 -71h2zM434 183l38 214c-23 55 -80 93 -152 93c-118 3 -216 -125 -213 -274c0 -107 59 -172 155 -172c82 0 160 62 172 139z" />
    <glyph glyph-name="aacute" unicode="&#xe1;" horiz-adv-x="578" 
d="M495 530h59l-93 -530h-58l11 60h-2c-35 -45 -92 -72 -159 -72c-125 0 -205 88 -205 228c-3 179 123 333 272 329c71 0 128 -28 163 -71h2zM434 183l38 214c-23 55 -80 93 -152 93c-118 3 -216 -125 -213 -274c0 -107 59 -172 155 -172c82 0 160 62 172 139zM307 605
l88 110h85l-116 -110h-57z" />
    <glyph glyph-name="abreve" unicode="&#x103;" horiz-adv-x="578" 
d="M495 530h59l-93 -530h-58l11 60h-2c-35 -45 -92 -72 -159 -72c-125 0 -205 88 -205 228c-3 179 123 333 272 329c71 0 128 -28 163 -71h2zM434 183l38 214c-23 55 -80 93 -152 93c-118 3 -216 -125 -213 -274c0 -107 59 -172 155 -172c82 0 160 62 172 139zM238 706h38
c5 -39 25 -59 62 -59c44 0 75 20 93 59h38c-19 -71 -65 -111 -133 -111c-60 0 -99 44 -98 111z" />
    <glyph glyph-name="uni01CE" unicode="&#x1ce;" horiz-adv-x="578" 
d="M495 530h59l-93 -530h-58l11 60h-2c-35 -45 -92 -72 -159 -72c-125 0 -205 88 -205 228c-3 179 123 333 272 329c71 0 128 -28 163 -71h2zM434 183l38 214c-23 55 -80 93 -152 93c-118 3 -216 -125 -213 -274c0 -107 59 -172 155 -172c82 0 160 62 172 139zM429 710
l34 -34l-80 -81h-79l-57 89l40 26l56 -89z" />
    <glyph glyph-name="acircumflex" unicode="&#xe2;" horiz-adv-x="578" 
d="M495 530h59l-93 -530h-58l11 60h-2c-35 -45 -92 -72 -159 -72c-125 0 -205 88 -205 228c-3 179 123 333 272 329c71 0 128 -28 163 -71h2zM434 183l38 214c-23 55 -80 93 -152 93c-118 3 -216 -125 -213 -274c0 -107 59 -172 155 -172c82 0 160 62 172 139zM449 611
l-40 -26l-56 88l-86 -88l-33 34l80 81h78z" />
    <glyph glyph-name="uni1EAD" unicode="&#x1ead;" horiz-adv-x="578" 
d="M495 530h59l-93 -530h-58l11 60h-2c-35 -45 -92 -72 -159 -72c-125 0 -205 88 -205 228c-3 179 123 333 272 329c71 0 128 -28 163 -71h2zM434 183l38 214c-23 55 -80 93 -152 93c-118 3 -216 -125 -213 -274c0 -107 59 -172 155 -172c82 0 160 62 172 139zM449 611
l-40 -26l-56 88l-86 -88l-33 34l80 81h78zM194 -144l14 83h85l-14 -83h-85z" />
    <glyph glyph-name="adieresis" unicode="&#xe4;" horiz-adv-x="578" 
d="M495 530h59l-93 -530h-58l11 60h-2c-35 -45 -92 -72 -159 -72c-125 0 -205 88 -205 228c-3 179 123 333 272 329c71 0 128 -28 163 -71h2zM434 183l38 214c-23 55 -80 93 -152 93c-118 3 -216 -125 -213 -274c0 -107 59 -172 155 -172c82 0 160 62 172 139zM217 595
l14 83h85l-14 -83h-85zM389 595l14 83h85l-14 -83h-85z" />
    <glyph glyph-name="uni01DF" unicode="&#x1df;" horiz-adv-x="578" 
d="M495 530h59l-93 -530h-58l11 60h-2c-35 -45 -92 -72 -159 -72c-125 0 -205 88 -205 228c-3 179 123 333 272 329c71 0 128 -28 163 -71h2zM434 183l38 214c-23 55 -80 93 -152 93c-118 3 -216 -125 -213 -274c0 -107 59 -172 155 -172c82 0 160 62 172 139zM217 595
l14 83h85l-14 -83h-85zM389 595l14 83h85l-14 -83h-85zM250 718l9 49h253l-9 -49h-253z" />
    <glyph glyph-name="uni1EA1" unicode="&#x1ea1;" horiz-adv-x="578" 
d="M495 530h59l-93 -530h-58l11 60h-2c-35 -45 -92 -72 -159 -72c-125 0 -205 88 -205 228c-3 179 123 333 272 329c71 0 128 -28 163 -71h2zM434 183l38 214c-23 55 -80 93 -152 93c-118 3 -216 -125 -213 -274c0 -107 59 -172 155 -172c82 0 160 62 172 139zM194 -144
l14 83h85l-14 -83h-85z" />
    <glyph glyph-name="agrave" unicode="&#xe0;" horiz-adv-x="578" 
d="M495 530h59l-93 -530h-58l11 60h-2c-35 -45 -92 -72 -159 -72c-125 0 -205 88 -205 228c-3 179 123 333 272 329c71 0 128 -28 163 -71h2zM434 183l38 214c-23 55 -80 93 -152 93c-118 3 -216 -125 -213 -274c0 -107 59 -172 155 -172c82 0 160 62 172 139zM318 605
l-77 110h82l49 -110h-54z" />
    <glyph glyph-name="amacron" unicode="&#x101;" horiz-adv-x="578" 
d="M495 530h59l-93 -530h-58l11 60h-2c-35 -45 -92 -72 -159 -72c-125 0 -205 88 -205 228c-3 179 123 333 272 329c71 0 128 -28 163 -71h2zM434 183l38 214c-23 55 -80 93 -152 93c-118 3 -216 -125 -213 -274c0 -107 59 -172 155 -172c82 0 160 62 172 139zM230 605l9 49
h253l-9 -49h-253z" />
    <glyph glyph-name="aogonek" unicode="&#x105;" horiz-adv-x="578" 
d="M495 530h59l-93 -530h-58l11 60h-2c-35 -45 -92 -72 -159 -72c-125 0 -205 88 -205 228c-3 179 123 333 272 329c71 0 128 -28 163 -71h2zM434 183l38 214c-23 55 -80 93 -152 93c-118 3 -216 -125 -213 -274c0 -107 59 -172 155 -172c82 0 160 62 172 139zM311 -124
c0 49 45 99 125 140l30 -12c-61 -31 -101 -75 -101 -112c0 -18 11 -27 33 -27c19 0 40 6 63 19l11 -47c-29 -15 -58 -23 -85 -23c-49 0 -76 22 -76 62z" />
    <glyph glyph-name="aring" unicode="&#xe5;" horiz-adv-x="579" 
d="M244 678c0 57 44 99 105 99c60 0 104 -42 104 -99s-44 -99 -104 -99c-61 0 -105 42 -105 99zM413 678c0 37 -28 64 -64 64c-37 0 -65 -27 -65 -64s28 -64 65 -64c36 0 64 27 64 64zM495 530h59l-93 -530h-58l11 60h-2c-35 -45 -92 -72 -159 -72c-125 0 -205 88 -205 228
c-3 179 123 333 272 329c71 0 128 -28 163 -71h2zM434 183l38 214c-23 55 -80 93 -152 93c-118 3 -216 -125 -213 -274c0 -107 59 -172 155 -172c82 0 160 62 172 139z" />
    <glyph glyph-name="aringacute" unicode="&#x1fb;" horiz-adv-x="577" 
d="M244 678c0 47 29 83 74 95l78 98h85l-103 -98c45 -11 75 -48 75 -95c0 -57 -44 -99 -104 -99c-61 0 -105 42 -105 99zM284 678c0 -37 28 -64 65 -64c36 0 64 27 64 64s-28 64 -64 64c-37 0 -65 -27 -65 -64zM495 530h59l-93 -530h-58l11 60h-2c-35 -45 -92 -72 -159 -72
c-125 0 -205 88 -205 228c-3 179 123 333 272 329c71 0 128 -28 163 -71h2zM434 183l38 214c-23 55 -80 93 -152 93c-118 3 -216 -125 -213 -274c0 -107 59 -172 155 -172c82 0 160 62 172 139z" />
    <glyph glyph-name="atilde" unicode="&#xe3;" horiz-adv-x="578" 
d="M495 530h59l-93 -530h-58l11 60h-2c-35 -45 -92 -72 -159 -72c-125 0 -205 88 -205 228c-3 179 123 333 272 329c71 0 128 -28 163 -71h2zM434 183l38 214c-23 55 -80 93 -152 93c-118 3 -216 -125 -213 -274c0 -107 59 -172 155 -172c82 0 160 62 172 139zM341 623
c-19 12 -35 18 -48 18c-20 0 -34 -12 -42 -36h-37c9 51 43 83 84 83c25 0 43 -8 68 -23c23 -12 33 -18 48 -18c21 0 35 12 43 36h37c-9 -51 -43 -83 -84 -83c-25 0 -44 8 -69 23z" />
    <glyph glyph-name="ae" unicode="&#xe6;" horiz-adv-x="919" 
d="M870 315c0 -31 -1 -53 -4 -65h-419c-1 -6 -1 -16 -1 -31c0 -116 59 -181 162 -181c73 0 133 38 181 115l46 -34c-56 -85 -138 -134 -227 -134c-100 0 -168 47 -197 132c-37 -81 -123 -132 -223 -132c-97 0 -157 49 -157 130c0 39 10 71 30 94c40 48 94 66 185 89
c38 10 68 19 90 27c44 17 77 45 77 93c0 45 -44 75 -112 75c-87 0 -149 -47 -177 -132l-54 17c33 105 120 167 232 167c88 0 149 -39 164 -102c49 64 117 102 190 102c129 0 214 -92 214 -230zM814 320c0 107 -61 172 -158 172c-47 0 -90 -18 -127 -54s-62 -83 -75 -141h359
c1 5 1 13 1 23zM378 176l25 143h-2c-25 -31 -65 -45 -142 -66c-38 -11 -68 -20 -91 -29c-45 -17 -81 -50 -81 -105s34 -82 101 -82c47 0 89 13 125 38c36 26 58 60 65 101z" />
    <glyph glyph-name="aeacute" unicode="&#x1fd;" horiz-adv-x="919" 
d="M870 315c0 -31 -1 -53 -4 -65h-419c-1 -6 -1 -16 -1 -31c0 -116 59 -181 162 -181c73 0 133 38 181 115l46 -34c-56 -85 -138 -134 -227 -134c-100 0 -168 47 -197 132c-37 -81 -123 -132 -223 -132c-97 0 -157 49 -157 130c0 39 10 71 30 94c40 48 94 66 185 89
c38 10 68 19 90 27c44 17 77 45 77 93c0 45 -44 75 -112 75c-87 0 -149 -47 -177 -132l-54 17c33 105 120 167 232 167c88 0 149 -39 164 -102c49 64 117 102 190 102c129 0 214 -92 214 -230zM814 320c0 107 -61 172 -158 172c-47 0 -90 -18 -127 -54s-62 -83 -75 -141h359
c1 5 1 13 1 23zM378 176l25 143h-2c-25 -31 -65 -45 -142 -66c-38 -11 -68 -20 -91 -29c-45 -17 -81 -50 -81 -105s34 -82 101 -82c47 0 89 13 125 38c36 26 58 60 65 101zM478 590l88 110h85l-116 -110h-57z" />
    <glyph glyph-name="b" unicode="b" horiz-adv-x="589" 
d="M96 67h-2l-11 -67h-59l128 730h59l-45 -251h2c43 41 102 66 167 66c121 0 206 -93 206 -234c3 -177 -126 -330 -277 -326c-73 0 -136 33 -168 82zM482 311c0 112 -58 179 -154 179c-45 0 -85 -13 -120 -39c-34 -25 -55 -57 -62 -96l-38 -213c19 -60 80 -102 156 -102
c121 0 218 122 218 271z" />
    <glyph glyph-name="uni1E05" unicode="&#x1e05;" horiz-adv-x="589" 
d="M96 67h-2l-11 -67h-59l128 730h59l-45 -251h2c43 41 102 66 167 66c121 0 206 -93 206 -234c3 -177 -126 -330 -277 -326c-73 0 -136 33 -168 82zM482 311c0 112 -58 179 -154 179c-45 0 -85 -13 -120 -39c-34 -25 -55 -57 -62 -96l-38 -213c19 -60 80 -102 156 -102
c121 0 218 122 218 271zM202 -147l14 83h85l-14 -83h-85z" />
    <glyph glyph-name="c" unicode="c" horiz-adv-x="571" 
d="M48 219c-3 178 123 329 272 326c123 0 203 -77 212 -196l-58 -7c-9 93 -63 148 -154 148c-118 3 -216 -124 -213 -271c0 -107 60 -179 160 -179c84 0 151 56 187 145l54 -21c-43 -108 -132 -179 -241 -179c-133 0 -219 93 -219 234z" />
    <glyph glyph-name="cacute" unicode="&#x107;" horiz-adv-x="571" 
d="M48 219c-3 178 123 329 272 326c123 0 203 -77 212 -196l-58 -7c-9 93 -63 148 -154 148c-118 3 -216 -124 -213 -271c0 -107 60 -179 160 -179c84 0 151 56 187 145l54 -21c-43 -108 -132 -179 -241 -179c-133 0 -219 93 -219 234zM291 605l88 110h85l-116 -110h-57z
" />
    <glyph glyph-name="ccaron" unicode="&#x10d;" horiz-adv-x="571" 
d="M48 219c-3 178 123 329 272 326c123 0 203 -77 212 -196l-58 -7c-9 93 -63 148 -154 148c-118 3 -216 -124 -213 -271c0 -107 60 -179 160 -179c84 0 151 56 187 145l54 -21c-43 -108 -132 -179 -241 -179c-133 0 -219 93 -219 234zM413 710l34 -34l-80 -81h-79l-57 89
l40 26l56 -89z" />
    <glyph glyph-name="ccedilla" unicode="&#xe7;" horiz-adv-x="571" 
d="M48 219c-3 178 123 329 272 326c123 0 203 -77 212 -196l-58 -7c-9 93 -63 148 -154 148c-118 3 -216 -124 -213 -271c0 -107 60 -179 160 -179c84 0 151 56 187 145l54 -21c-43 -108 -132 -179 -241 -179c-133 0 -219 93 -219 234zM364 -128c0 -55 -46 -96 -106 -96
c-40 0 -72 13 -97 39l30 31c19 -21 38 -30 66 -30c37 0 65 24 65 56c0 23 -16 37 -45 37c-21 0 -42 -10 -63 -29l-34 18l73 102l42 -5l-43 -57c10 4 21 6 33 6c47 0 79 -29 79 -72z" />
    <glyph glyph-name="ccircumflex" unicode="&#x109;" horiz-adv-x="571" 
d="M48 219c-3 178 123 329 272 326c123 0 203 -77 212 -196l-58 -7c-9 93 -63 148 -154 148c-118 3 -216 -124 -213 -271c0 -107 60 -179 160 -179c84 0 151 56 187 145l54 -21c-43 -108 -132 -179 -241 -179c-133 0 -219 93 -219 234zM433 611l-40 -26l-56 88l-86 -88
l-33 34l80 81h78z" />
    <glyph glyph-name="cdotaccent" unicode="&#x10b;" horiz-adv-x="571" 
d="M48 219c-3 178 123 329 272 326c123 0 203 -77 212 -196l-58 -7c-9 93 -63 148 -154 148c-118 3 -216 -124 -213 -271c0 -107 60 -179 160 -179c84 0 151 56 187 145l54 -21c-43 -108 -132 -179 -241 -179c-133 0 -219 93 -219 234zM288 605l14 83h85l-14 -83h-85z" />
    <glyph glyph-name="d" unicode="d" horiz-adv-x="584" 
d="M48 215c-2 189 126 333 272 330c75 0 135 -29 170 -72h2l44 257h59l-128 -730h-57l10 60h-2c-35 -45 -93 -72 -158 -72c-131 0 -212 87 -212 227zM441 183l36 210c-23 56 -80 97 -157 97c-115 0 -213 -114 -213 -275c0 -107 60 -171 159 -171c81 0 161 62 175 139z" />
    <glyph glyph-name="eth" unicode="&#xf0;" horiz-adv-x="599" 
d="M48 219c-3 177 126 330 275 326c61 0 114 -20 147 -59h2c-16 53 -40 106 -72 159l-140 -48l-13 35l132 45c-24 37 -48 69 -73 96v2h68c17 -19 36 -46 57 -79l143 49l14 -35l-137 -48c65 -113 100 -233 100 -344c2 -187 -122 -336 -279 -333c-134 0 -224 93 -224 234z
M490 311c0 109 -64 179 -165 179c-119 3 -220 -124 -218 -271c0 -109 65 -179 165 -179c119 -3 220 124 218 271z" />
    <glyph glyph-name="dcaron" unicode="&#x10f;" horiz-adv-x="632" 
d="M48 215c-2 189 126 333 272 330c75 0 135 -29 170 -72h2l44 257h59l-128 -730h-57l10 60h-2c-35 -45 -93 -72 -158 -72c-131 0 -212 87 -212 227zM441 183l36 210c-23 56 -80 97 -157 97c-115 0 -213 -114 -213 -275c0 -107 60 -171 159 -171c81 0 161 62 175 139z
M615 572l5 32c25 4 36 17 43 44h-38l15 82h88l-13 -71c-8 -53 -43 -83 -100 -87z" />
    <glyph glyph-name="dcroat" unicode="&#x111;" horiz-adv-x="584" 
d="M48 215c-2 189 126 333 272 330c75 0 135 -29 170 -72h2l44 257h59l-128 -730h-57l10 60h-2c-35 -45 -93 -72 -158 -72c-131 0 -212 87 -212 227zM441 183l36 210c-23 56 -80 97 -157 97c-115 0 -213 -114 -213 -275c0 -107 60 -171 159 -171c81 0 161 62 175 139z
M375 617l8 46h267l-8 -46h-267z" />
    <glyph glyph-name="uni1E0D" unicode="&#x1e0d;" horiz-adv-x="584" 
d="M48 215c-2 189 126 333 272 330c75 0 135 -29 170 -72h2l44 257h59l-128 -730h-57l10 60h-2c-35 -45 -93 -72 -158 -72c-131 0 -212 87 -212 227zM441 183l36 210c-23 56 -80 97 -157 97c-115 0 -213 -114 -213 -275c0 -107 60 -171 159 -171c81 0 161 62 175 139z
M193 -132l14 83h85l-14 -83h-85z" />
    <glyph glyph-name="e" unicode="e" horiz-adv-x="579" 
d="M530 314c0 -21 -1 -43 -3 -65h-419c-1 -6 -1 -16 -1 -30c0 -115 58 -180 161 -180c71 0 132 39 179 114l47 -34c-55 -85 -137 -134 -226 -134c-137 0 -220 87 -220 234c-3 177 119 330 268 326c129 0 214 -92 214 -231zM316 491c-48 0 -90 -18 -127 -54
c-36 -35 -60 -82 -73 -139h356c4 121 -56 193 -156 193z" />
    <glyph glyph-name="eacute" unicode="&#xe9;" horiz-adv-x="579" 
d="M530 314c0 -21 -1 -43 -3 -65h-419c-1 -6 -1 -16 -1 -30c0 -115 58 -180 161 -180c71 0 132 39 179 114l47 -34c-55 -85 -137 -134 -226 -134c-137 0 -220 87 -220 234c-3 177 119 330 268 326c129 0 214 -92 214 -231zM316 491c-48 0 -90 -18 -127 -54
c-36 -35 -60 -82 -73 -139h356c4 121 -56 193 -156 193zM287 605l88 110h85l-116 -110h-57z" />
    <glyph glyph-name="ebreve" unicode="&#x115;" horiz-adv-x="579" 
d="M530 314c0 -21 -1 -43 -3 -65h-419c-1 -6 -1 -16 -1 -30c0 -115 58 -180 161 -180c71 0 132 39 179 114l47 -34c-55 -85 -137 -134 -226 -134c-137 0 -220 87 -220 234c-3 177 119 330 268 326c129 0 214 -92 214 -231zM316 491c-48 0 -90 -18 -127 -54
c-36 -35 -60 -82 -73 -139h356c4 121 -56 193 -156 193zM218 706h38c5 -39 25 -59 62 -59c44 0 75 20 93 59h38c-19 -71 -65 -111 -133 -111c-60 0 -99 44 -98 111z" />
    <glyph glyph-name="ecaron" unicode="&#x11b;" horiz-adv-x="579" 
d="M530 314c0 -21 -1 -43 -3 -65h-419c-1 -6 -1 -16 -1 -30c0 -115 58 -180 161 -180c71 0 132 39 179 114l47 -34c-55 -85 -137 -134 -226 -134c-137 0 -220 87 -220 234c-3 177 119 330 268 326c129 0 214 -92 214 -231zM316 491c-48 0 -90 -18 -127 -54
c-36 -35 -60 -82 -73 -139h356c4 121 -56 193 -156 193zM409 710l34 -34l-80 -81h-79l-57 89l40 26l56 -89z" />
    <glyph glyph-name="uni0229" unicode="&#x229;" horiz-adv-x="579" 
d="M530 314c0 -21 -1 -43 -3 -65h-419c-1 -6 -1 -16 -1 -30c0 -115 58 -180 161 -180c71 0 132 39 179 114l47 -34c-55 -85 -137 -134 -226 -134c-137 0 -220 87 -220 234c-3 177 119 330 268 326c129 0 214 -92 214 -231zM316 491c-48 0 -90 -18 -127 -54
c-36 -35 -60 -82 -73 -139h356c4 121 -56 193 -156 193zM365 -128c0 -55 -46 -96 -106 -96c-40 0 -72 13 -97 39l30 31c19 -21 38 -30 66 -30c37 0 65 24 65 56c0 23 -16 37 -45 37c-21 0 -42 -10 -63 -29l-34 18l73 102l42 -5l-43 -57c10 4 21 6 33 6c47 0 79 -29 79 -72z
" />
    <glyph glyph-name="ecircumflex" unicode="&#xea;" horiz-adv-x="579" 
d="M530 314c0 -21 -1 -43 -3 -65h-419c-1 -6 -1 -16 -1 -30c0 -115 58 -180 161 -180c71 0 132 39 179 114l47 -34c-55 -85 -137 -134 -226 -134c-137 0 -220 87 -220 234c-3 177 119 330 268 326c129 0 214 -92 214 -231zM316 491c-48 0 -90 -18 -127 -54
c-36 -35 -60 -82 -73 -139h356c4 121 -56 193 -156 193zM429 611l-40 -26l-56 88l-86 -88l-33 34l80 81h78z" />
    <glyph glyph-name="uni1EC7" unicode="&#x1ec7;" horiz-adv-x="579" 
d="M530 314c0 -21 -1 -43 -3 -65h-419c-1 -6 -1 -16 -1 -30c0 -115 58 -180 161 -180c71 0 132 39 179 114l47 -34c-55 -85 -137 -134 -226 -134c-137 0 -220 87 -220 234c-3 177 119 330 268 326c129 0 214 -92 214 -231zM316 491c-48 0 -90 -18 -127 -54
c-36 -35 -60 -82 -73 -139h356c4 121 -56 193 -156 193zM429 611l-40 -26l-56 88l-86 -88l-33 34l80 81h78zM206 -147l14 83h85l-14 -83h-85z" />
    <glyph glyph-name="edieresis" unicode="&#xeb;" horiz-adv-x="579" 
d="M530 314c0 -21 -1 -43 -3 -65h-419c-1 -6 -1 -16 -1 -30c0 -115 58 -180 161 -180c71 0 132 39 179 114l47 -34c-55 -85 -137 -134 -226 -134c-137 0 -220 87 -220 234c-3 177 119 330 268 326c129 0 214 -92 214 -231zM316 491c-48 0 -90 -18 -127 -54
c-36 -35 -60 -82 -73 -139h356c4 121 -56 193 -156 193zM197 595l14 83h85l-14 -83h-85zM369 595l14 83h85l-14 -83h-85z" />
    <glyph glyph-name="edotaccent" unicode="&#x117;" horiz-adv-x="579" 
d="M530 314c0 -21 -1 -43 -3 -65h-419c-1 -6 -1 -16 -1 -30c0 -115 58 -180 161 -180c71 0 132 39 179 114l47 -34c-55 -85 -137 -134 -226 -134c-137 0 -220 87 -220 234c-3 177 119 330 268 326c129 0 214 -92 214 -231zM316 491c-48 0 -90 -18 -127 -54
c-36 -35 -60 -82 -73 -139h356c4 121 -56 193 -156 193zM284 605l14 83h85l-14 -83h-85z" />
    <glyph glyph-name="uni1EB9" unicode="&#x1eb9;" horiz-adv-x="579" 
d="M530 314c0 -21 -1 -43 -3 -65h-419c-1 -6 -1 -16 -1 -30c0 -115 58 -180 161 -180c71 0 132 39 179 114l47 -34c-55 -85 -137 -134 -226 -134c-137 0 -220 87 -220 234c-3 177 119 330 268 326c129 0 214 -92 214 -231zM316 491c-48 0 -90 -18 -127 -54
c-36 -35 -60 -82 -73 -139h356c4 121 -56 193 -156 193zM206 -147l14 83h85l-14 -83h-85z" />
    <glyph glyph-name="egrave" unicode="&#xe8;" horiz-adv-x="579" 
d="M530 314c0 -21 -1 -43 -3 -65h-419c-1 -6 -1 -16 -1 -30c0 -115 58 -180 161 -180c71 0 132 39 179 114l47 -34c-55 -85 -137 -134 -226 -134c-137 0 -220 87 -220 234c-3 177 119 330 268 326c129 0 214 -92 214 -231zM316 491c-48 0 -90 -18 -127 -54
c-36 -35 -60 -82 -73 -139h356c4 121 -56 193 -156 193zM298 605l-77 110h82l49 -110h-54z" />
    <glyph glyph-name="emacron" unicode="&#x113;" horiz-adv-x="579" 
d="M530 314c0 -21 -1 -43 -3 -65h-419c-1 -6 -1 -16 -1 -30c0 -115 58 -180 161 -180c71 0 132 39 179 114l47 -34c-55 -85 -137 -134 -226 -134c-137 0 -220 87 -220 234c-3 177 119 330 268 326c129 0 214 -92 214 -231zM316 491c-48 0 -90 -18 -127 -54
c-36 -35 -60 -82 -73 -139h356c4 121 -56 193 -156 193zM210 605l9 49h253l-9 -49h-253z" />
    <glyph glyph-name="eogonek" unicode="&#x119;" horiz-adv-x="579" 
d="M530 314c0 -21 -1 -43 -3 -65h-419c-1 -6 -1 -16 -1 -30c0 -115 58 -180 161 -180c71 0 132 39 179 114l47 -34c-55 -85 -137 -134 -226 -134c-137 0 -220 87 -220 234c-3 177 119 330 268 326c129 0 214 -92 214 -231zM316 491c-48 0 -90 -18 -127 -54
c-36 -35 -60 -82 -73 -139h356c4 121 -56 193 -156 193zM197 -128c0 49 45 99 125 140l30 -12c-61 -31 -101 -75 -101 -112c0 -18 11 -27 33 -27c19 0 40 6 63 19l11 -47c-29 -15 -58 -23 -85 -23c-49 0 -76 22 -76 62z" />
    <glyph glyph-name="uni0258" unicode="&#x258;" horiz-adv-x="581" 
d="M533 311c3 -170 -121 -330 -273 -326c-105 0 -179 56 -211 145l52 22c29 -75 82 -113 159 -113c101 0 190 94 210 210h-417c0 8 0 14 1 19c7 153 121 280 261 277c135 0 218 -90 218 -234zM117 298h358v13c0 113 -60 180 -160 180c-98 0 -184 -76 -198 -193z" />
    <glyph glyph-name="uni1EBD" unicode="&#x1ebd;" horiz-adv-x="579" 
d="M530 314c0 -21 -1 -43 -3 -65h-419c-1 -6 -1 -16 -1 -30c0 -115 58 -180 161 -180c71 0 132 39 179 114l47 -34c-55 -85 -137 -134 -226 -134c-137 0 -220 87 -220 234c-3 177 119 330 268 326c129 0 214 -92 214 -231zM316 491c-48 0 -90 -18 -127 -54
c-36 -35 -60 -82 -73 -139h356c4 121 -56 193 -156 193zM321 623c-19 12 -35 18 -48 18c-20 0 -34 -12 -42 -36h-37c9 51 43 83 84 83c25 0 43 -8 68 -23c23 -12 33 -18 48 -18c21 0 35 12 43 36h37c-9 -51 -43 -83 -84 -83c-25 0 -44 8 -69 23z" />
    <glyph glyph-name="uni0259" unicode="&#x259;" horiz-adv-x="579" 
d="M531 311c2 -178 -118 -329 -267 -326c-129 0 -215 93 -215 233c0 14 1 35 4 63h418c1 6 1 16 1 30c0 115 -57 180 -160 180c-73 0 -134 -38 -182 -114l-47 34c56 85 137 134 229 134c137 0 219 -87 219 -234zM464 232h-356c-5 -121 55 -193 156 -193c48 0 90 18 126 53
c37 36 61 83 74 140z" />
    <glyph glyph-name="f" unicode="f" horiz-adv-x="320" 
d="M65 0l84 477h-89l9 53h89l11 63c12 69 54 103 127 103h75l-10 -55h-65c-43 0 -62 -17 -70 -61l-9 -50h136l-9 -53h-136l-84 -477h-59z" />
    <glyph glyph-name="g" unicode="g" horiz-adv-x="581" 
d="M36 -96l55 22c23 -74 71 -111 144 -111c91 0 155 65 174 173l12 71h-2c-35 -45 -98 -74 -166 -74c-124 0 -205 91 -205 231c-3 176 125 333 278 329c69 0 131 -32 163 -85h2l13 70h59l-97 -550c-24 -137 -110 -220 -231 -220c-100 0 -168 52 -199 144zM441 175l35 197
c-17 72 -77 118 -150 118c-121 3 -221 -127 -219 -274c0 -108 58 -176 149 -176c89 0 173 63 185 135z" />
    <glyph glyph-name="gbreve" unicode="&#x11f;" horiz-adv-x="581" 
d="M36 -96l55 22c23 -74 71 -111 144 -111c91 0 155 65 174 173l12 71h-2c-35 -45 -98 -74 -166 -74c-124 0 -205 91 -205 231c-3 176 125 333 278 329c69 0 131 -32 163 -85h2l13 70h59l-97 -550c-24 -137 -110 -220 -231 -220c-100 0 -168 52 -199 144zM441 175l35 197
c-17 72 -77 118 -150 118c-121 3 -221 -127 -219 -274c0 -108 58 -176 149 -176c89 0 173 63 185 135zM234 706h38c5 -39 25 -59 62 -59c44 0 75 20 93 59h38c-19 -71 -65 -111 -133 -111c-60 0 -99 44 -98 111z" />
    <glyph glyph-name="gcircumflex" unicode="&#x11d;" horiz-adv-x="581" 
d="M36 -96l55 22c23 -74 71 -111 144 -111c91 0 155 65 174 173l12 71h-2c-35 -45 -98 -74 -166 -74c-124 0 -205 91 -205 231c-3 176 125 333 278 329c69 0 131 -32 163 -85h2l13 70h59l-97 -550c-24 -137 -110 -220 -231 -220c-100 0 -168 52 -199 144zM441 175l35 197
c-17 72 -77 118 -150 118c-121 3 -221 -127 -219 -274c0 -108 58 -176 149 -176c89 0 173 63 185 135zM445 611l-40 -26l-56 88l-86 -88l-33 34l80 81h78z" />
    <glyph glyph-name="uni0123" unicode="&#x123;" horiz-adv-x="581" 
d="M36 -96l55 22c23 -74 71 -111 144 -111c91 0 155 65 174 173l12 71h-2c-35 -45 -98 -74 -166 -74c-124 0 -205 91 -205 231c-3 176 125 333 278 329c69 0 131 -32 163 -85h2l13 70h59l-97 -550c-24 -137 -110 -220 -231 -220c-100 0 -168 52 -199 144zM441 175l35 197
c-17 72 -77 118 -150 118c-121 3 -221 -127 -219 -274c0 -108 58 -176 149 -176c89 0 173 63 185 135zM416 763l-5 -31c-27 -5 -40 -18 -45 -45h39l-14 -82h-93l12 71c9 53 46 84 106 87z" />
    <glyph glyph-name="gdotaccent" unicode="&#x121;" horiz-adv-x="581" 
d="M36 -96l55 22c23 -74 71 -111 144 -111c91 0 155 65 174 173l12 71h-2c-35 -45 -98 -74 -166 -74c-124 0 -205 91 -205 231c-3 176 125 333 278 329c69 0 131 -32 163 -85h2l13 70h59l-97 -550c-24 -137 -110 -220 -231 -220c-100 0 -168 52 -199 144zM441 175l35 197
c-17 72 -77 118 -150 118c-121 3 -221 -127 -219 -274c0 -108 58 -176 149 -176c89 0 173 63 185 135zM300 605l14 83h85l-14 -83h-85z" />
    <glyph glyph-name="h" unicode="h" horiz-adv-x="555" 
d="M24 0l128 730h59l-46 -263h2c40 48 104 78 168 78c107 0 173 -63 173 -160c0 -15 -1 -28 -4 -41l-61 -344h-59l60 340c2 14 3 27 3 38c0 72 -44 112 -120 112c-47 0 -87 -14 -122 -43c-34 -29 -55 -66 -63 -111l-59 -336h-59z" />
    <glyph glyph-name="hbar" unicode="&#x127;" horiz-adv-x="555" 
d="M24 0l128 730h59l-46 -263h2c40 48 104 78 168 78c107 0 173 -63 173 -160c0 -15 -1 -28 -4 -41l-61 -344h-59l60 340c2 14 3 27 3 38c0 72 -44 112 -120 112c-47 0 -87 -14 -122 -43c-34 -29 -55 -66 -63 -111l-59 -336h-59zM68 617l8 46h267l-8 -46h-267z" />
    <glyph glyph-name="hcircumflex" unicode="&#x125;" horiz-adv-x="555" 
d="M24 0l128 730h59l-46 -263h2c40 48 104 78 168 78c107 0 173 -63 173 -160c0 -15 -1 -28 -4 -41l-61 -344h-59l60 340c2 14 3 27 3 38c0 72 -44 112 -120 112c-47 0 -87 -14 -122 -43c-34 -29 -55 -66 -63 -111l-59 -336h-59zM459 766l-40 -26l-56 88l-86 -88l-33 34
l80 81h78z" />
    <glyph glyph-name="uni1E25" unicode="&#x1e25;" horiz-adv-x="555" 
d="M24 0l128 730h59l-46 -263h2c40 48 104 78 168 78c107 0 173 -63 173 -160c0 -15 -1 -28 -4 -41l-61 -344h-59l60 340c2 14 3 27 3 38c0 72 -44 112 -120 112c-47 0 -87 -14 -122 -43c-34 -29 -55 -66 -63 -111l-59 -336h-59zM170 -132l14 83h85l-14 -83h-85z" />
    <glyph glyph-name="i" unicode="i" horiz-adv-x="201" 
d="M24 0l93 530h59l-93 -530h-59zM124 624l14 74h76l-13 -74h-77z" />
    <glyph glyph-name="dotlessi" unicode="&#x131;" horiz-adv-x="201" 
d="M24 0l93 530h59l-93 -530h-59z" />
    <glyph glyph-name="iacute" unicode="&#xed;" horiz-adv-x="201" 
d="M24 0l93 530h59l-93 -530h-59zM118 590l88 110h85l-116 -110h-57z" />
    <glyph glyph-name="ibreve" unicode="&#x12d;" horiz-adv-x="201" 
d="M24 0l93 530h59l-93 -530h-59zM49 691h38c5 -39 25 -59 62 -59c44 0 75 20 93 59h38c-19 -71 -65 -111 -133 -111c-60 0 -99 44 -98 111z" />
    <glyph glyph-name="uni01D0" unicode="&#x1d0;" horiz-adv-x="201" 
d="M24 0l93 530h59l-93 -530h-59zM239 695l34 -34l-80 -81h-79l-57 89l40 26l56 -89z" />
    <glyph glyph-name="icircumflex" unicode="&#xee;" horiz-adv-x="201" 
d="M24 0l93 530h59l-93 -530h-59zM260 596l-40 -26l-56 88l-86 -88l-33 34l80 81h78z" />
    <glyph glyph-name="idieresis" unicode="&#xef;" horiz-adv-x="194" 
d="M33 580l14 83h85l-14 -83h-85zM188 580l14 83h85l-14 -83h-85zM24 0l93 530h59l-93 -530h-59z" />
    <glyph glyph-name="i.locl" horiz-adv-x="201" 
d="M24 0l93 530h59l-93 -530h-59zM124 624l14 74h76l-13 -74h-77z" />
    <glyph glyph-name="uni1ECB" unicode="&#x1ecb;" horiz-adv-x="201" 
d="M24 0l93 530h59l-93 -530h-59zM124 624l14 74h76l-13 -74h-77zM-11 -132l14 83h85l-14 -83h-85z" />
    <glyph glyph-name="igrave" unicode="&#xec;" horiz-adv-x="201" 
d="M24 0l93 530h59l-93 -530h-59zM129 590l-77 110h82l49 -110h-54z" />
    <glyph glyph-name="imacron" unicode="&#x12b;" horiz-adv-x="201" 
d="M24 0l93 530h59l-93 -530h-59zM41 590l9 49h253l-9 -49h-253z" />
    <glyph glyph-name="iogonek" unicode="&#x12f;" horiz-adv-x="201" 
d="M24 0l93 530h59l-93 -530h-59zM-77 -128c0 49 45 99 125 140l30 -12c-61 -31 -101 -75 -101 -112c0 -18 11 -27 33 -27c19 0 40 6 63 19l11 -47c-29 -15 -58 -23 -85 -23c-49 0 -76 22 -76 62zM124 624l14 74h76l-13 -74h-77z" />
    <glyph glyph-name="itilde" unicode="&#x129;" horiz-adv-x="201" 
d="M24 0l93 530h59l-93 -530h-59zM152 608c-19 12 -35 18 -48 18c-20 0 -34 -12 -42 -36h-37c9 51 43 83 84 83c25 0 43 -8 68 -23c23 -12 33 -18 48 -18c21 0 35 12 43 36h37c-9 -51 -43 -83 -84 -83c-25 0 -44 8 -69 23z" />
    <glyph glyph-name="j" unicode="j" horiz-adv-x="214" 
d="M-85 -163l10 55h31c44 0 64 19 71 60l101 578h59l-103 -589c-13 -69 -56 -104 -131 -104h-38zM136 624l14 74h76l-13 -74h-77z" />
    <glyph glyph-name="uni0237" unicode="&#x237;" horiz-adv-x="211" 
d="M-85 -163l10 55h31c44 0 64 19 71 60l101 578h59l-103 -589c-13 -69 -56 -104 -131 -104h-38z" />
    <glyph glyph-name="jcircumflex" unicode="&#x135;" horiz-adv-x="211" 
d="M-85 -163l10 55h31c44 0 64 19 71 60l101 578h59l-103 -589c-13 -69 -56 -104 -131 -104h-38zM271 596l-40 -26l-56 88l-86 -88l-33 34l80 81h78z" />
    <glyph glyph-name="k" unicode="k" horiz-adv-x="502" 
d="M503 530l-239 -212l169 -318h-66l-144 282h-2l-105 -93l-33 -189h-59l128 730h59l-80 -457h2l286 257h84z" />
    <glyph glyph-name="uni0137" unicode="&#x137;" horiz-adv-x="502" 
d="M503 530l-239 -212l169 -318h-66l-144 282h-2l-105 -93l-33 -189h-59l128 730h59l-80 -457h2l286 257h84zM162 -207l5 32c25 4 36 17 43 44h-38l15 82h88l-13 -71c-8 -53 -43 -83 -100 -87z" />
    <glyph glyph-name="kgreenlandic" unicode="&#x138;" horiz-adv-x="502" 
d="M503 530l-239 -212l169 -318h-66l-144 282h-2l-105 -93l-33 -189h-59l93 530h59l-45 -257h2l286 257h84z" />
    <glyph glyph-name="l" unicode="l" horiz-adv-x="201" 
d="M24 0l128 730h59l-128 -730h-59z" />
    <glyph glyph-name="lacute" unicode="&#x13a;" horiz-adv-x="201" 
d="M24 0l128 730h59l-128 -730h-59zM151 790l88 110h85l-116 -110h-57z" />
    <glyph glyph-name="lcaron" unicode="&#x13e;" horiz-adv-x="251" 
d="M24 0l128 730h59l-128 -730h-59zM234 572l5 32c25 4 36 17 43 44h-38l15 82h88l-13 -71c-8 -53 -43 -83 -100 -87z" />
    <glyph glyph-name="uni013C" unicode="&#x13c;" horiz-adv-x="201" 
d="M24 0l128 730h59l-128 -730h-59zM-19 -207l5 32c25 4 36 17 43 44h-38l15 82h88l-13 -71c-8 -53 -43 -83 -100 -87z" />
    <glyph glyph-name="ldot" unicode="&#x140;" horiz-adv-x="275" 
d="M24 0l128 730h59l-128 -730h-59zM192 334l17 99h102l-18 -99h-101z" />
    <glyph glyph-name="uni1E37" unicode="&#x1e37;" horiz-adv-x="201" 
d="M24 0l128 730h59l-128 -730h-59zM-8 -132l14 83h85l-14 -83h-85z" />
    <glyph glyph-name="lslash" unicode="&#x142;" horiz-adv-x="242" 
d="M45 0l128 730h59l-128 -730h-59zM133 367l176 121l-20 31l-148 -100l1 6l-162 -112l22 -31l132 91z" />
    <glyph glyph-name="m" unicode="m" horiz-adv-x="814" 
d="M24 0l93 530h59l-9 -53h2c33 43 91 68 143 68c64 0 116 -33 135 -82h2c41 53 98 82 163 82c93 0 158 -53 158 -141c0 -11 -1 -22 -3 -34l-65 -370h-59l65 366c2 10 3 19 3 28c0 60 -41 96 -101 96c-80 0 -143 -56 -156 -136l-62 -354h-57l64 367c2 10 3 19 3 27
c0 59 -41 96 -102 96c-77 0 -140 -57 -155 -137l-62 -353h-59z" />
    <glyph glyph-name="n" unicode="n" horiz-adv-x="555" 
d="M24 0l93 530h58l-11 -63h2c40 48 105 78 169 78c107 0 173 -63 173 -159c0 -15 -1 -28 -4 -41l-61 -345h-59l60 340c2 14 3 27 3 38c0 72 -44 112 -120 112c-47 0 -87 -14 -122 -43c-34 -29 -55 -66 -63 -111l-59 -336h-59z" />
    <glyph glyph-name="nacute" unicode="&#x144;" horiz-adv-x="555" 
d="M24 0l93 530h58l-11 -63h2c40 48 105 78 169 78c107 0 173 -63 173 -159c0 -15 -1 -28 -4 -41l-61 -345h-59l60 340c2 14 3 27 3 38c0 72 -44 112 -120 112c-47 0 -87 -14 -122 -43c-34 -29 -55 -66 -63 -111l-59 -336h-59zM298 605l88 110h85l-116 -110h-57z" />
    <glyph glyph-name="ncaron" unicode="&#x148;" horiz-adv-x="555" 
d="M24 0l93 530h58l-11 -63h2c40 48 105 78 169 78c107 0 173 -63 173 -159c0 -15 -1 -28 -4 -41l-61 -345h-59l60 340c2 14 3 27 3 38c0 72 -44 112 -120 112c-47 0 -87 -14 -122 -43c-34 -29 -55 -66 -63 -111l-59 -336h-59zM420 710l34 -34l-80 -81h-79l-57 89l40 26
l56 -89z" />
    <glyph glyph-name="uni0146" unicode="&#x146;" horiz-adv-x="555" 
d="M24 0l93 530h58l-11 -63h2c40 48 105 78 169 78c107 0 173 -63 173 -159c0 -15 -1 -28 -4 -41l-61 -345h-59l60 340c2 14 3 27 3 38c0 72 -44 112 -120 112c-47 0 -87 -14 -122 -43c-34 -29 -55 -66 -63 -111l-59 -336h-59zM173 -207l5 32c25 4 36 17 43 44h-38l15 82h88
l-13 -71c-8 -53 -43 -83 -100 -87z" />
    <glyph glyph-name="uni1E45" unicode="&#x1e45;" horiz-adv-x="555" 
d="M24 0l93 530h58l-11 -63h2c40 48 105 78 169 78c107 0 173 -63 173 -159c0 -15 -1 -28 -4 -41l-61 -345h-59l60 340c2 14 3 27 3 38c0 72 -44 112 -120 112c-47 0 -87 -14 -122 -43c-34 -29 -55 -66 -63 -111l-59 -336h-59zM295 605l14 83h85l-14 -83h-85z" />
    <glyph glyph-name="uni1E47" unicode="&#x1e47;" horiz-adv-x="555" 
d="M24 0l93 530h58l-11 -63h2c40 48 105 78 169 78c107 0 173 -63 173 -159c0 -15 -1 -28 -4 -41l-61 -345h-59l60 340c2 14 3 27 3 38c0 72 -44 112 -120 112c-47 0 -87 -14 -122 -43c-34 -29 -55 -66 -63 -111l-59 -336h-59zM185 -132l14 83h85l-14 -83h-85z" />
    <glyph glyph-name="eng" unicode="&#x14b;" horiz-adv-x="556" 
d="M508 386c0 -15 -1 -28 -4 -41l-71 -404c-12 -69 -56 -104 -131 -104h-38l9 55h32c43 0 63 19 70 60l69 388c2 14 3 27 3 38c0 72 -44 112 -120 112c-47 0 -87 -14 -122 -43c-34 -29 -55 -66 -63 -111l-59 -336h-59l93 530h58l-11 -63h2c40 48 105 78 169 78
c107 0 173 -63 173 -159z" />
    <glyph glyph-name="ntilde" unicode="&#xf1;" horiz-adv-x="555" 
d="M24 0l93 530h58l-11 -63h2c40 48 105 78 169 78c107 0 173 -63 173 -159c0 -15 -1 -28 -4 -41l-61 -345h-59l60 340c2 14 3 27 3 38c0 72 -44 112 -120 112c-47 0 -87 -14 -122 -43c-34 -29 -55 -66 -63 -111l-59 -336h-59zM332 623c-19 12 -35 18 -48 18
c-20 0 -34 -12 -42 -36h-37c9 51 43 83 84 83c25 0 43 -8 68 -23c23 -12 33 -18 48 -18c21 0 35 12 43 36h37c-9 -51 -43 -83 -84 -83c-25 0 -44 8 -69 23z" />
    <glyph glyph-name="o" unicode="o" horiz-adv-x="598" 
d="M48 219c-3 181 124 329 279 326c133 0 222 -96 222 -234c3 -181 -124 -329 -279 -326c-132 0 -222 96 -222 234zM490 311c0 108 -64 179 -163 179c-124 0 -220 -119 -220 -271c0 -53 15 -97 45 -130s69 -49 118 -49c124 -3 222 120 220 271z" />
    <glyph glyph-name="oacute" unicode="&#xf3;" horiz-adv-x="598" 
d="M48 219c-3 181 124 329 279 326c133 0 222 -96 222 -234c3 -181 -124 -329 -279 -326c-132 0 -222 96 -222 234zM490 311c0 108 -64 179 -163 179c-124 0 -220 -119 -220 -271c0 -53 15 -97 45 -130s69 -49 118 -49c124 -3 222 120 220 271zM307 605l88 110h85l-116 -110
h-57z" />
    <glyph glyph-name="obreve" unicode="&#x14f;" horiz-adv-x="598" 
d="M48 219c-3 181 124 329 279 326c133 0 222 -96 222 -234c3 -181 -124 -329 -279 -326c-132 0 -222 96 -222 234zM490 311c0 108 -64 179 -163 179c-124 0 -220 -119 -220 -271c0 -53 15 -97 45 -130s69 -49 118 -49c124 -3 222 120 220 271zM238 706h38
c5 -39 25 -59 62 -59c44 0 75 20 93 59h38c-19 -71 -65 -111 -133 -111c-60 0 -99 44 -98 111z" />
    <glyph glyph-name="uni01D2" unicode="&#x1d2;" horiz-adv-x="598" 
d="M48 219c-3 181 124 329 279 326c133 0 222 -96 222 -234c3 -181 -124 -329 -279 -326c-132 0 -222 96 -222 234zM490 311c0 108 -64 179 -163 179c-124 0 -220 -119 -220 -271c0 -53 15 -97 45 -130s69 -49 118 -49c124 -3 222 120 220 271zM429 710l34 -34l-80 -81h-79
l-57 89l40 26l56 -89z" />
    <glyph glyph-name="ocircumflex" unicode="&#xf4;" horiz-adv-x="598" 
d="M48 219c-3 181 124 329 279 326c133 0 222 -96 222 -234c3 -181 -124 -329 -279 -326c-132 0 -222 96 -222 234zM490 311c0 108 -64 179 -163 179c-124 0 -220 -119 -220 -271c0 -53 15 -97 45 -130s69 -49 118 -49c124 -3 222 120 220 271zM449 611l-40 -26l-56 88
l-86 -88l-33 34l80 81h78z" />
    <glyph glyph-name="uni1ED9" unicode="&#x1ed9;" horiz-adv-x="598" 
d="M48 219c-3 181 124 329 279 326c133 0 222 -96 222 -234c3 -181 -124 -329 -279 -326c-132 0 -222 96 -222 234zM490 311c0 108 -64 179 -163 179c-124 0 -220 -119 -220 -271c0 -53 15 -97 45 -130s69 -49 118 -49c124 -3 222 120 220 271zM449 611l-40 -26l-56 88
l-86 -88l-33 34l80 81h78zM208 -147l14 83h85l-14 -83h-85z" />
    <glyph glyph-name="odieresis" unicode="&#xf6;" horiz-adv-x="598" 
d="M48 219c-3 181 124 329 279 326c133 0 222 -96 222 -234c3 -181 -124 -329 -279 -326c-132 0 -222 96 -222 234zM490 311c0 108 -64 179 -163 179c-124 0 -220 -119 -220 -271c0 -53 15 -97 45 -130s69 -49 118 -49c124 -3 222 120 220 271zM217 595l14 83h85l-14 -83
h-85zM389 595l14 83h85l-14 -83h-85z" />
    <glyph glyph-name="uni1ECD" unicode="&#x1ecd;" horiz-adv-x="598" 
d="M48 219c-3 181 124 329 279 326c133 0 222 -96 222 -234c3 -181 -124 -329 -279 -326c-132 0 -222 96 -222 234zM490 311c0 108 -64 179 -163 179c-124 0 -220 -119 -220 -271c0 -53 15 -97 45 -130s69 -49 118 -49c124 -3 222 120 220 271zM208 -147l14 83h85l-14 -83
h-85z" />
    <glyph glyph-name="ograve" unicode="&#xf2;" horiz-adv-x="598" 
d="M48 219c-3 181 124 329 279 326c133 0 222 -96 222 -234c3 -181 -124 -329 -279 -326c-132 0 -222 96 -222 234zM490 311c0 108 -64 179 -163 179c-124 0 -220 -119 -220 -271c0 -53 15 -97 45 -130s69 -49 118 -49c124 -3 222 120 220 271zM318 605l-77 110h82l49 -110
h-54z" />
    <glyph glyph-name="ohungarumlaut" unicode="&#x151;" horiz-adv-x="598" 
d="M48 219c-3 181 124 329 279 326c133 0 222 -96 222 -234c3 -181 -124 -329 -279 -326c-132 0 -222 96 -222 234zM490 311c0 108 -64 179 -163 179c-124 0 -220 -119 -220 -271c0 -53 15 -97 45 -130s69 -49 118 -49c124 -3 222 120 220 271zM238 605l88 110h85l-116 -110
h-57zM375 605l88 110h84l-116 -110h-56z" />
    <glyph glyph-name="omacron" unicode="&#x14d;" horiz-adv-x="598" 
d="M48 219c-3 181 124 329 279 326c133 0 222 -96 222 -234c3 -181 -124 -329 -279 -326c-132 0 -222 96 -222 234zM490 311c0 108 -64 179 -163 179c-124 0 -220 -119 -220 -271c0 -53 15 -97 45 -130s69 -49 118 -49c124 -3 222 120 220 271zM230 605l9 49h253l-9 -49
h-253z" />
    <glyph glyph-name="oslash" unicode="&#xf8;" horiz-adv-x="598" 
d="M556 513l-51 -53c29 -41 44 -90 44 -149c3 -178 -126 -329 -277 -326c-67 0 -121 21 -162 64l-54 -56l-25 25l56 59c-26 39 -39 87 -39 142c-3 178 127 329 278 326c64 0 117 -21 156 -58l49 51zM128 119l315 328c-30 30 -69 45 -117 45c-121 3 -223 -125 -221 -274
c0 -39 8 -72 23 -99zM465 419l-317 -330c31 -34 72 -51 124 -51c121 -3 222 125 220 274c0 41 -9 77 -27 107z" />
    <glyph glyph-name="oslashacute" unicode="&#x1ff;" horiz-adv-x="598" 
d="M556 513l-51 -53c29 -41 44 -90 44 -149c3 -178 -126 -329 -277 -326c-67 0 -121 21 -162 64l-54 -56l-25 25l56 59c-26 39 -39 87 -39 142c-3 178 127 329 278 326c64 0 117 -21 156 -58l49 51zM128 119l315 328c-30 30 -69 45 -117 45c-121 3 -223 -125 -221 -274
c0 -39 8 -72 23 -99zM465 419l-317 -330c31 -34 72 -51 124 -51c121 -3 222 125 220 274c0 41 -9 77 -27 107zM307 605l88 110h85l-116 -110h-57z" />
    <glyph glyph-name="otilde" unicode="&#xf5;" horiz-adv-x="598" 
d="M48 219c-3 181 124 329 279 326c133 0 222 -96 222 -234c3 -181 -124 -329 -279 -326c-132 0 -222 96 -222 234zM490 311c0 108 -64 179 -163 179c-124 0 -220 -119 -220 -271c0 -53 15 -97 45 -130s69 -49 118 -49c124 -3 222 120 220 271zM341 623
c-19 12 -35 18 -48 18c-20 0 -34 -12 -42 -36h-37c9 51 43 83 84 83c25 0 43 -8 68 -23c23 -12 33 -18 48 -18c21 0 35 12 43 36h37c-9 -51 -43 -83 -84 -83c-25 0 -44 8 -69 23z" />
    <glyph glyph-name="uni1E4D" unicode="&#x1e4d;" horiz-adv-x="598" 
d="M48 219c-3 181 124 329 279 326c133 0 222 -96 222 -234c3 -181 -124 -329 -279 -326c-132 0 -222 96 -222 234zM490 311c0 108 -64 179 -163 179c-124 0 -220 -119 -220 -271c0 -53 15 -97 45 -130s69 -49 118 -49c124 -3 222 120 220 271zM341 623
c-19 12 -35 18 -48 18c-20 0 -34 -12 -42 -36h-37c9 51 43 83 84 83c25 0 43 -8 68 -23c23 -12 33 -18 48 -18c21 0 35 12 43 36h37c-9 -51 -43 -83 -84 -83c-25 0 -44 8 -69 23zM329 718l88 110h85l-116 -110h-57z" />
    <glyph glyph-name="oe" unicode="&#x153;" horiz-adv-x="1016" 
d="M968 313c0 -19 -1 -40 -4 -63h-419c-1 -7 -1 -17 -1 -31c0 -116 58 -182 162 -182c71 0 132 39 181 116l45 -34c-55 -85 -137 -134 -226 -134c-105 0 -178 52 -205 144c-51 -89 -134 -144 -230 -144c-135 0 -223 94 -223 234c-3 178 127 329 278 326
c103 0 178 -53 207 -144c47 89 128 144 221 144c129 0 214 -91 214 -232zM913 319c0 108 -63 174 -159 174c-48 0 -90 -18 -127 -55c-37 -36 -62 -83 -75 -141h360c1 5 1 12 1 22zM491 311c0 108 -62 180 -165 180c-121 3 -222 -123 -220 -272c0 -108 64 -180 165 -180
c121 -3 222 123 220 272z" />
    <glyph glyph-name="p" unicode="p" horiz-adv-x="590" 
d="M-15 -225l133 755h57l-10 -58h2c39 45 101 73 169 73c120 0 205 -96 205 -234c2 -177 -126 -330 -276 -326c-73 0 -133 30 -169 79h-2l-50 -289h-59zM482 311c0 112 -58 179 -154 179c-45 0 -85 -13 -120 -39c-34 -25 -55 -57 -62 -96l-38 -213c19 -60 80 -102 156 -102
c121 0 218 122 218 271z" />
    <glyph glyph-name="thorn" unicode="&#xfe;" horiz-adv-x="590" 
d="M-15 -225l168 955h59l-45 -256h2c40 45 102 71 167 71c120 0 205 -96 205 -234c2 -178 -126 -329 -276 -326c-73 0 -133 28 -169 79h-2l-50 -289h-59zM482 311c0 112 -57 179 -154 179c-45 0 -84 -13 -119 -39c-35 -25 -56 -57 -63 -96l-38 -213c19 -61 81 -102 156 -102
c119 -3 220 124 218 271z" />
    <glyph glyph-name="q" unicode="q" horiz-adv-x="592" 
d="M367 -225l49 277h-2c-35 -40 -92 -67 -157 -67c-63 0 -114 21 -152 63s-57 98 -57 169c-3 181 126 331 277 328c71 0 129 -29 162 -72h2l10 57h59l-132 -755h-59zM438 183l38 210c-23 56 -79 97 -151 97c-121 0 -218 -120 -218 -273c0 -109 60 -177 157 -177
c81 0 160 66 174 143z" />
    <glyph glyph-name="r" unicode="r" horiz-adv-x="304" 
d="M24 0l93 530h57l-10 -51h2c25 37 68 60 116 60c15 0 31 -2 48 -7l-14 -59c-15 3 -30 5 -44 5c-70 0 -113 -48 -130 -145l-59 -333h-59z" />
    <glyph glyph-name="racute" unicode="&#x155;" horiz-adv-x="304" 
d="M24 0l93 530h57l-10 -51h2c25 37 68 60 116 60c15 0 31 -2 48 -7l-14 -59c-15 3 -30 5 -44 5c-70 0 -113 -48 -130 -145l-59 -333h-59zM175 590l88 110h85l-116 -110h-57z" />
    <glyph glyph-name="rcaron" unicode="&#x159;" horiz-adv-x="304" 
d="M24 0l93 530h57l-10 -51h2c25 37 68 60 116 60c15 0 31 -2 48 -7l-14 -59c-15 3 -30 5 -44 5c-70 0 -113 -48 -130 -145l-59 -333h-59zM297 695l34 -34l-80 -81h-79l-57 89l40 26l56 -89z" />
    <glyph glyph-name="uni0157" unicode="&#x157;" horiz-adv-x="304" 
d="M24 0l93 530h57l-10 -51h2c25 37 68 60 116 60c15 0 31 -2 48 -7l-14 -59c-15 3 -30 5 -44 5c-70 0 -113 -48 -130 -145l-59 -333h-59zM-20 -207l5 32c25 4 36 17 43 44h-38l15 82h88l-13 -71c-8 -53 -43 -83 -100 -87z" />
    <glyph glyph-name="s" unicode="s" horiz-adv-x="507" 
d="M25 181l58 10c15 -103 68 -151 165 -151c83 0 135 38 135 97c0 52 -34 81 -138 116c-119 39 -160 77 -160 145c0 84 76 147 175 147c109 0 184 -58 203 -157l-58 -13c-18 77 -66 115 -145 115c-68 0 -116 -37 -116 -90c0 -43 30 -65 123 -96c128 -44 175 -90 175 -170
c0 -45 -18 -81 -54 -108s-83 -41 -140 -41c-129 0 -211 72 -223 196z" />
    <glyph glyph-name="sacute" unicode="&#x15b;" horiz-adv-x="507" 
d="M25 181l58 10c15 -103 68 -151 165 -151c83 0 135 38 135 97c0 52 -34 81 -138 116c-119 39 -160 77 -160 145c0 84 76 147 175 147c109 0 184 -58 203 -157l-58 -13c-18 77 -66 115 -145 115c-68 0 -116 -37 -116 -90c0 -43 30 -65 123 -96c128 -44 175 -90 175 -170
c0 -45 -18 -81 -54 -108s-83 -41 -140 -41c-129 0 -211 72 -223 196zM241 605l88 110h85l-116 -110h-57z" />
    <glyph glyph-name="scaron" unicode="&#x161;" horiz-adv-x="507" 
d="M25 181l58 10c15 -103 68 -151 165 -151c83 0 135 38 135 97c0 52 -34 81 -138 116c-119 39 -160 77 -160 145c0 84 76 147 175 147c109 0 184 -58 203 -157l-58 -13c-18 77 -66 115 -145 115c-68 0 -116 -37 -116 -90c0 -43 30 -65 123 -96c128 -44 175 -90 175 -170
c0 -45 -18 -81 -54 -108s-83 -41 -140 -41c-129 0 -211 72 -223 196zM363 710l34 -34l-80 -81h-79l-57 89l40 26l56 -89z" />
    <glyph glyph-name="scedilla" unicode="&#x15f;" horiz-adv-x="507" 
d="M25 181l58 10c15 -103 68 -151 165 -151c83 0 135 38 135 97c0 52 -34 81 -138 116c-119 39 -160 77 -160 145c0 84 76 147 175 147c109 0 184 -58 203 -157l-58 -13c-18 77 -66 115 -145 115c-68 0 -116 -37 -116 -90c0 -43 30 -65 123 -96c128 -44 175 -90 175 -170
c0 -45 -18 -81 -54 -108s-83 -41 -140 -41c-129 0 -211 72 -223 196zM345 -128c0 -55 -46 -96 -106 -96c-40 0 -72 13 -97 39l30 31c19 -21 38 -30 66 -30c37 0 65 24 65 56c0 23 -16 37 -45 37c-21 0 -42 -10 -63 -29l-34 18l73 102l42 -5l-43 -57c10 4 21 6 33 6
c47 0 79 -29 79 -72z" />
    <glyph glyph-name="scircumflex" unicode="&#x15d;" horiz-adv-x="507" 
d="M25 181l58 10c15 -103 68 -151 165 -151c83 0 135 38 135 97c0 52 -34 81 -138 116c-119 39 -160 77 -160 145c0 84 76 147 175 147c109 0 184 -58 203 -157l-58 -13c-18 77 -66 115 -145 115c-68 0 -116 -37 -116 -90c0 -43 30 -65 123 -96c128 -44 175 -90 175 -170
c0 -45 -18 -81 -54 -108s-83 -41 -140 -41c-129 0 -211 72 -223 196zM383 611l-40 -26l-56 88l-86 -88l-33 34l80 81h78z" />
    <glyph glyph-name="uni0219" unicode="&#x219;" horiz-adv-x="507" 
d="M25 181l58 10c15 -103 68 -151 165 -151c83 0 135 38 135 97c0 52 -34 81 -138 116c-119 39 -160 77 -160 145c0 84 76 147 175 147c109 0 184 -58 203 -157l-58 -13c-18 77 -66 115 -145 115c-68 0 -116 -37 -116 -90c0 -43 30 -65 123 -96c128 -44 175 -90 175 -170
c0 -45 -18 -81 -54 -108s-83 -41 -140 -41c-129 0 -211 72 -223 196zM174 -222l5 32c25 4 36 17 43 44h-38l15 82h88l-13 -71c-8 -53 -43 -83 -100 -87z" />
    <glyph glyph-name="uni1E63" unicode="&#x1e63;" horiz-adv-x="507" 
d="M25 181l58 10c15 -103 68 -151 165 -151c83 0 135 38 135 97c0 52 -34 81 -138 116c-119 39 -160 77 -160 145c0 84 76 147 175 147c109 0 184 -58 203 -157l-58 -13c-18 77 -66 115 -145 115c-68 0 -116 -37 -116 -90c0 -43 30 -65 123 -96c128 -44 175 -90 175 -170
c0 -45 -18 -81 -54 -108s-83 -41 -140 -41c-129 0 -211 72 -223 196zM186 -147l14 83h85l-14 -83h-85z" />
    <glyph glyph-name="germandbls" unicode="&#xdf;" horiz-adv-x="555" 
d="M24 0l89 504c23 136 100 211 219 211c108 0 187 -72 187 -171c0 -76 -44 -134 -123 -161v-2c59 -19 98 -79 98 -151c0 -145 -98 -230 -267 -230h-59l10 55h56c129 0 202 63 202 175c0 77 -52 127 -132 127h-73l10 53h57c105 0 161 49 161 134c0 71 -50 116 -127 116
c-89 0 -144 -57 -164 -172l-85 -488h-59z" />
    <glyph glyph-name="longs" unicode="&#x17f;" horiz-adv-x="258" 
d="M55 0l84 476h-79l9 54h79l13 73c12 69 54 103 127 103h74l-10 -55h-64c-43 0 -62 -17 -70 -61l-104 -590h-59z" />
    <glyph glyph-name="t" unicode="t" horiz-adv-x="327" 
d="M206 477l-65 -373c-1 -8 -2 -14 -2 -17c0 -24 13 -32 49 -32h44l-9 -55h-45c-65 0 -98 26 -98 78c0 10 1 20 3 31l64 368h-87l9 53h88l20 116h59l-20 -116h129l-9 -53h-130z" />
    <glyph glyph-name="tbar" unicode="&#x167;" horiz-adv-x="327" 
d="M206 477l-65 -373c-1 -8 -2 -14 -2 -17c0 -24 13 -32 49 -32h44l-9 -55h-45c-65 0 -98 26 -98 78c0 10 1 20 3 31l64 368h-87l9 53h88l20 116h59l-20 -116h129l-9 -53h-130zM26 257l8 46h267l-8 -46h-267z" />
    <glyph glyph-name="tcaron" unicode="&#x165;" horiz-adv-x="327" 
d="M206 477l-65 -373c-1 -8 -2 -14 -2 -17c0 -24 13 -32 49 -32h44l-9 -55h-45c-65 0 -98 26 -98 78c0 10 1 20 3 31l64 368h-87l9 53h88l20 116h59l-20 -116h129l-9 -53h-130zM290 584l5 32c25 4 36 17 43 44h-38l15 82h88l-13 -71c-8 -53 -43 -83 -100 -87z" />
    <glyph glyph-name="uni0163" unicode="&#x163;" horiz-adv-x="327" 
d="M206 477l-65 -373c-1 -8 -2 -14 -2 -17c0 -24 13 -32 49 -32h44l-9 -55h-45c-65 0 -98 26 -98 78c0 10 1 20 3 31l64 368h-87l9 53h88l20 116h59l-20 -116h129l-9 -53h-130zM232 -114c0 -55 -46 -96 -106 -96c-40 0 -72 13 -97 39l30 31c19 -21 38 -30 66 -30
c37 0 65 24 65 56c0 23 -16 37 -45 37c-21 0 -42 -10 -63 -29l-34 18l73 102l42 -5l-43 -57c10 4 21 6 33 6c47 0 79 -29 79 -72z" />
    <glyph glyph-name="uni021B" unicode="&#x21b;" horiz-adv-x="327" 
d="M206 477l-65 -373c-1 -8 -2 -14 -2 -17c0 -24 13 -32 49 -32h44l-9 -55h-45c-65 0 -98 26 -98 78c0 10 1 20 3 31l64 368h-87l9 53h88l20 116h59l-20 -116h129l-9 -53h-130zM61 -207l5 32c25 4 36 17 43 44h-38l15 82h88l-13 -71c-8 -53 -43 -83 -100 -87z" />
    <glyph glyph-name="uni1E6D" unicode="&#x1e6d;" horiz-adv-x="327" 
d="M206 477l-65 -373c-1 -8 -2 -14 -2 -17c0 -24 13 -32 49 -32h44l-9 -55h-45c-65 0 -98 26 -98 78c0 10 1 20 3 31l64 368h-87l9 53h88l20 116h59l-20 -116h129l-9 -53h-130zM73 -132l14 83h85l-14 -83h-85z" />
    <glyph glyph-name="u" unicode="u" horiz-adv-x="543" 
d="M43 145c0 7 1 20 4 39l60 346h59l-59 -340c-3 -13 -4 -26 -4 -41c0 -69 40 -109 119 -109c91 0 163 63 179 154l59 336h59l-93 -530h-58l11 59h-2c-39 -47 -101 -74 -162 -74c-107 0 -172 64 -172 160z" />
    <glyph glyph-name="uacute" unicode="&#xfa;" horiz-adv-x="543" 
d="M43 145c0 7 1 20 4 39l60 346h59l-59 -340c-3 -13 -4 -26 -4 -41c0 -69 40 -109 119 -109c91 0 163 63 179 154l59 336h59l-93 -530h-58l11 59h-2c-39 -47 -101 -74 -162 -74c-107 0 -172 64 -172 160zM286 590l88 110h85l-116 -110h-57z" />
    <glyph glyph-name="ubreve" unicode="&#x16d;" horiz-adv-x="543" 
d="M43 145c0 7 1 20 4 39l60 346h59l-59 -340c-3 -13 -4 -26 -4 -41c0 -69 40 -109 119 -109c91 0 163 63 179 154l59 336h59l-93 -530h-58l11 59h-2c-39 -47 -101 -74 -162 -74c-107 0 -172 64 -172 160zM217 691h38c5 -39 25 -59 62 -59c44 0 75 20 93 59h38
c-19 -71 -65 -111 -133 -111c-60 0 -99 44 -98 111z" />
    <glyph glyph-name="uni01D4" unicode="&#x1d4;" horiz-adv-x="543" 
d="M43 145c0 7 1 20 4 39l60 346h59l-59 -340c-3 -13 -4 -26 -4 -41c0 -69 40 -109 119 -109c91 0 163 63 179 154l59 336h59l-93 -530h-58l11 59h-2c-39 -47 -101 -74 -162 -74c-107 0 -172 64 -172 160zM408 695l34 -34l-80 -81h-79l-57 89l40 26l56 -89z" />
    <glyph glyph-name="ucircumflex" unicode="&#xfb;" horiz-adv-x="543" 
d="M43 145c0 7 1 20 4 39l60 346h59l-59 -340c-3 -13 -4 -26 -4 -41c0 -69 40 -109 119 -109c91 0 163 63 179 154l59 336h59l-93 -530h-58l11 59h-2c-39 -47 -101 -74 -162 -74c-107 0 -172 64 -172 160zM428 596l-40 -26l-56 88l-86 -88l-33 34l80 81h78z" />
    <glyph glyph-name="udieresis" unicode="&#xfc;" horiz-adv-x="543" 
d="M43 145c0 7 1 20 4 39l60 346h59l-59 -340c-3 -13 -4 -26 -4 -41c0 -69 40 -109 119 -109c91 0 163 63 179 154l59 336h59l-93 -530h-58l11 59h-2c-39 -47 -101 -74 -162 -74c-107 0 -172 64 -172 160zM196 580l14 83h85l-14 -83h-85zM368 580l14 83h85l-14 -83h-85z" />
    <glyph glyph-name="uni01D8" unicode="&#x1d8;" horiz-adv-x="543" 
d="M43 145c0 7 1 20 4 39l60 346h59l-59 -340c-3 -13 -4 -26 -4 -41c0 -69 40 -109 119 -109c91 0 163 63 179 154l59 336h59l-93 -530h-58l11 59h-2c-39 -47 -101 -74 -162 -74c-107 0 -172 64 -172 160zM196 580l14 83h85l-14 -83h-85zM368 580l14 83h85l-14 -83h-85z
M306 703l88 110h85l-116 -110h-57z" />
    <glyph glyph-name="uni01DA" unicode="&#x1da;" horiz-adv-x="543" 
d="M43 145c0 7 1 20 4 39l60 346h59l-59 -340c-3 -13 -4 -26 -4 -41c0 -69 40 -109 119 -109c91 0 163 63 179 154l59 336h59l-93 -530h-58l11 59h-2c-39 -47 -101 -74 -162 -74c-107 0 -172 64 -172 160zM196 580l14 83h85l-14 -83h-85zM368 580l14 83h85l-14 -83h-85z
M427 808l34 -34l-80 -81h-79l-57 89l40 26l56 -89z" />
    <glyph glyph-name="uni01DC" unicode="&#x1dc;" horiz-adv-x="543" 
d="M43 145c0 7 1 20 4 39l60 346h59l-59 -340c-3 -13 -4 -26 -4 -41c0 -69 40 -109 119 -109c91 0 163 63 179 154l59 336h59l-93 -530h-58l11 59h-2c-39 -47 -101 -74 -162 -74c-107 0 -172 64 -172 160zM196 580l14 83h85l-14 -83h-85zM368 580l14 83h85l-14 -83h-85z
M317 703l-77 110h82l49 -110h-54z" />
    <glyph glyph-name="uni01D6" unicode="&#x1d6;" horiz-adv-x="543" 
d="M43 145c0 7 1 20 4 39l60 346h59l-59 -340c-3 -13 -4 -26 -4 -41c0 -69 40 -109 119 -109c91 0 163 63 179 154l59 336h59l-93 -530h-58l11 59h-2c-39 -47 -101 -74 -162 -74c-107 0 -172 64 -172 160zM196 580l14 83h85l-14 -83h-85zM368 580l14 83h85l-14 -83h-85z
M229 703l9 49h253l-9 -49h-253z" />
    <glyph glyph-name="uni1EE5" unicode="&#x1ee5;" horiz-adv-x="543" 
d="M43 145c0 7 1 20 4 39l60 346h59l-59 -340c-3 -13 -4 -26 -4 -41c0 -69 40 -109 119 -109c91 0 163 63 179 154l59 336h59l-93 -530h-58l11 59h-2c-39 -47 -101 -74 -162 -74c-107 0 -172 64 -172 160zM156 -140l14 83h85l-14 -83h-85z" />
    <glyph glyph-name="ugrave" unicode="&#xf9;" horiz-adv-x="543" 
d="M43 145c0 7 1 20 4 39l60 346h59l-59 -340c-3 -13 -4 -26 -4 -41c0 -69 40 -109 119 -109c91 0 163 63 179 154l59 336h59l-93 -530h-58l11 59h-2c-39 -47 -101 -74 -162 -74c-107 0 -172 64 -172 160zM297 590l-77 110h82l49 -110h-54z" />
    <glyph glyph-name="uhungarumlaut" unicode="&#x171;" horiz-adv-x="543" 
d="M43 145c0 7 1 20 4 39l60 346h59l-59 -340c-3 -13 -4 -26 -4 -41c0 -69 40 -109 119 -109c91 0 163 63 179 154l59 336h59l-93 -530h-58l11 59h-2c-39 -47 -101 -74 -162 -74c-107 0 -172 64 -172 160zM217 590l88 110h85l-116 -110h-57zM354 590l88 110h84l-116 -110
h-56z" />
    <glyph glyph-name="umacron" unicode="&#x16b;" horiz-adv-x="543" 
d="M43 145c0 7 1 20 4 39l60 346h59l-59 -340c-3 -13 -4 -26 -4 -41c0 -69 40 -109 119 -109c91 0 163 63 179 154l59 336h59l-93 -530h-58l11 59h-2c-39 -47 -101 -74 -162 -74c-107 0 -172 64 -172 160zM209 590l9 49h253l-9 -49h-253z" />
    <glyph glyph-name="uogonek" unicode="&#x173;" horiz-adv-x="543" 
d="M43 145c0 7 1 20 4 39l60 346h59l-59 -340c-3 -13 -4 -26 -4 -41c0 -69 40 -109 119 -109c91 0 163 63 179 154l59 336h59l-93 -530h-58l11 59h-2c-39 -47 -101 -74 -162 -74c-107 0 -172 64 -172 160zM284 -123c0 49 45 99 125 140l30 -12c-61 -31 -101 -75 -101 -112
c0 -18 11 -27 33 -27c19 0 40 6 63 19l11 -47c-29 -15 -58 -23 -85 -23c-49 0 -76 22 -76 62z" />
    <glyph glyph-name="uring" unicode="&#x16f;" horiz-adv-x="543" 
d="M43 145c0 7 1 20 4 39l60 346h59l-59 -340c-3 -13 -4 -26 -4 -41c0 -69 40 -109 119 -109c91 0 163 63 179 154l59 336h59l-93 -530h-58l11 59h-2c-39 -47 -101 -74 -162 -74c-107 0 -172 64 -172 160zM201 600c0 61 47 107 114 107s114 -46 114 -107
c0 -63 -47 -108 -114 -108s-114 45 -114 108zM385 600c0 40 -30 69 -70 69s-70 -29 -70 -69c0 -41 30 -70 70 -70s70 29 70 70z" />
    <glyph glyph-name="utilde" unicode="&#x169;" horiz-adv-x="543" 
d="M43 145c0 7 1 20 4 39l60 346h59l-59 -340c-3 -13 -4 -26 -4 -41c0 -69 40 -109 119 -109c91 0 163 63 179 154l59 336h59l-93 -530h-58l11 59h-2c-39 -47 -101 -74 -162 -74c-107 0 -172 64 -172 160zM320 608c-19 12 -35 18 -48 18c-20 0 -34 -12 -42 -36h-37
c9 51 43 83 84 83c25 0 43 -8 68 -23c23 -12 33 -18 48 -18c21 0 35 12 43 36h37c-9 -51 -43 -83 -84 -83c-25 0 -44 8 -69 23z" />
    <glyph glyph-name="v" unicode="v" horiz-adv-x="534" 
d="M200 0l-136 530h62l110 -448h2l258 448h68l-312 -530h-52z" />
    <glyph glyph-name="w" unicode="w" horiz-adv-x="737" 
d="M104 0l-30 530h58l23 -447h2l216 447h61l78 -447h2l181 447h62l-218 -530h-63l-81 458h-2l-221 -458h-68z" />
    <glyph glyph-name="wacute" unicode="&#x1e83;" horiz-adv-x="737" 
d="M104 0l-30 530h58l23 -447h2l216 447h61l78 -447h2l181 447h62l-218 -530h-63l-81 458h-2l-221 -458h-68zM375 590l88 110h85l-116 -110h-57z" />
    <glyph glyph-name="wcircumflex" unicode="&#x175;" horiz-adv-x="737" 
d="M104 0l-30 530h58l23 -447h2l216 447h61l78 -447h2l181 447h62l-218 -530h-63l-81 458h-2l-221 -458h-68zM517 596l-40 -26l-56 88l-86 -88l-33 34l80 81h78z" />
    <glyph glyph-name="wdieresis" unicode="&#x1e85;" horiz-adv-x="737" 
d="M104 0l-30 530h58l23 -447h2l216 447h61l78 -447h2l181 447h62l-218 -530h-63l-81 458h-2l-221 -458h-68zM285 580l14 83h85l-14 -83h-85zM457 580l14 83h85l-14 -83h-85z" />
    <glyph glyph-name="wgrave" unicode="&#x1e81;" horiz-adv-x="737" 
d="M104 0l-30 530h58l23 -447h2l216 447h61l78 -447h2l181 447h62l-218 -530h-63l-81 458h-2l-221 -458h-68zM386 590l-77 110h82l49 -110h-54z" />
    <glyph glyph-name="x" unicode="x" horiz-adv-x="480" 
d="M-25 0l230 270l-129 260h65l103 -214h2l180 214h74l-222 -260l133 -270h-65l-108 224h-2l-187 -224h-74z" />
    <glyph glyph-name="y" unicode="y" horiz-adv-x="507" 
d="M22 -225l162 270l-120 485h60l98 -417h2l246 417h67l-453 -755h-62z" />
    <glyph glyph-name="yacute" unicode="&#xfd;" horiz-adv-x="507" 
d="M22 -225l162 270l-120 485h60l98 -417h2l246 417h67l-453 -755h-62zM268 590l88 110h85l-116 -110h-57z" />
    <glyph glyph-name="ycircumflex" unicode="&#x177;" horiz-adv-x="507" 
d="M22 -225l162 270l-120 485h60l98 -417h2l246 417h67l-453 -755h-62zM410 596l-40 -26l-56 88l-86 -88l-33 34l80 81h78z" />
    <glyph glyph-name="ydieresis" unicode="&#xff;" horiz-adv-x="507" 
d="M22 -225l162 270l-120 485h60l98 -417h2l246 417h67l-453 -755h-62zM178 580l14 83h85l-14 -83h-85zM350 580l14 83h85l-14 -83h-85z" />
    <glyph glyph-name="uni1EF5" unicode="&#x1ef5;" horiz-adv-x="507" 
d="M22 -225l162 270l-120 485h60l98 -417h2l246 417h67l-453 -755h-62zM231 -132l14 83h85l-14 -83h-85z" />
    <glyph glyph-name="ygrave" unicode="&#x1ef3;" horiz-adv-x="507" 
d="M22 -225l162 270l-120 485h60l98 -417h2l246 417h67l-453 -755h-62zM279 590l-77 110h82l49 -110h-54z" />
    <glyph glyph-name="uni1EF9" unicode="&#x1ef9;" horiz-adv-x="507" 
d="M22 -225l162 270l-120 485h60l98 -417h2l246 417h67l-453 -755h-62zM302 608c-19 12 -35 18 -48 18c-20 0 -34 -12 -42 -36h-37c9 51 43 83 84 83c25 0 43 -8 68 -23c23 -12 33 -18 48 -18c21 0 35 12 43 36h37c-9 -51 -43 -83 -84 -83c-25 0 -44 8 -69 23z" />
    <glyph glyph-name="z" unicode="z" horiz-adv-x="493" 
d="M-18 0l9 52l419 423v2h-337l10 53h415l-9 -52l-419 -423v-2h357l-10 -53h-435z" />
    <glyph glyph-name="zacute" unicode="&#x17a;" horiz-adv-x="493" 
d="M-18 0l9 52l419 423v2h-337l10 53h415l-9 -52l-419 -423v-2h357l-10 -53h-435zM262 590l88 110h85l-116 -110h-57z" />
    <glyph glyph-name="zcaron" unicode="&#x17e;" horiz-adv-x="493" 
d="M-18 0l9 52l419 423v2h-337l10 53h415l-9 -52l-419 -423v-2h357l-10 -53h-435zM384 695l34 -34l-80 -81h-79l-57 89l40 26l56 -89z" />
    <glyph glyph-name="zdotaccent" unicode="&#x17c;" horiz-adv-x="493" 
d="M-18 0l9 52l419 423v2h-337l10 53h415l-9 -52l-419 -423v-2h357l-10 -53h-435zM268 624l14 74h76l-13 -74h-77z" />
    <glyph glyph-name="uni1E93" unicode="&#x1e93;" horiz-adv-x="493" 
d="M-18 0l9 52l419 423v2h-337l10 53h415l-9 -52l-419 -423v-2h357l-10 -53h-435zM138 -132l14 83h85l-14 -83h-85z" />
    <glyph glyph-name="A.ordn" horiz-adv-x="308" 
d="M69 544c0 94 68 163 147 163c33 0 61 -11 84 -32h1l5 25h47l-49 -276h-43l5 29h-1c-17 -21 -49 -35 -82 -35c-65 0 -114 49 -114 126zM272 523l19 102c-12 23 -36 38 -72 38c-56 0 -101 -48 -101 -119c0 -52 27 -82 74 -82c37 0 75 25 80 61z" />
    <glyph glyph-name="B.ccmp" horiz-adv-x="315" 
d="M113 456h-1l-6 -32h-46l67 380h48l-22 -125h1c21 19 47 28 78 28c69 0 118 -52 118 -127c0 -93 -65 -162 -149 -162c-35 0 -67 13 -88 38zM302 581c0 49 -29 82 -76 82c-43 0 -82 -28 -87 -64l-16 -93c16 -28 46 -45 78 -45c57 0 101 51 101 120z" />
    <glyph glyph-name="C.ccmp" horiz-adv-x="301" 
d="M69 544c0 47 14 86 42 117s64 46 108 46c65 0 110 -40 118 -103l-47 -7c-7 43 -31 66 -71 66c-60 0 -101 -50 -101 -119c0 -51 28 -83 73 -83c44 0 76 25 92 66l44 -16c-24 -59 -71 -94 -136 -94c-73 0 -122 52 -122 127z" />
    <glyph glyph-name="D.ccmp" horiz-adv-x="308" 
d="M69 544c0 94 68 163 147 163c34 0 62 -11 83 -32h1l23 129h48l-67 -380h-43l5 29h-1c-17 -21 -49 -35 -82 -35c-65 0 -114 49 -114 126zM273 523l18 101c-11 23 -36 39 -72 39c-56 0 -101 -47 -101 -119c0 -52 27 -82 74 -82c37 0 76 25 81 61z" />
    <glyph glyph-name="E.ccmp" horiz-adv-x="302" 
d="M334 544h-218v-1c0 -51 28 -84 76 -84c35 0 65 18 90 53l36 -29c-34 -44 -76 -66 -126 -66c-75 0 -124 50 -124 126c0 92 65 164 149 164c72 0 120 -49 120 -126c0 -11 -1 -24 -3 -37zM123 585h165c4 47 -26 80 -71 80c-48 0 -83 -35 -94 -80z" />
    <glyph glyph-name="F.ccmp" horiz-adv-x="189" 
d="M82 424l42 233h-48l8 43h47l6 33c7 43 35 65 83 65h47l-8 -43h-37c-23 0 -34 -9 -38 -33l-4 -22h78l-7 -43h-79l-41 -233h-49z" />
    <glyph glyph-name="G.ccmp" horiz-adv-x="312" 
d="M59 370l41 21c15 -35 37 -52 74 -52c45 0 77 32 86 85l4 22h-1c-19 -19 -43 -28 -73 -28c-75 0 -121 49 -121 126c0 93 66 163 152 163c33 0 62 -13 82 -34h1l6 27h46l-48 -278c-13 -80 -63 -126 -134 -126c-56 0 -96 27 -115 74zM277 524l16 97c-12 27 -38 42 -70 42
c-61 0 -105 -50 -105 -119c0 -52 27 -82 76 -82c41 0 76 26 83 62z" />
    <glyph glyph-name="H.ccmp" horiz-adv-x="304" 
d="M60 424l67 380h48l-23 -132h1c25 23 54 35 87 35c60 0 98 -36 98 -89c0 -5 -1 -12 -2 -21l-31 -173h-49l30 170c1 8 2 14 2 17c0 33 -21 52 -61 52c-44 0 -83 -33 -91 -77l-28 -162h-48z" />
    <glyph glyph-name="I.ordn" horiz-adv-x="121" 
d="M117 747l9 53h57l-9 -53h-57zM67 424l48 276h48l-48 -276h-48z" />
    <glyph glyph-name="J.ordn" horiz-adv-x="125" 
d="M121 747l9 53h57l-9 -53h-57zM-4 331l7 45h25c24 0 33 8 38 32l51 292h49l-54 -303c-8 -48 -31 -66 -83 -66h-33z" />
    <glyph glyph-name="K.ccmp" horiz-adv-x="261" 
d="M334 700l-124 -111l76 -165h-53l-59 135h-1l-49 -43l-16 -92h-48l67 380h49l-40 -221h1l128 117h69z" />
    <glyph glyph-name="L.ccmp" horiz-adv-x="112" 
d="M60 424l67 380h48l-67 -380h-48z" />
    <glyph glyph-name="M.ccmp" horiz-adv-x="446" 
d="M481 626c0 -4 -1 -10 -2 -18l-32 -184h-48l32 181c1 3 1 7 1 13c0 28 -19 45 -51 45c-37 0 -66 -25 -73 -64l-31 -175h-47l33 181c1 3 1 7 1 12c0 28 -20 46 -51 46c-37 0 -67 -27 -74 -64l-31 -175h-48l49 276h47l-4 -25h1c17 19 47 32 76 32c33 0 61 -15 73 -39h1
c20 24 52 39 85 39c56 0 93 -33 93 -81z" />
    <glyph glyph-name="N.ccmp" horiz-adv-x="305" 
d="M61 424l48 276h46l-5 -32h1c21 23 54 39 90 39c60 0 98 -36 98 -89c0 -5 -1 -12 -2 -21l-31 -173h-49l30 170c1 8 2 14 2 17c0 33 -21 52 -61 52c-44 0 -83 -33 -91 -77l-28 -162h-48z" />
    <glyph glyph-name="O.ordn" horiz-adv-x="311" 
d="M69 544c0 47 14 86 43 117s65 46 110 46c73 0 124 -52 124 -127c0 -47 -14 -86 -43 -117c-28 -31 -64 -46 -109 -46c-73 0 -125 52 -125 127zM298 580c0 51 -31 83 -76 83c-61 0 -104 -50 -104 -119c0 -51 31 -83 76 -83c61 0 104 50 104 119z" />
    <glyph glyph-name="P.ccmp" horiz-adv-x="315" 
d="M39 303l70 397h47l-4 -24h1c20 19 51 31 80 31c69 0 118 -52 118 -127c0 -93 -65 -163 -149 -163c-33 0 -64 13 -87 36h-1l-27 -150h-48zM302 580c0 49 -30 83 -75 83c-43 0 -81 -29 -89 -73l-15 -84c17 -28 46 -45 79 -45c57 0 100 50 100 119z" />
    <glyph glyph-name="Q.ccmp" horiz-adv-x="307" 
d="M305 700h47l-69 -397h-49l26 144h-1c-19 -19 -45 -29 -77 -29c-65 0 -113 48 -113 123c0 97 68 166 146 166c34 0 62 -11 84 -33h1zM272 523l19 102c-12 23 -37 38 -72 38c-57 0 -102 -48 -102 -120c0 -51 27 -81 74 -81c37 0 74 25 81 61z" />
    <glyph glyph-name="R.ccmp" horiz-adv-x="177" 
d="M253 701l-9 -45c-13 3 -23 4 -29 4c-40 0 -71 -31 -80 -86l-27 -150h-48l49 276h46l-5 -26h1c17 21 40 31 69 31c10 0 21 -1 33 -4z" />
    <glyph glyph-name="S.ccmp" horiz-adv-x="291" 
d="M71 516l43 11c9 -47 36 -70 81 -70c37 0 63 18 63 45c0 21 -16 34 -65 47c-67 19 -91 41 -91 81c0 44 42 77 99 77c60 0 104 -31 115 -82l-43 -11c-9 35 -35 53 -72 53c-31 0 -52 -15 -52 -36c0 -20 14 -30 61 -43c68 -19 95 -44 95 -85c0 -51 -45 -86 -110 -86
c-68 0 -116 39 -124 99z" />
    <glyph glyph-name="T.ccmp" horiz-adv-x="176" 
d="M166 656l-29 -164c-1 -17 4 -22 25 -22h34l-9 -46h-30c-48 0 -70 16 -70 49c0 3 1 10 2 19l29 164h-42l8 44h42l11 64h48l-11 -64h72l-8 -44h-72z" />
    <glyph glyph-name="U.ccmp" horiz-adv-x="295" 
d="M292 700h48l-49 -276h-46l4 26h-1c-21 -22 -48 -33 -82 -33c-57 0 -95 33 -95 85c0 4 1 11 2 22l31 176h48l-31 -173c-1 -8 -2 -14 -2 -17c0 -33 20 -50 59 -50c44 0 77 32 85 77z" />
    <glyph glyph-name="V.ccmp" horiz-adv-x="296" 
d="M156 424l-67 276h49l46 -208h1l120 208h56l-165 -276h-40z" />
    <glyph glyph-name="W.ccmp" horiz-adv-x="416" 
d="M109 424l-20 276h49l12 -209h1l111 209h45l36 -209h1l84 209h53l-116 -276h-50l-39 216h-1l-115 -216h-51z" />
    <glyph glyph-name="X.ccmp" horiz-adv-x="294" 
d="M357 700l-126 -136l79 -140h-56l-55 106h-1l-93 -106h-65l129 141l-76 135h56l53 -100h1l88 100h66z" />
    <glyph glyph-name="Y.ccmp" horiz-adv-x="295" 
d="M303 700h57l-240 -397h-55l89 147l-65 250h51l47 -194h1z" />
    <glyph glyph-name="Z.ccmp" horiz-adv-x="275" 
d="M41 424l6 39l210 192v1h-170l7 44h241l-6 -39l-210 -192v-1h180l-8 -44h-250z" />
    <glyph glyph-name="a.salt" horiz-adv-x="522" 
d="M31 116c0 96 55 143 214 183c123 32 160 56 166 111c5 48 -39 81 -110 81c-85 0 -150 -49 -174 -130l-57 15c29 105 119 169 232 169c104 0 172 -55 172 -138c0 -9 -1 -19 -3 -29l-67 -378h-56l13 68h-2c-39 -52 -104 -83 -175 -83c-95 0 -153 50 -153 131zM376 176
l25 140h-2c-23 -27 -58 -45 -142 -66c-124 -32 -167 -66 -167 -130c0 -53 34 -80 101 -80c89 0 173 61 185 136z" />
    <glyph glyph-name="aacute.salt" horiz-adv-x="522" 
d="M31 116c0 96 55 143 214 183c123 32 160 56 166 111c5 48 -39 81 -110 81c-85 0 -150 -49 -174 -130l-57 15c29 105 119 169 232 169c104 0 172 -55 172 -138c0 -9 -1 -19 -3 -29l-67 -378h-56l13 68h-2c-39 -52 -104 -83 -175 -83c-95 0 -153 50 -153 131zM376 176
l25 140h-2c-23 -27 -58 -45 -142 -66c-124 -32 -167 -66 -167 -130c0 -53 34 -80 101 -80c89 0 173 61 185 136zM273 605l88 110h85l-116 -110h-57z" />
    <glyph glyph-name="abreve.salt" horiz-adv-x="522" 
d="M31 116c0 96 55 143 214 183c123 32 160 56 166 111c5 48 -39 81 -110 81c-85 0 -150 -49 -174 -130l-57 15c29 105 119 169 232 169c104 0 172 -55 172 -138c0 -9 -1 -19 -3 -29l-67 -378h-56l13 68h-2c-39 -52 -104 -83 -175 -83c-95 0 -153 50 -153 131zM376 176
l25 140h-2c-23 -27 -58 -45 -142 -66c-124 -32 -167 -66 -167 -130c0 -53 34 -80 101 -80c89 0 173 61 185 136zM204 706h38c5 -39 25 -59 62 -59c44 0 75 20 93 59h38c-19 -71 -65 -111 -133 -111c-60 0 -99 44 -98 111z" />
    <glyph glyph-name="uni01CE.salt" horiz-adv-x="522" 
d="M31 116c0 96 55 143 214 183c123 32 160 56 166 111c5 48 -39 81 -110 81c-85 0 -150 -49 -174 -130l-57 15c29 105 119 169 232 169c104 0 172 -55 172 -138c0 -9 -1 -19 -3 -29l-67 -378h-56l13 68h-2c-39 -52 -104 -83 -175 -83c-95 0 -153 50 -153 131zM376 176
l25 140h-2c-23 -27 -58 -45 -142 -66c-124 -32 -167 -66 -167 -130c0 -53 34 -80 101 -80c89 0 173 61 185 136zM395 710l34 -34l-80 -81h-79l-57 89l40 26l56 -89z" />
    <glyph glyph-name="acircumflex.salt" horiz-adv-x="522" 
d="M31 116c0 96 55 143 214 183c123 32 160 56 166 111c5 48 -39 81 -110 81c-85 0 -150 -49 -174 -130l-57 15c29 105 119 169 232 169c104 0 172 -55 172 -138c0 -9 -1 -19 -3 -29l-67 -378h-56l13 68h-2c-39 -52 -104 -83 -175 -83c-95 0 -153 50 -153 131zM376 176
l25 140h-2c-23 -27 -58 -45 -142 -66c-124 -32 -167 -66 -167 -130c0 -53 34 -80 101 -80c89 0 173 61 185 136zM415 611l-40 -26l-56 88l-86 -88l-33 34l80 81h78z" />
    <glyph glyph-name="uni1EAD.salt" horiz-adv-x="522" 
d="M31 116c0 96 55 143 214 183c123 32 160 56 166 111c5 48 -39 81 -110 81c-85 0 -150 -49 -174 -130l-57 15c29 105 119 169 232 169c104 0 172 -55 172 -138c0 -9 -1 -19 -3 -29l-67 -378h-56l13 68h-2c-39 -52 -104 -83 -175 -83c-95 0 -153 50 -153 131zM376 176
l25 140h-2c-23 -27 -58 -45 -142 -66c-124 -32 -167 -66 -167 -130c0 -53 34 -80 101 -80c89 0 173 61 185 136zM415 611l-40 -26l-56 88l-86 -88l-33 34l80 81h78zM142 -147l14 83h85l-14 -83h-85z" />
    <glyph glyph-name="adieresis.salt" horiz-adv-x="522" 
d="M31 116c0 96 55 143 214 183c123 32 160 56 166 111c5 48 -39 81 -110 81c-85 0 -150 -49 -174 -130l-57 15c29 105 119 169 232 169c104 0 172 -55 172 -138c0 -9 -1 -19 -3 -29l-67 -378h-56l13 68h-2c-39 -52 -104 -83 -175 -83c-95 0 -153 50 -153 131zM376 176
l25 140h-2c-23 -27 -58 -45 -142 -66c-124 -32 -167 -66 -167 -130c0 -53 34 -80 101 -80c89 0 173 61 185 136zM183 595l14 83h85l-14 -83h-85zM355 595l14 83h85l-14 -83h-85z" />
    <glyph glyph-name="uni01DF.salt" horiz-adv-x="522" 
d="M31 116c0 96 55 143 214 183c123 32 160 56 166 111c5 48 -39 81 -110 81c-85 0 -150 -49 -174 -130l-57 15c29 105 119 169 232 169c104 0 172 -55 172 -138c0 -9 -1 -19 -3 -29l-67 -378h-56l13 68h-2c-39 -52 -104 -83 -175 -83c-95 0 -153 50 -153 131zM376 176
l25 140h-2c-23 -27 -58 -45 -142 -66c-124 -32 -167 -66 -167 -130c0 -53 34 -80 101 -80c89 0 173 61 185 136zM183 595l14 83h85l-14 -83h-85zM355 595l14 83h85l-14 -83h-85zM216 718l9 49h253l-9 -49h-253z" />
    <glyph glyph-name="uni1EA1.salt" horiz-adv-x="522" 
d="M31 116c0 96 55 143 214 183c123 32 160 56 166 111c5 48 -39 81 -110 81c-85 0 -150 -49 -174 -130l-57 15c29 105 119 169 232 169c104 0 172 -55 172 -138c0 -9 -1 -19 -3 -29l-67 -378h-56l13 68h-2c-39 -52 -104 -83 -175 -83c-95 0 -153 50 -153 131zM376 176
l25 140h-2c-23 -27 -58 -45 -142 -66c-124 -32 -167 -66 -167 -130c0 -53 34 -80 101 -80c89 0 173 61 185 136zM142 -147l14 83h85l-14 -83h-85z" />
    <glyph glyph-name="agrave.salt" horiz-adv-x="522" 
d="M31 116c0 96 55 143 214 183c123 32 160 56 166 111c5 48 -39 81 -110 81c-85 0 -150 -49 -174 -130l-57 15c29 105 119 169 232 169c104 0 172 -55 172 -138c0 -9 -1 -19 -3 -29l-67 -378h-56l13 68h-2c-39 -52 -104 -83 -175 -83c-95 0 -153 50 -153 131zM376 176
l25 140h-2c-23 -27 -58 -45 -142 -66c-124 -32 -167 -66 -167 -130c0 -53 34 -80 101 -80c89 0 173 61 185 136zM284 605l-77 110h82l49 -110h-54z" />
    <glyph glyph-name="amacron.salt" horiz-adv-x="522" 
d="M31 116c0 96 55 143 214 183c123 32 160 56 166 111c5 48 -39 81 -110 81c-85 0 -150 -49 -174 -130l-57 15c29 105 119 169 232 169c104 0 172 -55 172 -138c0 -9 -1 -19 -3 -29l-67 -378h-56l13 68h-2c-39 -52 -104 -83 -175 -83c-95 0 -153 50 -153 131zM376 176
l25 140h-2c-23 -27 -58 -45 -142 -66c-124 -32 -167 -66 -167 -130c0 -53 34 -80 101 -80c89 0 173 61 185 136zM196 605l9 49h253l-9 -49h-253z" />
    <glyph glyph-name="aogonek.salt" horiz-adv-x="522" 
d="M31 116c0 96 55 143 214 183c123 32 160 56 166 111c5 48 -39 81 -110 81c-85 0 -150 -49 -174 -130l-57 15c29 105 119 169 232 169c104 0 172 -55 172 -138c0 -9 -1 -19 -3 -29l-67 -378h-56l13 68h-2c-39 -52 -104 -83 -175 -83c-95 0 -153 50 -153 131zM376 176
l25 140h-2c-23 -27 -58 -45 -142 -66c-124 -32 -167 -66 -167 -130c0 -53 34 -80 101 -80c89 0 173 61 185 136zM245 -128c0 49 45 99 125 140l30 -12c-61 -31 -101 -75 -101 -112c0 -18 11 -27 33 -27c19 0 40 6 63 19l11 -47c-29 -15 -58 -23 -85 -23c-49 0 -76 22 -76 62
z" />
    <glyph glyph-name="aring.salt" horiz-adv-x="522" 
d="M191 678c0 57 44 99 105 99c60 0 104 -42 104 -99s-44 -99 -104 -99c-61 0 -105 42 -105 99zM360 678c0 37 -28 64 -64 64c-37 0 -65 -27 -65 -64s28 -64 65 -64c36 0 64 27 64 64zM34 116c0 96 55 143 214 183c123 32 160 56 166 111c5 48 -39 81 -110 81
c-85 0 -150 -49 -174 -130l-57 15c29 105 119 169 232 169c104 0 172 -55 172 -138c0 -9 -1 -19 -3 -29l-67 -378h-56l13 68h-2c-39 -52 -104 -83 -175 -83c-95 0 -153 50 -153 131zM379 176l25 140h-2c-23 -27 -58 -45 -142 -66c-124 -32 -167 -66 -167 -130
c0 -53 34 -80 101 -80c89 0 173 61 185 136z" />
    <glyph glyph-name="aringacute.salt" horiz-adv-x="518" 
d="M191 678c0 47 30 84 75 95l78 98h85l-103 -98c44 -11 74 -48 74 -95c0 -57 -44 -99 -104 -99c-61 0 -105 42 -105 99zM231 678c0 -37 28 -64 65 -64c36 0 64 27 64 64s-28 64 -64 64c-37 0 -65 -27 -65 -64zM474 407c0 -9 -1 -19 -3 -29l-67 -378h-56l13 68h-2
c-39 -52 -104 -83 -175 -83c-95 0 -153 50 -153 131c0 96 55 143 214 183c123 32 160 56 166 111c5 48 -39 81 -110 81c-85 0 -150 -49 -174 -130l-57 15c29 105 119 169 232 169c104 0 172 -55 172 -138zM376 176l25 140h-2c-23 -27 -58 -45 -142 -66
c-124 -32 -167 -66 -167 -130c0 -53 34 -80 101 -80c89 0 173 61 185 136z" />
    <glyph glyph-name="atilde.salt" horiz-adv-x="522" 
d="M31 116c0 96 55 143 214 183c123 32 160 56 166 111c5 48 -39 81 -110 81c-85 0 -150 -49 -174 -130l-57 15c29 105 119 169 232 169c104 0 172 -55 172 -138c0 -9 -1 -19 -3 -29l-67 -378h-56l13 68h-2c-39 -52 -104 -83 -175 -83c-95 0 -153 50 -153 131zM376 176
l25 140h-2c-23 -27 -58 -45 -142 -66c-124 -32 -167 -66 -167 -130c0 -53 34 -80 101 -80c89 0 173 61 185 136zM307 623c-19 12 -35 18 -48 18c-20 0 -34 -12 -42 -36h-37c9 51 43 83 84 83c25 0 43 -8 68 -23c23 -12 33 -18 48 -18c21 0 35 12 43 36h37
c-9 -51 -43 -83 -84 -83c-25 0 -44 8 -69 23z" />
    <glyph glyph-name="aring.ss02" horiz-adv-x="522" 
d="M31 116c0 96 55 143 214 183c123 32 160 56 166 111c5 48 -39 81 -110 81c-85 0 -150 -49 -174 -130l-57 15c29 105 119 169 232 169c104 0 172 -55 172 -138c0 -9 -1 -19 -3 -29l-67 -378h-56l13 68h-2c-39 -52 -104 -83 -175 -83c-95 0 -153 50 -153 131zM376 176
l25 140h-2c-23 -27 -58 -45 -142 -66c-124 -32 -167 -66 -167 -130c0 -53 34 -80 101 -80c89 0 173 61 185 136zM188 615c0 61 47 107 114 107s114 -46 114 -107c0 -63 -47 -108 -114 -108s-114 45 -114 108zM372 615c0 40 -30 69 -70 69s-70 -29 -70 -69
c0 -41 30 -70 70 -70s70 29 70 70z" />
    <glyph glyph-name="aringacute.ss02" horiz-adv-x="522" 
d="M268 706l88 110h85l-116 -110h-57zM31 116c0 96 55 143 214 183c123 32 160 56 166 111c5 48 -39 81 -110 81c-85 0 -150 -49 -174 -130l-57 15c29 105 119 169 232 169c104 0 172 -55 172 -138c0 -9 -1 -19 -3 -29l-67 -378h-56l13 68h-2c-39 -52 -104 -83 -175 -83
c-95 0 -153 50 -153 131zM376 176l25 140h-2c-23 -27 -58 -45 -142 -66c-124 -32 -167 -66 -167 -130c0 -53 34 -80 101 -80c89 0 173 61 185 136zM188 615c0 61 47 107 114 107s114 -46 114 -107c0 -63 -47 -108 -114 -108s-114 45 -114 108zM372 615c0 40 -30 69 -70 69
s-70 -29 -70 -69c0 -41 30 -70 70 -70s70 29 70 70z" />
    <glyph glyph-name="f.ss03" horiz-adv-x="295" 
d="M65 0l84 477h-89l9 53h89l11 63c12 69 54 103 127 103h75l-10 -55h-65c-43 0 -62 -17 -70 -61l-9 -50h110l-9 -53h-110l-84 -477h-59z" />
    <glyph glyph-name="j.ss03" horiz-adv-x="201" 
d="M124 624l14 74h76l-13 -74h-77zM-12 -225l132 755h59l-132 -755h-59z" />
    <glyph glyph-name="t.ss03" horiz-adv-x="314" 
d="M206 477l-65 -373c-1 -8 -2 -14 -2 -17c0 -24 13 -32 49 -32h44l-9 -55h-45c-65 0 -98 26 -98 78c0 10 1 20 3 31l64 368h-87l9 53h88l20 116h59l-20 -116h116l-9 -53h-117z" />
    <glyph glyph-name="ordfeminine" unicode="&#xaa;" horiz-adv-x="308" 
d="M69 544c0 94 68 163 147 163c33 0 61 -11 84 -32h1l5 25h47l-49 -276h-43l5 29h-1c-17 -21 -49 -35 -82 -35c-65 0 -114 49 -114 126zM272 523l19 102c-12 23 -36 38 -72 38c-56 0 -101 -48 -101 -119c0 -52 27 -82 74 -82c37 0 75 25 80 61z" />
    <glyph glyph-name="ordmasculine" unicode="&#xba;" horiz-adv-x="311" 
d="M69 544c0 47 14 86 43 117s65 46 110 46c73 0 124 -52 124 -127c0 -47 -14 -86 -43 -117c-28 -31 -64 -46 -109 -46c-73 0 -125 52 -125 127zM298 580c0 51 -31 83 -76 83c-61 0 -104 -50 -104 -119c0 -51 31 -83 76 -83c61 0 104 50 104 119z" />
    <glyph glyph-name="uni0394" unicode="&#x394;" horiz-adv-x="581" 
d="M398 700l132 -700h-574l381 700h61zM53 55h405l-102 562h-2z" />
    <glyph glyph-name="uni03A9" unicode="&#x3a9;" horiz-adv-x="695" 
d="M478 55v-2h128l-9 -53h-249l9 52c143 25 248 190 246 368c0 141 -80 236 -200 236c-155 4 -285 -170 -282 -376c0 -121 63 -208 155 -228l-10 -52h-240l9 53h136v2c-71 39 -112 128 -112 228c-4 238 153 436 344 432c155 0 262 -118 262 -288c0 -87 -17 -163 -51 -229
c-33 -65 -79 -113 -136 -143z" />
    <glyph glyph-name="uni03BC" unicode="&#x3bc;" horiz-adv-x="553" 
d="M-16 -225l134 755h59l-62 -351c-2 -12 -3 -23 -3 -33c0 -67 44 -106 120 -106c45 0 84 14 117 43s54 66 62 111l59 336h59l-93 -530h-58l11 63h-2c-37 -49 -98 -78 -162 -78c-63 0 -108 23 -131 66h-2l-49 -276h-59z" />
    <glyph glyph-name="pi" unicode="&#x3c0;" horiz-adv-x="620" 
d="M528 475l-65 -371c-1 -8 -2 -14 -2 -17c0 -24 13 -32 49 -32h45l-10 -55h-45c-65 0 -98 26 -98 79c0 9 1 19 3 30l64 366h-246l-85 -475h-59l85 475h-105l10 55h570l-10 -55h-101z" />
    <glyph glyph-name="zero" unicode="0" horiz-adv-x="652" 
d="M55 258c-3 236 143 432 330 428c145 0 238 -102 238 -271c3 -238 -143 -433 -330 -429c-73 0 -131 24 -174 72c-43 49 -64 115 -64 200zM564 415c0 136 -70 216 -179 216c-151 4 -274 -171 -271 -373c0 -136 68 -217 179 -217c151 -4 274 170 271 374z" />
    <glyph glyph-name="one" unicode="1" horiz-adv-x="361" 
d="M149 0l106 599l-177 -102l10 69l186 106h54l-119 -672h-60z" />
    <glyph glyph-name="two" unicode="2" horiz-adv-x="608" 
d="M107 76l-4 -21h395l-9 -55h-459l13 72c26 125 62 160 259 250c170 73 227 120 227 199c0 68 -58 110 -149 110c-116 0 -199 -66 -226 -178l-57 12c15 67 47 120 98 160c51 41 113 61 184 61c125 0 209 -65 209 -165c0 -102 -68 -166 -254 -246
c-186 -81 -202 -101 -227 -199z" />
    <glyph glyph-name="three" unicode="3" horiz-adv-x="599" 
d="M44 221l59 6c3 -120 64 -186 176 -186c107 0 186 75 186 169c0 84 -50 124 -157 124h-47l8 53h48c103 0 185 62 185 141c0 63 -50 103 -133 103c-99 0 -166 -51 -194 -139l-56 15c31 108 126 179 250 179c57 0 103 -14 138 -42c36 -28 54 -65 54 -110
c0 -80 -51 -140 -140 -171v-3c64 -21 103 -73 103 -149c0 -127 -106 -225 -245 -225c-143 0 -232 90 -235 235z" />
    <glyph glyph-name="four" unicode="4" horiz-adv-x="576" 
d="M336 0l26 138h-370l9 54l418 480h97l-86 -479h95l-8 -55h-96l-24 -138h-61zM67 193h303l78 432h-2z" />
    <glyph glyph-name="five" unicode="5" horiz-adv-x="584" 
d="M28 178l58 11c14 -99 71 -148 172 -148c124 0 224 103 224 220c0 88 -61 143 -158 143c-72 0 -142 -30 -199 -83l-52 16l119 335h364l-9 -55h-316l-77 -215l2 -1c48 35 109 55 170 55c131 0 215 -76 215 -196c3 -147 -129 -277 -282 -274c-132 0 -216 72 -231 192z" />
    <glyph glyph-name="six" unicode="6" horiz-adv-x="610" 
d="M52 237c-3 250 153 453 346 449c115 0 194 -69 209 -177l-60 -11c-16 89 -66 133 -149 133c-139 0 -251 -125 -277 -313h2c40 77 125 129 221 129c132 0 223 -77 223 -194c3 -149 -122 -270 -277 -267c-147 0 -238 95 -238 251zM508 253c0 87 -66 141 -163 141
c-122 0 -220 -92 -220 -207c0 -88 66 -146 165 -146c123 0 218 93 218 212z" />
    <glyph glyph-name="seven" unicode="7" horiz-adv-x="505" 
d="M55 7l403 613v2h-376l10 57h448l-8 -53l-406 -619h-71z" />
    <glyph glyph-name="eight" unicode="8" horiz-adv-x="569" 
d="M14 165c0 99 73 174 185 202v2c-53 24 -87 70 -87 125c0 109 100 192 237 192c116 0 197 -65 197 -158c0 -80 -55 -143 -139 -167v-3c72 -25 119 -83 119 -155c0 -129 -117 -218 -276 -218c-144 0 -236 71 -236 180zM488 527c0 63 -55 106 -138 106
c-104 0 -181 -59 -181 -142c0 -63 54 -104 137 -104c53 0 97 13 131 39s51 60 51 101zM466 206c0 77 -67 126 -174 126c-129 0 -218 -68 -218 -164c0 -76 67 -126 175 -126c125 0 217 69 217 164z" />
    <glyph glyph-name="nine" unicode="9" horiz-adv-x="591" 
d="M47 158l59 13c16 -92 63 -129 150 -129c120 0 211 123 235 300h-2c-39 -68 -115 -110 -207 -110c-65 0 -116 18 -155 53c-38 36 -57 84 -57 143c0 145 117 258 270 258c139 0 225 -87 225 -230c2 -269 -128 -475 -309 -471c-119 0 -190 62 -209 173zM497 490
c0 84 -64 139 -157 139c-117 0 -209 -86 -209 -200c0 -89 58 -143 150 -143c121 0 216 90 216 204z" />
    <glyph glyph-name="zero.ccmp" horiz-adv-x="653" 
d="M57 264c-3 250 144 455 333 451c144 0 236 -106 236 -279c3 -250 -144 -455 -333 -451c-144 0 -236 106 -236 279zM563 436c0 139 -65 220 -173 220c-153 4 -274 -177 -271 -392c0 -139 66 -220 174 -220c153 -4 272 177 270 392z" />
    <glyph glyph-name="one.ccmp" horiz-adv-x="364" 
d="M150 0l109 624l-177 -105l10 71l187 110h56l-123 -700h-62z" />
    <glyph glyph-name="two.ccmp" horiz-adv-x="609" 
d="M111 80l-4 -21h394l-11 -59h-460l14 74c26 130 64 167 261 261c168 77 226 126 226 209c0 71 -57 113 -145 113c-116 0 -197 -69 -225 -186l-60 13c15 69 49 125 100 167c51 43 113 64 185 64c124 0 207 -67 207 -171c0 -106 -70 -175 -255 -259
c-183 -85 -204 -104 -227 -205z" />
    <glyph glyph-name="three.ccmp" horiz-adv-x="602" 
d="M46 230l62 6c3 -124 62 -191 173 -191c103 0 185 76 185 176c0 85 -51 127 -155 127h-47l8 56h49c103 0 183 65 183 147c0 65 -49 105 -129 105c-99 0 -165 -51 -194 -144l-58 15c15 57 46 102 91 136c46 35 100 52 161 52c57 0 103 -15 138 -44c36 -29 54 -67 54 -114
c0 -83 -50 -147 -135 -179v-3c60 -24 96 -78 96 -154c0 -132 -108 -235 -247 -235c-71 0 -128 22 -171 65c-42 44 -63 104 -64 179z" />
    <glyph glyph-name="four.ccmp" horiz-adv-x="576" 
d="M335 0l27 146h-369l9 54l420 500h100l-89 -499h94l-8 -55h-95l-26 -146h-63zM71 201h300l80 450h-2z" />
    <glyph glyph-name="five.ccmp" horiz-adv-x="587" 
d="M30 185l61 11c14 -101 71 -152 170 -152c121 -3 225 110 223 229c0 91 -60 148 -156 148c-71 0 -138 -30 -197 -86l-54 16l121 349h365l-10 -57h-314l-78 -224l2 -1c48 36 108 57 169 57c131 0 214 -78 214 -202c2 -153 -131 -292 -285 -288c-132 0 -218 76 -231 200z
" />
    <glyph glyph-name="six.ccmp" horiz-adv-x="611" 
d="M53 242c-3 264 155 477 350 473c115 0 195 -72 210 -185l-62 -11c-15 92 -65 138 -149 138c-135 0 -246 -125 -276 -313h2c45 75 128 122 220 122c132 0 221 -81 221 -200c0 -159 -121 -281 -278 -281c-147 0 -238 98 -238 257zM508 266c0 88 -63 144 -160 144
c-122 0 -219 -97 -219 -217c0 -91 65 -150 162 -150c123 0 217 98 217 223z" />
    <glyph glyph-name="seven.ccmp" horiz-adv-x="506" 
d="M53 0l406 639v2h-374l11 59h449l-9 -55l-409 -645h-74z" />
    <glyph glyph-name="eight.ccmp" horiz-adv-x="570" 
d="M15 173c0 101 73 182 184 210v2c-52 25 -84 74 -84 130c0 114 102 200 240 200c114 0 196 -66 196 -163c0 -83 -54 -148 -138 -175v-2c69 -28 116 -88 116 -161c0 -135 -118 -229 -278 -229c-144 0 -236 72 -236 188zM490 551c0 64 -54 107 -135 107
c-103 0 -179 -61 -179 -146c0 -64 53 -107 134 -107c104 0 180 61 180 146zM465 217c0 79 -65 129 -170 129c-126 0 -216 -72 -216 -171c0 -79 67 -130 171 -130c125 0 215 73 215 172z" />
    <glyph glyph-name="nine.ccmp" horiz-adv-x="590" 
d="M568 481c2 -282 -129 -500 -312 -496c-119 0 -191 65 -208 181l59 13c17 -97 62 -136 149 -136c121 0 212 130 238 317c-37 -71 -117 -117 -210 -117c-129 0 -211 78 -211 201c-3 149 121 274 272 271c137 0 223 -89 223 -234zM501 513c0 85 -64 144 -156 144
c-117 0 -211 -91 -211 -212c0 -92 58 -147 150 -147c122 0 217 95 217 215z" />
    <glyph glyph-name="zero.tnum" 
d="M55 264c-3 250 145 455 334 451c142 0 235 -106 235 -279c3 -250 -144 -455 -333 -451c-144 0 -236 106 -236 279zM562 436c0 139 -66 220 -174 220c-153 4 -272 -177 -270 -392c0 -139 66 -220 174 -220c153 -4 272 177 270 392z" />
    <glyph glyph-name="one.tnum" 
d="M319 59h165l-11 -59h-386l10 59h160l99 565l-177 -105l10 71l187 110h56z" />
    <glyph glyph-name="two.tnum" 
d="M131 80l-4 -21h394l-11 -59h-460l14 74c26 130 64 167 261 261c168 77 226 126 226 209c0 71 -57 113 -145 113c-116 0 -197 -69 -225 -186l-60 13c15 69 49 125 100 167c51 43 113 64 185 64c124 0 207 -67 207 -171c0 -106 -70 -175 -255 -259
c-183 -85 -204 -104 -227 -205z" />
    <glyph glyph-name="three.tnum" 
d="M75 230l62 6c3 -124 62 -191 173 -191c103 0 185 76 185 176c0 85 -51 127 -155 127h-47l8 56h49c103 0 183 65 183 147c0 65 -49 105 -129 105c-99 0 -165 -51 -194 -144l-58 15c15 57 46 102 91 136c46 35 100 52 161 52c57 0 103 -15 138 -44c36 -29 54 -67 54 -114
c0 -83 -50 -147 -135 -179v-3c60 -24 96 -78 96 -154c0 -132 -108 -235 -247 -235c-71 0 -128 22 -171 65c-42 44 -63 104 -64 179z" />
    <glyph glyph-name="four.tnum" 
d="M383 0l27 146h-369l9 54l420 500h100l-89 -499h94l-8 -55h-95l-26 -146h-63zM119 201h300l80 450h-2z" />
    <glyph glyph-name="five.tnum" 
d="M59 185l61 11c14 -101 71 -152 170 -152c121 -3 225 110 223 229c0 91 -60 148 -156 148c-71 0 -138 -30 -197 -86l-54 16l121 349h365l-10 -57h-314l-78 -224l2 -1c48 36 108 57 169 57c131 0 214 -78 214 -202c2 -153 -131 -292 -285 -288c-132 0 -218 76 -231 200z
" />
    <glyph glyph-name="six.tnum" 
d="M70 242c-3 264 155 477 350 473c115 0 195 -72 210 -185l-62 -11c-15 92 -65 138 -149 138c-135 0 -246 -125 -276 -313h2c45 75 128 122 220 122c132 0 221 -81 221 -200c0 -159 -121 -281 -278 -281c-147 0 -238 98 -238 257zM525 266c0 88 -63 144 -160 144
c-122 0 -219 -97 -219 -217c0 -91 65 -150 162 -150c123 0 217 98 217 223z" />
    <glyph glyph-name="seven.tnum" 
d="M134 0l406 639v2h-374l11 59h449l-9 -55l-409 -645h-74z" />
    <glyph glyph-name="eight.tnum" 
d="M55 173c0 101 73 182 184 210v2c-52 25 -84 74 -84 130c0 114 102 200 240 200c114 0 196 -66 196 -163c0 -83 -54 -148 -138 -175v-2c69 -28 116 -88 116 -161c0 -135 -118 -229 -278 -229c-144 0 -236 72 -236 188zM530 551c0 64 -54 107 -135 107
c-103 0 -179 -61 -179 -146c0 -64 53 -107 134 -107c104 0 180 61 180 146zM505 217c0 79 -65 129 -170 129c-126 0 -216 -72 -216 -171c0 -79 67 -130 171 -130c125 0 215 73 215 172z" />
    <glyph glyph-name="nine.tnum" 
d="M605 481c2 -282 -129 -500 -312 -496c-119 0 -191 65 -208 181l59 13c17 -97 62 -136 149 -136c121 0 212 130 238 317c-37 -71 -117 -117 -210 -117c-129 0 -211 78 -211 201c-3 149 121 274 272 271c137 0 223 -89 223 -234zM538 513c0 85 -64 144 -156 144
c-117 0 -211 -91 -211 -212c0 -92 58 -147 150 -147c122 0 217 95 217 215z" />
    <glyph glyph-name="zero.zero" horiz-adv-x="652" 
d="M623 415c3 -238 -143 -433 -330 -429c-73 0 -131 24 -174 72c-43 49 -64 115 -64 200c-3 236 143 432 330 428c145 0 238 -102 238 -271zM156 107l323 499c-28 17 -59 25 -94 25c-151 4 -274 -171 -271 -373c0 -63 14 -114 42 -151zM564 415c0 69 -17 123 -51 162
l-327 -502c30 -23 66 -34 107 -34c151 -4 274 170 271 374z" />
    <glyph glyph-name="zero.ordn" horiz-adv-x="653" 
d="M626 436c3 -250 -144 -455 -333 -451c-144 0 -236 106 -236 279c-3 250 144 455 333 451c144 0 236 -106 236 -279zM118 264c0 -65 13 -116 40 -154l333 516c-27 21 -61 32 -101 32c-153 4 -274 -179 -272 -394zM565 436c0 65 -14 118 -42 157l-335 -516
c29 -23 64 -35 105 -35c153 -4 274 179 272 394z" />
    <glyph glyph-name="zero.tnum_zero" 
d="M625 436c3 -250 -144 -455 -333 -451c-144 0 -236 106 -236 279c-3 250 144 455 333 451c144 0 236 -106 236 -279zM117 264c0 -65 13 -116 40 -154l333 516c-27 21 -61 32 -101 32c-153 4 -274 -179 -272 -394zM564 436c0 65 -14 118 -42 157l-335 -516
c29 -23 64 -35 105 -35c153 -4 274 179 272 394z" />
    <glyph glyph-name="zero.subs" horiz-adv-x="411" 
d="M-6 16c0 147 88 264 203 264c93 0 150 -65 150 -174c0 -147 -88 -264 -203 -264c-93 0 -150 65 -150 174zM293 107c0 81 -35 124 -95 124c-86 0 -150 -95 -150 -216c0 -81 35 -124 96 -124c84 0 149 95 149 216z" />
    <glyph glyph-name="one.subs" horiz-adv-x="260" 
d="M60 -149l63 356l-116 -66l10 64l119 66h52l-74 -420h-54z" />
    <glyph glyph-name="two.subs" horiz-adv-x="371" 
d="M36 -95l-1 -3h239l-9 -51h-296l9 53c14 78 41 106 155 152c101 41 135 71 135 112c0 39 -35 63 -83 63c-63 0 -107 -37 -122 -101l-52 10c19 88 86 140 174 140c77 0 136 -44 136 -112c0 -63 -41 -103 -157 -151c-106 -44 -115 -53 -128 -112z" />
    <glyph glyph-name="three.subs" horiz-adv-x="368" 
d="M-21 -8l54 4c1 -69 35 -104 98 -104c59 0 101 40 101 93c0 43 -29 66 -84 66h-33l7 43h30c57 0 100 34 100 81c0 33 -29 56 -72 56c-52 0 -91 -29 -108 -81l-51 15c23 71 84 115 159 115c73 0 126 -42 126 -101c0 -47 -27 -84 -75 -104v-2c35 -16 55 -50 55 -90
c0 -80 -70 -141 -155 -141c-93 0 -151 58 -152 150z" />
    <glyph glyph-name="four.subs" horiz-adv-x="365" 
d="M166 -149l15 82h-227l8 49l243 289h89l-51 -289h56l-8 -49h-56l-15 -82h-54zM21 -18h168l45 251h-1z" />
    <glyph glyph-name="five.subs" horiz-adv-x="383" 
d="M-21 -39l52 13c9 -55 42 -83 97 -83c71 0 124 52 124 121c0 48 -34 78 -87 78c-41 0 -78 -16 -112 -49l-48 16l75 214h233l-9 -50h-189l-41 -116l1 -1c29 20 61 30 97 30c83 0 134 -47 134 -122c0 -97 -76 -170 -178 -170c-83 0 -137 47 -149 119z" />
    <glyph glyph-name="six.subs" horiz-adv-x="394" 
d="M-8 3c0 153 93 277 212 277c71 0 121 -42 134 -107l-52 -12c-9 47 -37 70 -82 70c-35 0 -67 -16 -96 -47s-47 -67 -54 -110h1c27 33 74 58 123 58c83 0 138 -50 138 -122c0 -95 -77 -168 -170 -168c-96 0 -154 62 -154 161zM263 10c0 47 -35 78 -88 78
c-34 0 -63 -11 -86 -34s-34 -50 -34 -81c0 -49 34 -83 91 -83c66 0 117 57 117 120z" />
    <glyph glyph-name="seven.subs" horiz-adv-x="297" 
d="M-20 -149l242 369v1h-228l9 50h291l-7 -45l-244 -375h-63z" />
    <glyph glyph-name="eight.subs" horiz-adv-x="392" 
d="M-20 -40c0 57 41 105 105 124v1c-29 17 -46 44 -46 76c0 68 64 119 152 119c76 0 131 -43 131 -102c0 -48 -24 -79 -76 -102v-2c39 -19 63 -55 63 -95c0 -77 -77 -137 -173 -137c-92 0 -156 49 -156 118zM272 177c0 35 -32 58 -83 58c-59 0 -100 -32 -100 -77
c0 -36 31 -60 80 -60c60 0 103 32 103 79zM256 -16c0 43 -38 70 -98 70c-73 0 -125 -39 -125 -92c0 -45 40 -72 103 -72c71 0 120 39 120 94z" />
    <glyph glyph-name="nine.subs" horiz-adv-x="388" 
d="M326 130c0 -168 -84 -288 -198 -288c-73 0 -125 41 -134 109l52 12c8 -48 35 -72 82 -72c67 0 118 63 135 163c-24 -37 -67 -59 -118 -59c-80 0 -135 51 -135 126c0 90 73 159 169 159c89 0 147 -58 147 -150zM268 153c0 48 -36 78 -89 78c-65 0 -115 -47 -115 -110
c0 -48 33 -78 86 -78c67 0 118 47 118 110z" />
    <glyph glyph-name="zero.dnom" horiz-adv-x="411" 
d="M19 165c0 147 88 264 203 264c93 0 150 -65 150 -174c0 -147 -88 -264 -203 -264c-93 0 -150 65 -150 174zM318 256c0 81 -35 124 -95 124c-86 0 -150 -95 -150 -216c0 -81 35 -124 96 -124c84 0 149 95 149 216z" />
    <glyph glyph-name="one.dnom" horiz-adv-x="260" 
d="M85 0l63 356l-116 -66l10 64l119 66h52l-74 -420h-54z" />
    <glyph glyph-name="two.dnom" horiz-adv-x="371" 
d="M61 54l-1 -3h239l-9 -51h-296l9 53c14 78 41 106 155 152c101 41 135 71 135 112c0 39 -35 63 -83 63c-63 0 -107 -37 -122 -101l-52 10c19 88 86 140 174 140c77 0 136 -44 136 -112c0 -63 -41 -103 -157 -151c-106 -44 -115 -53 -128 -112z" />
    <glyph glyph-name="three.dnom" horiz-adv-x="368" 
d="M4 141l54 4c1 -69 35 -104 98 -104c59 0 101 40 101 93c0 43 -29 66 -84 66h-33l7 43h30c57 0 100 34 100 81c0 33 -29 56 -72 56c-52 0 -91 -29 -108 -81l-51 15c23 71 84 115 159 115c73 0 126 -42 126 -101c0 -47 -27 -84 -75 -104v-2c35 -16 55 -50 55 -90
c0 -80 -70 -141 -155 -141c-93 0 -151 58 -152 150z" />
    <glyph glyph-name="four.dnom" horiz-adv-x="365" 
d="M191 0l15 82h-227l8 49l243 289h89l-51 -289h56l-8 -49h-56l-15 -82h-54zM46 131h168l45 251h-1z" />
    <glyph glyph-name="five.dnom" horiz-adv-x="383" 
d="M4 110l52 13c9 -55 42 -83 97 -83c71 0 124 52 124 121c0 48 -34 78 -87 78c-41 0 -78 -16 -112 -49l-48 16l75 214h233l-9 -50h-189l-41 -116l1 -1c29 20 61 30 97 30c83 0 134 -47 134 -122c0 -97 -76 -170 -178 -170c-83 0 -137 47 -149 119z" />
    <glyph glyph-name="six.dnom" horiz-adv-x="394" 
d="M17 152c0 153 93 277 212 277c71 0 121 -42 134 -107l-52 -12c-9 47 -37 70 -82 70c-35 0 -67 -16 -96 -47s-47 -67 -54 -110h1c27 33 74 58 123 58c83 0 138 -50 138 -122c0 -95 -77 -168 -170 -168c-96 0 -154 62 -154 161zM288 159c0 47 -35 78 -88 78
c-34 0 -63 -11 -86 -34s-34 -50 -34 -81c0 -49 34 -83 91 -83c66 0 117 57 117 120z" />
    <glyph glyph-name="seven.dnom" horiz-adv-x="297" 
d="M5 0l242 369v1h-228l9 50h291l-7 -45l-244 -375h-63z" />
    <glyph glyph-name="eight.dnom" horiz-adv-x="392" 
d="M5 109c0 57 41 105 105 124v1c-29 17 -46 44 -46 76c0 68 64 119 152 119c76 0 131 -43 131 -102c0 -48 -24 -79 -76 -102v-2c39 -19 63 -55 63 -95c0 -77 -77 -137 -173 -137c-92 0 -156 49 -156 118zM297 326c0 35 -32 58 -83 58c-59 0 -100 -32 -100 -77
c0 -36 31 -60 80 -60c60 0 103 32 103 79zM281 133c0 43 -38 70 -98 70c-73 0 -125 -39 -125 -92c0 -45 40 -72 103 -72c71 0 120 39 120 94z" />
    <glyph glyph-name="nine.dnom" horiz-adv-x="388" 
d="M351 279c0 -168 -84 -288 -198 -288c-73 0 -125 41 -134 109l52 12c8 -48 35 -72 82 -72c67 0 118 63 135 163c-24 -37 -67 -59 -118 -59c-80 0 -135 51 -135 126c0 90 73 159 169 159c89 0 147 -58 147 -150zM293 302c0 48 -36 78 -89 78c-65 0 -115 -47 -115 -110
c0 -48 33 -78 86 -78c67 0 118 47 118 110z" />
    <glyph glyph-name="zero.numr" horiz-adv-x="411" 
d="M69 445c0 147 88 264 203 264c93 0 150 -65 150 -174c0 -147 -88 -264 -203 -264c-93 0 -150 65 -150 174zM368 536c0 81 -35 124 -95 124c-86 0 -150 -95 -150 -216c0 -81 35 -124 96 -124c84 0 149 95 149 216z" />
    <glyph glyph-name="one.numr" horiz-adv-x="259" 
d="M134 280l63 356l-116 -66l10 64l119 66h52l-74 -420h-54z" />
    <glyph glyph-name="two.numr" horiz-adv-x="371" 
d="M110 334l-1 -3h239l-9 -51h-296l9 53c14 78 41 106 155 152c101 41 135 71 135 112c0 39 -35 63 -83 63c-63 0 -107 -37 -122 -101l-52 10c19 88 86 140 174 140c77 0 136 -44 136 -112c0 -63 -41 -103 -157 -151c-106 -44 -115 -53 -128 -112z" />
    <glyph glyph-name="three.numr" horiz-adv-x="369" 
d="M54 421l54 4c1 -69 35 -104 98 -104c59 0 101 40 101 93c0 43 -29 66 -84 66h-33l7 43h30c57 0 100 34 100 81c0 33 -29 56 -72 56c-52 0 -91 -29 -108 -81l-51 15c23 71 84 115 159 115c73 0 126 -42 126 -101c0 -47 -27 -84 -75 -104v-2c35 -16 55 -50 55 -90
c0 -80 -70 -141 -155 -141c-93 0 -151 58 -152 150z" />
    <glyph glyph-name="four.numr" horiz-adv-x="365" 
d="M240 280l15 82h-227l8 49l243 289h89l-51 -289h56l-8 -49h-56l-15 -82h-54zM95 411h168l45 251h-1z" />
    <glyph glyph-name="five.numr" horiz-adv-x="383" 
d="M53 390l52 13c9 -55 42 -83 97 -83c71 0 124 52 124 121c0 48 -34 78 -87 78c-41 0 -78 -16 -112 -49l-48 16l75 214h233l-9 -50h-189l-41 -116l1 -1c29 20 61 30 97 30c83 0 134 -47 134 -122c0 -97 -76 -170 -178 -170c-83 0 -137 47 -149 119z" />
    <glyph glyph-name="six.numr" horiz-adv-x="395" 
d="M67 432c0 153 93 277 212 277c71 0 121 -42 134 -107l-52 -12c-9 47 -37 70 -82 70c-35 0 -67 -16 -96 -47s-47 -67 -54 -110h1c27 33 74 58 123 58c83 0 138 -50 138 -122c0 -95 -77 -168 -170 -168c-96 0 -154 62 -154 161zM338 439c0 47 -35 78 -88 78
c-34 0 -63 -11 -86 -34s-34 -50 -34 -81c0 -49 34 -83 91 -83c66 0 117 57 117 120z" />
    <glyph glyph-name="seven.numr" horiz-adv-x="297" 
d="M54 280l242 369v1h-228l9 50h291l-7 -45l-244 -375h-63z" />
    <glyph glyph-name="eight.numr" horiz-adv-x="392" 
d="M54 389c0 57 41 105 105 124v1c-29 17 -46 44 -46 76c0 68 64 119 152 119c76 0 131 -43 131 -102c0 -48 -24 -79 -76 -102v-2c39 -19 63 -55 63 -95c0 -77 -77 -137 -173 -137c-92 0 -156 49 -156 118zM346 606c0 35 -32 58 -83 58c-59 0 -100 -32 -100 -77
c0 -36 31 -60 80 -60c60 0 103 32 103 79zM330 413c0 43 -38 70 -98 70c-73 0 -125 -39 -125 -92c0 -45 40 -72 103 -72c71 0 120 39 120 94z" />
    <glyph glyph-name="nine.numr" horiz-adv-x="388" 
d="M400 559c0 -168 -84 -288 -198 -288c-73 0 -125 41 -134 109l52 12c8 -48 35 -72 82 -72c67 0 118 63 135 163c-24 -37 -67 -59 -118 -59c-80 0 -135 51 -135 126c0 90 73 159 169 159c89 0 147 -58 147 -150zM342 582c0 48 -36 78 -89 78c-65 0 -115 -47 -115 -110
c0 -48 33 -78 86 -78c67 0 118 47 118 110z" />
    <glyph glyph-name="zero.sups" horiz-adv-x="411" 
d="M86 545c0 147 88 264 203 264c93 0 150 -65 150 -174c0 -147 -88 -264 -203 -264c-93 0 -150 65 -150 174zM385 636c0 81 -35 124 -95 124c-86 0 -150 -95 -150 -216c0 -81 35 -124 96 -124c84 0 149 95 149 216z" />
    <glyph glyph-name="one.sups" horiz-adv-x="260" 
d="M152 380l63 356l-116 -66l10 64l119 66h52l-74 -420h-54z" />
    <glyph glyph-name="two.sups" horiz-adv-x="371" 
d="M128 434l-1 -3h239l-9 -51h-296l9 53c14 78 41 106 155 152c101 41 135 71 135 112c0 39 -35 63 -83 63c-63 0 -107 -37 -122 -101l-52 10c19 88 86 140 174 140c77 0 136 -44 136 -112c0 -63 -41 -103 -157 -151c-106 -44 -115 -53 -128 -112z" />
    <glyph glyph-name="three.sups" horiz-adv-x="368" 
d="M71 521l54 4c1 -69 35 -104 98 -104c59 0 101 40 101 93c0 43 -29 66 -84 66h-33l7 43h30c57 0 100 34 100 81c0 33 -29 56 -72 56c-52 0 -91 -29 -108 -81l-51 15c23 71 84 115 159 115c73 0 126 -42 126 -101c0 -47 -27 -84 -75 -104v-2c35 -16 55 -50 55 -90
c0 -80 -70 -141 -155 -141c-93 0 -151 58 -152 150z" />
    <glyph glyph-name="four.sups" horiz-adv-x="365" 
d="M258 380l15 82h-227l8 49l243 289h89l-51 -289h56l-8 -49h-56l-15 -82h-54zM113 511h168l45 251h-1z" />
    <glyph glyph-name="five.sups" horiz-adv-x="383" 
d="M71 490l52 13c9 -55 42 -83 97 -83c71 0 124 52 124 121c0 48 -34 78 -87 78c-41 0 -78 -16 -112 -49l-48 16l75 214h233l-9 -50h-189l-41 -116l1 -1c29 20 61 30 97 30c83 0 134 -47 134 -122c0 -97 -76 -170 -178 -170c-83 0 -137 47 -149 119z" />
    <glyph glyph-name="six.sups" horiz-adv-x="394" 
d="M84 532c0 153 93 277 212 277c71 0 121 -42 134 -107l-52 -12c-9 47 -37 70 -82 70c-35 0 -67 -16 -96 -47s-47 -67 -54 -110h1c27 33 74 58 123 58c83 0 138 -50 138 -122c0 -95 -77 -168 -170 -168c-96 0 -154 62 -154 161zM355 539c0 47 -35 78 -88 78
c-34 0 -63 -11 -86 -34s-34 -50 -34 -81c0 -49 34 -83 91 -83c66 0 117 57 117 120z" />
    <glyph glyph-name="seven.sups" horiz-adv-x="297" 
d="M72 380l242 369v1h-228l9 50h291l-7 -45l-244 -375h-63z" />
    <glyph glyph-name="eight.sups" horiz-adv-x="392" 
d="M72 489c0 57 41 105 105 124v1c-29 17 -46 44 -46 76c0 68 64 119 152 119c76 0 131 -43 131 -102c0 -48 -24 -79 -76 -102v-2c39 -19 63 -55 63 -95c0 -77 -77 -137 -173 -137c-92 0 -156 49 -156 118zM364 706c0 35 -32 58 -83 58c-59 0 -100 -32 -100 -77
c0 -36 31 -60 80 -60c60 0 103 32 103 79zM348 513c0 43 -38 70 -98 70c-73 0 -125 -39 -125 -92c0 -45 40 -72 103 -72c71 0 120 39 120 94z" />
    <glyph glyph-name="nine.sups" horiz-adv-x="388" 
d="M418 659c0 -168 -84 -288 -198 -288c-73 0 -125 41 -134 109l52 12c8 -48 35 -72 82 -72c67 0 118 63 135 163c-24 -37 -67 -59 -118 -59c-80 0 -135 51 -135 126c0 90 73 159 169 159c89 0 147 -58 147 -150zM360 682c0 48 -36 78 -89 78c-65 0 -115 -47 -115 -110
c0 -48 33 -78 86 -78c67 0 118 47 118 110z" />
    <glyph glyph-name="fraction" unicode="&#x2044;" horiz-adv-x="204" 
d="M-178 -66l-38 29l629 811l39 -28z" />
    <glyph glyph-name="onehalf" unicode="&#xbd;" horiz-adv-x="834" 
d="M134 280l63 356l-116 -66l10 64l119 66h52l-74 -420h-54zM81 -66l-38 29l629 811l39 -28zM524 54l-1 -3h239l-9 -51h-296l9 53c14 78 41 106 155 152c101 41 135 71 135 112c0 39 -35 63 -83 63c-63 0 -107 -37 -122 -101l-52 10c19 88 86 140 174 140
c77 0 136 -44 136 -112c0 -63 -41 -103 -157 -151c-106 -44 -115 -53 -128 -112z" />
    <glyph glyph-name="onequarter" unicode="&#xbc;" horiz-adv-x="778" 
d="M134 280l63 356l-116 -66l10 64l119 66h52l-74 -420h-54zM81 -66l-38 29l629 811l39 -28zM604 0l15 82h-227l8 49l243 289h89l-51 -289h56l-8 -49h-56l-15 -82h-54zM459 131h168l45 251h-1z" />
    <glyph glyph-name="threequarters" unicode="&#xbe;" horiz-adv-x="888" 
d="M54 421l54 4c1 -69 35 -104 98 -104c59 0 101 40 101 93c0 43 -29 66 -84 66h-33l7 43h30c57 0 100 34 100 81c0 33 -29 56 -72 56c-52 0 -91 -29 -108 -81l-51 15c23 71 84 115 159 115c73 0 126 -42 126 -101c0 -47 -27 -84 -75 -104v-2c35 -16 55 -50 55 -90
c0 -80 -70 -141 -155 -141c-93 0 -151 58 -152 150zM191 -66l-38 29l629 811l39 -28zM714 0l15 82h-227l8 49l243 289h89l-51 -289h56l-8 -49h-56l-15 -82h-54zM569 131h168l45 251h-1z" />
    <glyph glyph-name="oneeighth" unicode="&#x215b;" horiz-adv-x="855" 
d="M134 280l63 356l-116 -66l10 64l119 66h52l-74 -420h-54zM81 -66l-38 29l629 811l39 -28zM468 109c0 57 41 105 105 124v1c-29 17 -46 44 -46 76c0 68 64 119 152 119c76 0 131 -43 131 -102c0 -48 -24 -79 -76 -102v-2c39 -19 63 -55 63 -95c0 -77 -77 -137 -173 -137
c-92 0 -156 49 -156 118zM760 326c0 35 -32 58 -83 58c-59 0 -100 -32 -100 -77c0 -36 31 -60 80 -60c60 0 103 32 103 79zM744 133c0 43 -38 70 -98 70c-73 0 -125 -39 -125 -92c0 -45 40 -72 103 -72c71 0 120 39 120 94z" />
    <glyph glyph-name="threeeighths" unicode="&#x215c;" horiz-adv-x="965" 
d="M54 421l54 4c1 -69 35 -104 98 -104c59 0 101 40 101 93c0 43 -29 66 -84 66h-33l7 43h30c57 0 100 34 100 81c0 33 -29 56 -72 56c-52 0 -91 -29 -108 -81l-51 15c23 71 84 115 159 115c73 0 126 -42 126 -101c0 -47 -27 -84 -75 -104v-2c35 -16 55 -50 55 -90
c0 -80 -70 -141 -155 -141c-93 0 -151 58 -152 150zM191 -66l-38 29l629 811l39 -28zM578 109c0 57 41 105 105 124v1c-29 17 -46 44 -46 76c0 68 64 119 152 119c76 0 131 -43 131 -102c0 -48 -24 -79 -76 -102v-2c39 -19 63 -55 63 -95c0 -77 -77 -137 -173 -137
c-92 0 -156 49 -156 118zM870 326c0 35 -32 58 -83 58c-59 0 -100 -32 -100 -77c0 -36 31 -60 80 -60c60 0 103 32 103 79zM854 133c0 43 -38 70 -98 70c-73 0 -125 -39 -125 -92c0 -45 40 -72 103 -72c71 0 120 39 120 94z" />
    <glyph glyph-name="fiveeighths" unicode="&#x215d;" horiz-adv-x="979" 
d="M53 390l52 13c9 -55 42 -83 97 -83c71 0 124 52 124 121c0 48 -34 78 -87 78c-41 0 -78 -16 -112 -49l-48 16l75 214h233l-9 -50h-189l-41 -116l1 -1c29 20 61 30 97 30c83 0 134 -47 134 -122c0 -97 -76 -170 -178 -170c-83 0 -137 47 -149 119zM205 -66l-38 29l629 811
l39 -28zM592 109c0 57 41 105 105 124v1c-29 17 -46 44 -46 76c0 68 64 119 152 119c76 0 131 -43 131 -102c0 -48 -24 -79 -76 -102v-2c39 -19 63 -55 63 -95c0 -77 -77 -137 -173 -137c-92 0 -156 49 -156 118zM884 326c0 35 -32 58 -83 58c-59 0 -100 -32 -100 -77
c0 -36 31 -60 80 -60c60 0 103 32 103 79zM868 133c0 43 -38 70 -98 70c-73 0 -125 -39 -125 -92c0 -45 40 -72 103 -72c71 0 120 39 120 94z" />
    <glyph glyph-name="seveneighths" unicode="&#x215e;" horiz-adv-x="856" 
d="M54 280l242 369v1h-228l9 50h291l-7 -45l-244 -375h-63zM82 -66l-38 29l629 811l39 -28zM469 109c0 57 41 105 105 124v1c-29 17 -46 44 -46 76c0 68 64 119 152 119c76 0 131 -43 131 -102c0 -48 -24 -79 -76 -102v-2c39 -19 63 -55 63 -95c0 -77 -77 -137 -173 -137
c-92 0 -156 49 -156 118zM761 326c0 35 -32 58 -83 58c-59 0 -100 -32 -100 -77c0 -36 31 -60 80 -60c60 0 103 32 103 79zM745 133c0 43 -38 70 -98 70c-73 0 -125 -39 -125 -92c0 -45 40 -72 103 -72c71 0 120 39 120 94z" />
    <glyph glyph-name="asterisk" unicode="*" horiz-adv-x="484" 
d="M188 347l-38 33l97 118l-126 75l26 42l122 -72v150h49v-150l123 72l26 -42l-127 -75l98 -118l-39 -33l-105 131z" />
    <glyph glyph-name="backslash" unicode="\" horiz-adv-x="572" 
d="M456 -34l-355 748l44 20l355 -750z" />
    <glyph glyph-name="periodcentered" unicode="&#xb7;" horiz-adv-x="237" 
d="M80 334l17 99h102l-18 -99h-101z" />
    <glyph glyph-name="bullet" unicode="&#x2022;" horiz-adv-x="344" 
d="M119 384c0 43 30 74 74 74s73 -31 73 -74c0 -44 -29 -75 -73 -75s-74 31 -74 75z" />
    <glyph glyph-name="colon" unicode=":" horiz-adv-x="302" 
d="M113 352l17 99h102l-18 -99h-101zM57 0l17 99h102l-18 -99h-101z" />
    <glyph glyph-name="comma" unicode="," horiz-adv-x="299" 
d="M39 -90l6 38c29 5 43 20 50 52h-44l17 96h104l-15 -83c-11 -63 -51 -98 -118 -103z" />
    <glyph glyph-name="ellipsis" unicode="&#x2026;" horiz-adv-x="732" 
d="M269 0l17 99h102l-18 -99h-101zM51 0l17 99h102l-18 -99h-101zM486 0l17 99h102l-18 -99h-101z" />
    <glyph glyph-name="exclam" unicode="!" horiz-adv-x="303" 
d="M115 194l89 506h62l-88 -506h-63zM54 0l17 99h102l-18 -99h-101z" />
    <glyph glyph-name="exclamdown" unicode="&#xa1;" horiz-adv-x="303" 
d="M249 530l-17 -99h-102l18 99h101zM188 336l-89 -506h-62l88 506h63z" />
    <glyph glyph-name="numbersign" unicode="#" horiz-adv-x="742" 
d="M708 458h-162l-37 -212h162l-9 -53h-163l-34 -193h-59l34 193h-165l-34 -193h-58l34 193h-162l10 53h162l37 212h-163l10 53h163l33 189h58l-33 -189h165l33 189h59l-33 -189h161zM450 246l37 212h-165l-37 -212h165z" />
    <glyph glyph-name="period" unicode="." horiz-adv-x="296" 
d="M51 0l17 99h102l-18 -99h-101z" />
    <glyph glyph-name="question" unicode="?" horiz-adv-x="505" 
d="M172 179l13 71c6 35 19 63 40 86s55 48 103 75c83 47 119 93 119 148c0 57 -47 97 -118 97c-99 0 -165 -58 -190 -166l-62 11c29 135 123 214 252 214c102 0 180 -63 180 -147c0 -83 -46 -144 -146 -201c-91 -49 -109 -69 -119 -125l-11 -63h-61zM129 0l17 99h102
l-17 -99h-102z" />
    <glyph glyph-name="questiondown" unicode="&#xbf;" horiz-adv-x="505" 
d="M376 530l-17 -99h-102l17 99h102zM333 351l-13 -71c-6 -35 -19 -64 -40 -87s-55 -47 -103 -74c-83 -47 -119 -93 -119 -148c0 -57 47 -97 118 -97c99 0 165 58 190 166l62 -11c-29 -135 -123 -214 -252 -214c-102 0 -180 62 -180 147c0 83 46 144 146 201
c91 49 109 69 119 125l11 63h61z" />
    <glyph glyph-name="quotedbl" unicode="&#x22;" horiz-adv-x="373" 
d="M136 486l38 214h56l-38 -214h-56zM259 486l38 214h56l-38 -214h-56z" />
    <glyph glyph-name="quotesingle" unicode="'" horiz-adv-x="250" 
d="M136 486l38 214h56l-38 -214h-56z" />
    <glyph glyph-name="semicolon" unicode=";" horiz-adv-x="300" 
d="M40 -90l6 38c29 5 43 20 50 52h-44l17 96h104l-15 -83c-11 -63 -51 -98 -118 -103zM114 352l17 99h102l-18 -99h-101z" />
    <glyph glyph-name="slash" unicode="/" horiz-adv-x="315" 
d="M17 -33l-44 18l355 750l44 -20z" />
    <glyph glyph-name="underscore" unicode="_" horiz-adv-x="609" 
d="M-13 -135l8 51h495l-8 -51h-495z" />
    <glyph glyph-name="braceleft" unicode="{" horiz-adv-x="360" 
d="M91 -90c0 14 1 28 4 42l41 239c2 9 3 18 3 25c0 25 -13 35 -42 35h-31l12 68h26c40 0 57 17 66 64l39 219c16 91 56 129 136 129h69l-10 -60h-57c-47 0 -70 -24 -81 -83l-39 -220c-8 -51 -34 -79 -74 -83v-2c31 -6 47 -26 47 -59c0 -9 -1 -18 -3 -28l-42 -240
c-2 -13 -3 -24 -3 -32c0 -33 14 -46 53 -46h59l-10 -59h-64c-67 0 -99 30 -99 91z" />
    <glyph glyph-name="braceright" unicode="}" horiz-adv-x="359" 
d="M272 640c0 -14 -1 -28 -4 -42l-41 -239c-2 -9 -3 -17 -3 -25c0 -25 13 -35 42 -35h31l-12 -68h-26c-40 0 -57 -17 -66 -64l-39 -219c-16 -91 -56 -129 -136 -129h-69l10 60h57c47 0 70 24 81 83l39 220c8 51 34 79 74 83v2c-31 6 -47 26 -47 59c0 9 1 18 3 28l42 240
c2 13 3 24 3 32c0 33 -14 46 -53 46h-59l10 59h64c67 0 99 -30 99 -91z" />
    <glyph glyph-name="bracketleft" unicode="[" horiz-adv-x="302" 
d="M12 -181l160 912h184l-10 -56h-123l-141 -800h123l-9 -56h-184z" />
    <glyph glyph-name="bracketright" unicode="]" horiz-adv-x="302" 
d="M293 731l-160 -912h-184l10 56h123l141 800h-123l9 56h184z" />
    <glyph glyph-name="parenleft" unicode="(" horiz-adv-x="367" 
d="M94 188c0 212 103 423 294 598l38 -38c-175 -164 -271 -363 -271 -560c0 -131 35 -244 108 -351l-44 -29c-83 115 -125 241 -125 380z" />
    <glyph glyph-name="parenright" unicode=")" horiz-adv-x="367" 
d="M284 405c0 -212 -103 -423 -294 -598l-38 38c175 164 271 363 271 560c0 131 -35 244 -108 351l44 29c83 -115 125 -241 125 -380z" />
    <glyph glyph-name="braceleft.case" horiz-adv-x="360" 
d="M100 -40c0 14 1 28 4 42l41 239c2 9 3 18 3 25c0 25 -13 35 -42 35h-31l12 68h26c40 0 57 17 66 64l39 219c16 91 56 129 136 129h69l-10 -60h-57c-47 0 -70 -24 -81 -83l-39 -220c-8 -51 -34 -79 -74 -83v-2c31 -6 47 -26 47 -59c0 -9 -1 -18 -3 -28l-42 -240
c-2 -13 -3 -24 -3 -32c0 -33 14 -46 53 -46h59l-10 -59h-64c-67 0 -99 30 -99 91z" />
    <glyph glyph-name="braceright.case" horiz-adv-x="359" 
d="M281 690c0 -14 -1 -28 -4 -42l-41 -239c-2 -9 -3 -17 -3 -25c0 -25 13 -35 42 -35h31l-12 -68h-26c-40 0 -57 -17 -66 -64l-39 -219c-16 -91 -56 -129 -136 -129h-69l10 60h57c47 0 70 24 81 83l39 220c8 51 34 79 74 83v2c-31 6 -47 26 -47 59c0 9 1 18 3 28l42 240
c2 13 3 24 3 32c0 33 -14 46 -53 46h-59l10 59h64c67 0 99 -30 99 -91z" />
    <glyph glyph-name="bracketleft.case" horiz-adv-x="302" 
d="M21 -131l160 912h184l-10 -56h-123l-141 -800h123l-9 -56h-184z" />
    <glyph glyph-name="bracketright.case" horiz-adv-x="302" 
d="M302 781l-160 -912h-184l10 56h123l141 800h-123l9 56h184z" />
    <glyph glyph-name="parenleft.case" horiz-adv-x="366" 
d="M103 238c0 212 103 423 294 598l38 -38c-175 -164 -271 -363 -271 -560c0 -131 35 -244 108 -351l-44 -29c-83 115 -125 241 -125 380z" />
    <glyph glyph-name="parenright.case" horiz-adv-x="366" 
d="M292 455c0 -212 -103 -423 -294 -598l-38 38c175 164 271 363 271 560c0 131 -35 244 -108 351l44 29c83 -115 125 -241 125 -380z" />
    <glyph glyph-name="emdash" unicode="&#x2014;" horiz-adv-x="845" 
d="M58 269l10 57h731l-11 -57h-730z" />
    <glyph glyph-name="endash" unicode="&#x2013;" horiz-adv-x="560" 
d="M58 269l10 57h446l-11 -57h-445z" />
    <glyph glyph-name="hyphen" unicode="-" horiz-adv-x="363" 
d="M58 269l10 57h249l-11 -57h-248z" />
    <glyph glyph-name="uni00AD" unicode="&#xad;" horiz-adv-x="363" 
d="M58 269l10 57h249l-11 -57h-248z" />
    <glyph glyph-name="emdash.ccmp" horiz-adv-x="845" 
d="M69 334l10 57h731l-11 -57h-730z" />
    <glyph glyph-name="endash.ccmp" horiz-adv-x="560" 
d="M69 334l10 57h446l-11 -57h-445z" />
    <glyph glyph-name="hyphen.ccmp" horiz-adv-x="363" 
d="M69 334l10 57h249l-11 -57h-248z" />
    <glyph glyph-name="uni00AD.ccmp" horiz-adv-x="363" 
d="M69 334l10 57h249l-11 -57h-248z" />
    <glyph glyph-name="guillemotleft" unicode="&#xab;" horiz-adv-x="463" 
d="M305 97l-77 185l141 185h64l-145 -185l77 -185h-60zM157 97l-77 185l141 185h64l-145 -185l77 -185h-60z" />
    <glyph glyph-name="guillemotright" unicode="&#xbb;" horiz-adv-x="463" 
d="M164 467l77 -185l-141 -185h-64l145 185l-77 185h60zM312 467l77 -185l-141 -185h-64l145 185l-77 185h60z" />
    <glyph glyph-name="guilsinglleft" unicode="&#x2039;" horiz-adv-x="316" 
d="M157 97l-77 185l141 185h64l-145 -185l77 -185h-60z" />
    <glyph glyph-name="guilsinglright" unicode="&#x203a;" horiz-adv-x="316" 
d="M165 467l77 -185l-141 -185h-64l145 185l-77 185h60z" />
    <glyph glyph-name="quotedblbase" unicode="&#x201e;" horiz-adv-x="444" 
d="M39 -90l6 38c29 5 43 20 50 52h-44l17 96h104l-15 -83c-11 -63 -51 -98 -118 -103zM185 -90l6 38c29 5 43 20 50 52h-44l17 96h104l-15 -83c-11 -63 -51 -98 -118 -103z" />
    <glyph glyph-name="quotedblleft" unicode="&#x201c;" horiz-adv-x="444" 
d="M273 700l-6 -38c-29 -5 -43 -20 -50 -52h44l-17 -96h-104l15 83c11 63 51 98 118 103zM419 700l-6 -38c-29 -5 -43 -20 -50 -52h44l-17 -96h-104l15 83c11 63 51 98 118 103z" />
    <glyph glyph-name="quotedblright" unicode="&#x201d;" horiz-adv-x="444" 
d="M146 514l6 38c29 5 43 20 50 52h-44l17 96h104l-15 -83c-11 -63 -51 -98 -118 -103zM292 514l6 38c29 5 43 20 50 52h-44l17 96h104l-15 -83c-11 -63 -51 -98 -118 -103z" />
    <glyph glyph-name="quoteleft" unicode="&#x2018;" horiz-adv-x="298" 
d="M274 700l-6 -38c-29 -5 -43 -20 -50 -52h44l-17 -96h-104l15 83c11 63 51 98 118 103z" />
    <glyph glyph-name="quoteright" unicode="&#x2019;" horiz-adv-x="259" 
d="M126 514l6 38c29 5 43 20 50 52h-44l17 96h104l-15 -83c-11 -63 -51 -98 -118 -103z" />
    <glyph glyph-name="quotesinglbase" unicode="&#x201a;" horiz-adv-x="299" 
d="M39 -90l6 38c29 5 43 20 50 52h-44l17 96h104l-15 -83c-11 -63 -51 -98 -118 -103z" />
    <glyph glyph-name="guillemotleft.case" horiz-adv-x="464" 
d="M314 147l-77 185l141 185h64l-145 -185l77 -185h-60zM166 147l-77 185l141 185h64l-145 -185l77 -185h-60z" />
    <glyph glyph-name="guillemotright.case" horiz-adv-x="463" 
d="M173 517l77 -185l-141 -185h-64l145 185l-77 185h60zM321 517l77 -185l-141 -185h-64l145 185l-77 185h60z" />
    <glyph glyph-name="guilsinglleft.case" horiz-adv-x="316" 
d="M166 147l-77 185l141 185h64l-145 -185l77 -185h-60z" />
    <glyph glyph-name="guilsinglright.case" horiz-adv-x="540" 
d="M164 517l77 -185l-141 -185h-64l145 185l-77 185h60zM312 517l77 -185l-141 -185h-64l145 185l-77 185h60z" />
    <glyph glyph-name="uni2003" unicode="&#x2003;" horiz-adv-x="1000" 
 />
    <glyph glyph-name="uni2002" unicode="&#x2002;" horiz-adv-x="750" 
 />
    <glyph glyph-name="uni2007" unicode="&#x2007;" 
 />
    <glyph glyph-name="uni2005" unicode="&#x2005;" horiz-adv-x="250" 
 />
    <glyph glyph-name="uni200A" unicode="&#x200a;" horiz-adv-x="75" 
 />
    <glyph glyph-name="uni2008" unicode="&#x2008;" horiz-adv-x="296" 
 />
    <glyph glyph-name="uni00A0" unicode="&#xa0;" horiz-adv-x="274" 
 />
    <glyph glyph-name="uni2009" unicode="&#x2009;" horiz-adv-x="150" 
 />
    <glyph glyph-name="uni2004" unicode="&#x2004;" horiz-adv-x="350" 
 />
    <glyph glyph-name="uni200B" unicode="&#x200b;" horiz-adv-x="0" 
 />
    <glyph glyph-name="uniFEFF" unicode="&#xfeff;" horiz-adv-x="0" 
 />
    <glyph glyph-name="uni0E3F" unicode="&#xe3f;" horiz-adv-x="642" 
d="M565 225c0 -143 -98 -225 -270 -225h-9l-19 -110h-39l19 110h-207l123 700h207l18 101h39l-18 -101c120 -3 187 -59 187 -158c0 -83 -48 -144 -136 -173v-2c64 -19 105 -74 105 -142zM215 641l-43 -245h145l43 245h-145zM400 641h-1l-43 -245c109 1 177 56 177 140
c0 67 -48 105 -133 105zM113 59h145l49 281h-145zM503 223c0 73 -55 117 -148 117h-9l-49 -281h6c131 0 200 57 200 164z" />
    <glyph glyph-name="cent" unicode="&#xa2;" horiz-adv-x="630" 
d="M503 185l54 -21c-45 -109 -137 -179 -261 -179h-3l-17 -95h-39l17 98c-124 15 -196 103 -196 231c0 183 121 326 292 326h2l15 86h39l-16 -88c115 -15 183 -90 191 -194l-57 -7c-11 89 -58 138 -143 147l-79 -450c99 1 166 58 201 146zM263 41l79 450
c-133 -4 -226 -125 -226 -272c0 -99 51 -166 147 -178z" />
    <glyph glyph-name="currency" unicode="&#xa4;" horiz-adv-x="765" 
d="M578 176l66 -67l-31 -31l-66 65c-40 -36 -94 -57 -154 -57c-59 0 -110 19 -154 56l-64 -64l-31 31l65 65c-33 44 -50 96 -50 156c0 59 16 111 49 155l-64 65l31 31l63 -64c40 37 95 58 155 58s115 -22 155 -59l65 65l31 -31l-66 -67c33 -43 49 -94 49 -153
s-16 -110 -49 -154zM563 329c0 113 -68 190 -169 190s-170 -77 -170 -190c0 -112 67 -186 170 -186c51 0 91 17 122 51c31 35 47 80 47 135z" />
    <glyph glyph-name="dollar" unicode="$" horiz-adv-x="649" 
d="M584 182c0 -121 -99 -197 -255 -197c-15 0 -25 0 -32 1l-17 -96h-40l18 101c-132 21 -209 105 -218 237l63 10c12 -112 65 -173 165 -189l53 300c-150 58 -198 104 -198 185c0 109 94 181 233 181c13 0 22 0 29 -1l15 87h40l-16 -92c107 -21 178 -91 194 -194l-63 -13
c-17 83 -64 132 -141 148l-45 -255c79 -31 134 -62 166 -95c33 -33 49 -72 49 -118zM331 408l43 247c-4 1 -10 1 -19 1c-107 0 -170 -45 -170 -120c0 -52 35 -84 146 -128zM521 181c0 67 -43 108 -162 156l-52 -292c5 -1 13 -1 23 -1c121 0 191 50 191 137z" />
    <glyph glyph-name="Euro" unicode="&#x20ac;" horiz-adv-x="781" 
d="M675 245l57 -20c-52 -149 -168 -240 -321 -240c-82 0 -148 24 -198 71c-49 47 -77 111 -83 192h-108l10 55h97c2 32 5 61 10 86h-92l10 55h96c26 83 69 148 129 197c61 49 131 74 211 74c157 0 261 -97 271 -242l-61 -6c-11 119 -90 190 -210 190
c-127 0 -229 -82 -276 -213h319l-10 -55h-324c-7 -29 -10 -57 -11 -86h246l-9 -55h-237c11 -127 91 -205 220 -205c127 0 215 71 264 202z" />
    <glyph glyph-name="florin" unicode="&#x192;" horiz-adv-x="340" 
d="M238 590l-11 -60h136l-10 -55h-136l-81 -462l-13 -73c-12 -69 -54 -103 -127 -103h-58l10 55h48c43 0 62 16 70 60l92 523h-124l10 55h124l13 73c12 69 54 103 127 103h75l-10 -55h-66c-43 0 -62 -17 -69 -61z" />
    <glyph glyph-name="lira" unicode="&#x20a4;" horiz-adv-x="542" 
d="M464 367l60 -9c-29 -203 -179 -361 -356 -358h-63l69 391l-90 -16l-10 51l109 19l15 84l-90 -16l-10 51l109 19l21 117h63l-18 -105l177 31l9 -51l-196 -35l-15 -83l177 31l9 -51l-195 -35l-61 -343c141 6 254 123 286 308z" />
    <glyph glyph-name="uni20BD" unicode="&#x20bd;" horiz-adv-x="703" 
d="M682 510c0 -145 -102 -234 -271 -234h-197l-16 -94h207l-10 -55h-207l-22 -127h-63l22 127h-103l9 55h104l16 94h-103l9 55h104l65 369h246c131 0 210 -71 210 -190zM619 510c0 87 -52 131 -149 131h-191l-54 -306h189c133 0 205 62 205 175z" />
    <glyph glyph-name="uni20A8" unicode="&#x20a8;" horiz-adv-x="587" 
d="M617 647h-144v-2c40 -31 60 -71 60 -121h63l-9 -52h-57c-20 -103 -106 -167 -237 -176v-2l122 -294h-70l-118 294h-151l11 59h181c109 0 180 42 197 119h-358l9 52h355c-3 75 -56 117 -149 117h-185l10 59h480z" />
    <glyph glyph-name="sterling" unicode="&#xa3;" horiz-adv-x="606" 
d="M27 0l11 59h44c78 0 150 77 150 162c0 26 -9 58 -26 95h-123l10 55h85c-27 51 -43 91 -43 140c0 119 101 204 242 204c144 0 230 -74 233 -202l-62 -3c-3 96 -62 146 -167 146c-109 0 -181 -60 -181 -152c0 -21 3 -40 10 -58c7 -17 18 -42 34 -75h224l-10 -55h-189
c14 -34 21 -66 21 -96c0 -65 -33 -123 -86 -159v-2h302l-10 -59h-469z" />
    <glyph glyph-name="uni20A9" unicode="&#x20a9;" horiz-adv-x="898" 
d="M929 700l-79 -210h70l-9 -50h-80l-37 -97h99l-9 -51h-109l-110 -292h-69l-38 292h-197l-139 -292h-69l-9 292h-121l9 51h110l-3 97h-89l9 50h79l-7 210h56l6 -210h206l100 210h57l27 -210h207l78 210h61zM513 612l-58 -122h77l-16 122h-3zM194 440l3 -97h132l46 97h-181z
M385 343h166l-13 97h-107zM735 343l36 97h-181l13 -97h132zM207 87l98 205h-107l6 -205h3zM639 87l77 205h-107l27 -205h3z" />
    <glyph glyph-name="yen" unicode="&#xa5;" horiz-adv-x="580" 
d="M647 700l-289 -369h189l-10 -55h-214l-15 -86h214l-9 -55h-215l-24 -135h-63l25 135h-215l9 55h216l15 86h-216l9 55h192l-159 369h68l144 -349h2l268 349h78z" />
    <glyph glyph-name="uni0E3F.tnum" 
d="M575 225c0 -143 -98 -225 -271 -225h-10l-19 -110h-40l19 110h-206l123 700h206l18 101h40l-18 -101c123 -3 189 -59 189 -158c0 -83 -48 -144 -136 -173v-2c64 -19 105 -74 105 -142zM223 641l-43 -245h144l43 245h-144zM410 641h-3l-43 -245c109 1 179 55 179 140
c0 67 -49 105 -133 105zM121 59h144l49 281h-144zM512 223c0 75 -55 117 -148 117h-10l-49 -281h8c129 0 199 57 199 164z" />
    <glyph glyph-name="cent.tnum" 
d="M511 185l53 -21c-45 -109 -137 -179 -261 -179h-3l-17 -95h-39l17 98c-124 15 -195 102 -195 231c-3 181 123 329 291 326h2l15 86h39l-16 -88c115 -15 183 -90 191 -194l-57 -7c-11 89 -58 138 -143 147l-79 -450c99 1 166 58 202 146zM270 41l79 450
c-132 -4 -225 -125 -225 -272c0 -97 50 -166 146 -178z" />
    <glyph glyph-name="currency.tnum" 
d="M520 176l66 -67l-31 -31l-66 65c-40 -36 -94 -57 -154 -57c-59 0 -110 19 -154 56l-64 -64l-31 31l65 65c-33 44 -50 96 -50 156c0 59 16 111 49 155l-64 65l31 31l63 -64c40 37 95 58 155 58s115 -22 155 -59l65 65l31 -31l-66 -67c33 -43 49 -94 49 -153
s-16 -110 -49 -154zM505 329c0 113 -68 190 -169 190s-170 -77 -170 -190c0 -112 67 -186 170 -186c51 0 91 17 122 51c31 35 47 80 47 135z" />
    <glyph glyph-name="dollar.tnum" 
d="M585 182c0 -121 -99 -197 -255 -197c-15 0 -26 0 -33 1l-17 -96h-39l18 101c-132 21 -209 105 -218 237l63 10c12 -112 65 -173 165 -189l53 300c-150 58 -199 104 -199 185c0 109 94 181 233 181c13 0 23 0 30 -1l15 87h39l-16 -92c107 -21 178 -91 194 -194l-63 -13
c-16 83 -63 133 -141 149l-45 -256c79 -31 134 -62 167 -95s49 -72 49 -118zM332 408l43 247c-4 1 -10 1 -19 1c-107 0 -171 -45 -171 -120c0 -52 36 -84 147 -128zM522 181c0 67 -43 108 -163 156l-52 -292c5 -1 13 -1 23 -1c121 0 192 50 192 137z" />
    <glyph glyph-name="Euro.tnum" 
d="M549 252l58 -16c-21 -77 -56 -138 -105 -183s-104 -68 -165 -68c-137 0 -222 96 -231 263h-90l9 55h80c2 32 5 61 10 86h-74l9 55h79c48 158 165 271 298 271c127 0 206 -91 211 -244l-62 -3c-5 123 -56 188 -149 188c-51 0 -97 -19 -140 -58c-42 -39 -74 -90 -96 -154
h262l-10 -55h-267c-5 -23 -9 -51 -11 -86h189l-9 -55h-179c9 -129 71 -204 171 -204c95 0 169 73 212 208z" />
    <glyph glyph-name="florin.tnum" 
d="M406 590l-11 -60h137l-11 -55h-135l-81 -462l-13 -73c-12 -69 -54 -103 -127 -103h-59l11 55h48c43 0 62 16 70 60l92 523h-125l11 55h123l13 73c12 69 54 103 127 103h76l-11 -55h-65c-43 0 -62 -17 -70 -61z" />
    <glyph glyph-name="lira.tnum" 
d="M513 367l60 -9c-29 -203 -180 -361 -357 -358h-63l69 391l-90 -16l-10 51l109 19l15 84l-89 -16l-11 51l109 19l21 117h63l-18 -105l177 31l9 -51l-196 -35l-15 -83l178 31l9 -51l-196 -35l-61 -343c141 6 255 123 287 308z" />
    <glyph glyph-name="uni20BD.tnum" 
d="M655 510c0 -147 -101 -234 -270 -234h-173l-16 -94h182l-9 -55h-183l-22 -127h-63l22 127h-104l10 55h104l16 94h-103l9 55h104l65 369h222c131 0 209 -71 209 -190zM593 510c0 85 -51 131 -150 131h-166l-54 -306h165c132 0 205 62 205 175z" />
    <glyph glyph-name="uni20A8.tnum" 
d="M632 647h-144v-2c39 -30 59 -70 59 -121h63l-9 -52h-57c-19 -103 -105 -167 -237 -176v-2l122 -294h-69l-118 294h-151l10 59h181c109 0 179 42 198 119h-359l9 52h355c-3 75 -56 117 -149 117h-185l11 59h479z" />
    <glyph glyph-name="sterling.tnum" 
d="M32 0l11 59h44c79 0 149 77 149 162c0 27 -8 59 -25 95h-123l10 55h85c-27 51 -43 91 -43 140c0 119 101 204 242 204c144 0 230 -74 233 -202l-62 -3c-4 96 -62 146 -167 146c-109 0 -181 -60 -181 -152c0 -21 3 -40 10 -58c7 -17 18 -42 34 -75h224l-10 -55h-189
c14 -34 21 -66 21 -96c0 -65 -33 -123 -86 -159v-2h302l-10 -59h-469z" />
    <glyph glyph-name="uni20A9.tnum" 
d="M701 700l-61 -187h57l-9 -50h-65l-25 -75h77l-9 -51h-84l-111 -337h-66l-37 337h-58l-153 -337h-70l9 337h-86l9 51h78l2 75h-67l8 50h60l5 187h57l-6 -187h181l8 17h51l2 -17h182l60 187h61zM155 463l-3 -75h128l34 75h-159zM541 388l24 75h-162l9 -75h129zM333 388h29
l-5 48h-2zM145 91l112 246h-106l-8 -246h2zM446 91l78 246h-107l27 -246h2z" />
    <glyph glyph-name="yen.tnum" 
d="M700 700l-304 -369h187l-10 -55h-214l-16 -86h216l-10 -55h-216l-24 -135h-64l25 135h-213l9 55h214l16 86h-215l10 55h187l-174 369h69l161 -350h2l285 350h79z" />
    <glyph glyph-name="uni207B" unicode="&#x207b;" horiz-adv-x="407" 
d="M53 187l8 46h273l-8 -46h-273z" />
    <glyph glyph-name="plus" unicode="+" horiz-adv-x="591" 
d="M547 394l-10 -52h-200l-38 -212h-54l37 212h-201l9 52h201l37 208h55l-37 -208h201z" />
    <glyph glyph-name="minus" unicode="&#x2212;" horiz-adv-x="541" 
d="M81 342l9 52h407l-10 -52h-406z" />
    <glyph glyph-name="multiply" unicode="&#xd7;" horiz-adv-x="534" 
d="M510 510l-192 -162l134 -161l-41 -33l-132 161l-191 -164l-34 39l194 164l-133 160l41 32l131 -160l189 163z" />
    <glyph glyph-name="divide" unicode="&#xf7;" horiz-adv-x="541" 
d="M263 560c0 35 25 61 60 61s61 -26 61 -61c0 -33 -26 -60 -61 -60c-33 0 -60 27 -60 60zM81 342l9 52h407l-10 -52h-406zM194 171c0 35 25 61 60 61s61 -26 61 -61s-26 -60 -61 -60s-60 25 -60 60z" />
    <glyph glyph-name="equal" unicode="=" horiz-adv-x="559" 
d="M95 420l10 55h423l-10 -55h-423zM62 235l10 55h424l-10 -55h-424z" />
    <glyph glyph-name="notequal" unicode="&#x2260;" horiz-adv-x="559" 
d="M518 420h-150l-92 -130h220l-10 -55h-249l-76 -108l-34 25l58 83h-123l10 55h152l91 130h-220l10 55h249l76 108l35 -25l-59 -83h122z" />
    <glyph glyph-name="greater" unicode="&#x3e;" horiz-adv-x="555" 
d="M159 611l349 -233l-9 -54l-427 -233l-27 49l396 213l-317 212z" />
    <glyph glyph-name="less" unicode="&#x3c;" horiz-adv-x="555" 
d="M426 91l-349 233l10 54l427 233l27 -49l-396 -213l316 -212z" />
    <glyph glyph-name="greaterequal" unicode="&#x2265;" horiz-adv-x="564" 
d="M172 649l349 -233l-9 -54l-427 -233l-27 49l396 213l-317 213zM20 0l10 55h425l-9 -55h-426z" />
    <glyph glyph-name="lessequal" unicode="&#x2264;" horiz-adv-x="561" 
d="M434 129l-349 234l9 54l427 232l27 -49l-396 -213l317 -212zM21 0l9 55h426l-9 -55h-426z" />
    <glyph glyph-name="plusminus" unicode="&#xb1;" horiz-adv-x="592" 
d="M355 443h201l-10 -51h-200l-35 -200h-55l35 200h-201l9 51h201l35 196h54zM35 80l10 52h456l-10 -52h-456z" />
    <glyph glyph-name="approxequal" unicode="&#x2248;" horiz-adv-x="600" 
d="M135 370l-48 17c28 77 81 122 144 122c43 0 72 -16 116 -47c37 -27 59 -38 87 -38c41 0 70 26 94 86l48 -19c-29 -77 -81 -121 -142 -121c-43 0 -72 15 -117 46c-37 27 -59 38 -88 38c-41 0 -70 -25 -94 -84zM135 204l-48 17c28 77 81 122 144 122c43 0 72 -16 116 -47
c37 -27 59 -38 87 -38c41 0 70 26 94 86l48 -19c-29 -77 -81 -121 -142 -121c-43 0 -72 15 -117 46c-37 27 -59 38 -88 38c-41 0 -70 -25 -94 -84z" />
    <glyph glyph-name="asciitilde" unicode="~" horiz-adv-x="629" 
d="M124 282l-51 18c29 81 85 128 152 128c44 0 76 -17 121 -49c39 -27 61 -40 92 -40c43 0 74 27 99 90l50 -20c-31 -80 -85 -127 -149 -127c-45 0 -75 17 -123 49c-39 27 -61 40 -92 40c-44 0 -74 -26 -99 -89z" />
    <glyph glyph-name="logicalnot" unicode="&#xac;" horiz-adv-x="614" 
d="M469 182l33 186h-417l11 59h479l-43 -245h-63z" />
    <glyph glyph-name="infinity" unicode="&#x221e;" horiz-adv-x="735" 
d="M71 264c0 119 81 228 191 228c61 0 110 -43 126 -111c39 71 97 111 157 111c80 0 132 -60 132 -149c0 -119 -81 -228 -191 -228c-61 0 -110 43 -126 111c-40 -71 -97 -111 -157 -111c-80 0 -132 60 -132 149zM355 307c-8 87 -41 133 -93 133c-81 0 -139 -91 -139 -177
c0 -60 31 -96 83 -96c56 0 108 49 149 140zM624 344c0 60 -30 96 -82 96c-56 0 -108 -49 -149 -140c8 -88 41 -133 93 -133c81 0 138 90 138 177z" />
    <glyph glyph-name="emptyset" unicode="&#x2205;" horiz-adv-x="859" 
d="M811 350c4 -203 -163 -369 -366 -365c-83 0 -156 23 -220 69l-88 -103l-40 33l89 104c-68 67 -108 159 -108 262c-3 203 163 369 367 365c81 0 156 -24 217 -68l91 106l40 -34l-90 -106c68 -67 108 -159 108 -263zM223 132l402 471c-51 37 -111 56 -180 56
c-173 3 -309 -134 -306 -309c0 -85 31 -162 84 -218zM750 350c0 87 -30 163 -85 219l-403 -471c53 -38 114 -57 183 -57c171 -3 308 134 305 309z" />
    <glyph glyph-name="integral" unicode="&#x222b;" horiz-adv-x="484" 
d="M-22 -240l10 59c112 0 150 32 170 144l105 595c23 136 88 187 239 187l-11 -59c-112 0 -149 -32 -169 -144l-103 -590c-26 -142 -88 -192 -241 -192z" />
    <glyph glyph-name="product" unicode="&#x220f;" horiz-adv-x="759" 
d="M91 -141l138 782h-127l10 59h689l-10 -59h-128l-137 -782h-63l138 782h-310l-138 -782h-62z" />
    <glyph glyph-name="summation" unicode="&#x2211;" horiz-adv-x="611" 
d="M13 -100l12 60l332 346l-211 341l9 53h481l-11 -59h-403l212 -344l-327 -338h398l-11 -59h-481z" />
    <glyph glyph-name="radical" unicode="&#x221a;" horiz-adv-x="655" 
d="M645 700h74l-408 -700h-59l-80 350h-130l11 59h169l70 -323h2z" />
    <glyph glyph-name="partialdiff" unicode="&#x2202;" horiz-adv-x="588" 
d="M576 558c3 -324 -145 -578 -336 -573c-124 0 -198 73 -198 196c-3 175 125 322 276 319c65 0 123 -16 190 -55c4 36 6 74 6 113c0 111 -38 170 -110 170c-38 0 -77 -18 -118 -55l-36 45c50 46 101 69 154 69c111 0 172 -84 172 -229zM499 387c-64 39 -118 56 -181 56
c-118 0 -213 -117 -213 -262c0 -88 48 -137 135 -137c120 0 223 141 259 343z" />
    <glyph glyph-name="percent" unicode="%" horiz-adv-x="1040" 
d="M245 -67l-41 30l629 811l42 -30zM105 445c0 148 87 264 204 264c93 0 151 -65 151 -174c0 -147 -87 -264 -204 -264c-93 0 -151 65 -151 174zM402 536c0 79 -33 121 -93 121c-85 0 -147 -95 -147 -213c0 -77 35 -120 94 -120c83 0 146 93 146 212zM610 165
c0 147 88 264 203 264c95 0 152 -65 152 -174c0 -147 -87 -264 -204 -264c-93 0 -151 65 -151 174zM908 256c0 79 -34 121 -94 121c-85 0 -147 -95 -147 -213c0 -79 35 -120 95 -120c81 0 146 93 146 212z" />
    <glyph glyph-name="perthousand" unicode="&#x2030;" horiz-adv-x="1439" 
d="M243 -67l-42 30l630 811l41 -30zM105 445c0 148 87 264 204 264c93 0 151 -65 151 -174c0 -147 -87 -264 -204 -264c-93 0 -151 65 -151 174zM402 536c0 79 -33 121 -93 121c-85 0 -147 -95 -147 -213c0 -77 35 -120 94 -120c83 0 146 93 146 212zM610 165
c0 147 88 264 203 264c95 0 152 -65 152 -174c0 -147 -87 -264 -204 -264c-93 0 -151 65 -151 174zM1009 165c0 147 90 264 204 264c93 0 151 -65 151 -174c0 -147 -87 -264 -204 -264c-93 0 -151 65 -151 174zM908 256c0 79 -34 121 -94 121c-85 0 -147 -95 -147 -213
c0 -79 35 -120 95 -120c81 0 146 93 146 212zM1307 256c0 79 -34 121 -93 121c-85 0 -148 -95 -148 -213c0 -77 35 -120 95 -120c81 0 146 93 146 212z" />
    <glyph glyph-name="uni207A" unicode="&#x207a;" horiz-adv-x="436" 
d="M363 233l-7 -46h-126l-23 -127h-51l23 127h-126l8 46h126l22 126h51l-22 -126h125z" />
    <glyph glyph-name="plus.tnum" 
d="M576 394l-10 -52h-200l-38 -212h-54l37 212h-201l9 52h201l37 208h55l-37 -208h201z" />
    <glyph glyph-name="minus.tnum" 
d="M135 342l9 52h407l-10 -52h-406z" />
    <glyph glyph-name="multiply.tnum" 
d="M568 510l-192 -162l134 -161l-41 -33l-132 161l-191 -164l-34 39l194 164l-133 160l41 32l131 -160l189 163z" />
    <glyph glyph-name="divide.tnum" 
d="M317 560c0 35 25 61 60 61s61 -26 61 -61c0 -33 -26 -60 -61 -60c-33 0 -60 27 -60 60zM135 342l9 52h407l-10 -52h-406zM248 171c0 35 25 61 60 61s61 -26 61 -61s-26 -60 -61 -60s-60 25 -60 60z" />
    <glyph glyph-name="equal.tnum" 
d="M141 420l10 55h423l-10 -55h-423zM108 235l10 55h424l-10 -55h-424z" />
    <glyph glyph-name="notequal.tnum" 
d="M564 420h-150l-92 -130h220l-10 -55h-249l-76 -108l-34 25l58 83h-123l10 55h152l91 130h-220l10 55h249l76 108l35 -25l-59 -83h122z" />
    <glyph glyph-name="greater.tnum" 
d="M206 611l349 -233l-9 -54l-427 -233l-27 49l396 213l-317 212z" />
    <glyph glyph-name="less.tnum" 
d="M473 91l-349 233l10 54l427 233l27 -49l-396 -213l316 -212z" />
    <glyph glyph-name="greaterequal.tnum" 
d="M215 649l349 -233l-9 -54l-427 -233l-27 49l396 213l-317 213zM63 0l10 55h425l-9 -55h-426z" />
    <glyph glyph-name="lessequal.tnum" 
d="M478 129l-349 234l9 54l427 232l27 -49l-396 -213l317 -212zM65 0l9 55h426l-9 -55h-426z" />
    <glyph glyph-name="plusminus.tnum" 
d="M384 443h201l-10 -51h-200l-35 -200h-55l35 200h-201l9 51h201l35 196h54zM64 80l10 52h456l-10 -52h-456z" />
    <glyph glyph-name="approxequal.tnum" 
d="M144 370l-48 17c28 77 81 122 144 122c43 0 72 -16 116 -47c37 -27 59 -38 87 -38c41 0 70 26 94 86l48 -19c-29 -77 -81 -121 -142 -121c-43 0 -72 15 -117 46c-37 27 -59 38 -88 38c-41 0 -70 -25 -94 -84zM144 204l-48 17c28 77 81 122 144 122c43 0 72 -16 116 -47
c37 -27 59 -38 87 -38c41 0 70 26 94 86l48 -19c-29 -77 -81 -121 -142 -121c-43 0 -72 15 -117 46c-37 27 -59 38 -88 38c-41 0 -70 -25 -94 -84z" />
    <glyph glyph-name="percent.tnum" 
d="M101 615c0 148 87 264 204 264c92 0 151 -66 151 -174c0 -147 -87 -264 -204 -264c-93 0 -151 65 -151 174zM399 706c0 79 -34 121 -93 121c-85 0 -147 -95 -147 -213c0 -77 34 -120 93 -120c82 0 147 93 147 212zM124 241l-19 55l420 153l20 -54zM224 -5
c0 148 87 264 204 264c92 0 151 -66 151 -174c0 -147 -87 -264 -204 -264c-93 0 -151 65 -151 174zM521 86c0 79 -33 121 -92 121c-85 0 -148 -95 -148 -213c0 -79 35 -121 95 -121c81 0 145 95 145 213z" />
    <glyph glyph-name="perthousand.tnum" 
d="M88 642c-3 145 90 267 204 264c92 0 150 -66 150 -174c0 -147 -86 -264 -203 -264c-93 0 -151 65 -151 174zM385 733c0 79 -33 121 -93 121c-85 0 -147 -95 -147 -213c0 -77 35 -120 94 -120c83 0 146 95 146 212zM85 274l-20 53l420 152l20 -52zM-34 -42
c0 148 88 264 202 264c50 0 87 -20 110 -59c29 97 98 159 182 159c92 0 149 -65 149 -174c0 -147 -86 -264 -202 -264c-50 0 -87 19 -110 57c-29 -96 -98 -157 -182 -157c-92 0 -149 65 -149 174zM552 149c0 79 -34 121 -93 121c-84 0 -144 -93 -144 -212
c0 -80 32 -122 92 -122c79 0 145 96 145 213zM261 49c0 79 -32 121 -92 121c-82 0 -145 -95 -145 -213c0 -79 35 -121 92 -121c82 0 145 95 145 213z" />
    <glyph glyph-name="arrowup" unicode="&#x2191;" horiz-adv-x="584" 
d="M553 409l-43 -42l-163 174v-493h-59v494l-163 -175l-43 42l235 243z" />
    <glyph glyph-name="uni2197" unicode="&#x2197;" horiz-adv-x="543" 
d="M151 566l336 7l-6 -337l-56 1l7 240l-352 -352l-40 42l351 351l-239 -8z" />
    <glyph glyph-name="arrowright" unicode="&#x2192;" horiz-adv-x="724" 
d="M437 581l244 -235l-244 -235l-40 42l177 166h-498v55h497l-176 165z" />
    <glyph glyph-name="uni2198" unicode="&#x2198;" horiz-adv-x="633" 
d="M215 132l1 56l239 -8l-351 351l40 42l352 -352l-7 240l56 1l6 -337z" />
    <glyph glyph-name="arrowdown" unicode="&#x2193;" horiz-adv-x="584" 
d="M489 334l43 -42l-236 -243l-235 243l43 42l163 -175v494h59v-493z" />
    <glyph glyph-name="uni2199" unicode="&#x2199;" horiz-adv-x="543" 
d="M182 183l239 8l1 -56l-336 -7l6 337l56 -1l-7 -240l352 352l40 -42z" />
    <glyph glyph-name="arrowleft" unicode="&#x2190;" horiz-adv-x="723" 
d="M676 374v-55h-498l177 -166l-40 -42l-244 235l244 235l40 -42l-176 -165h497z" />
    <glyph glyph-name="uni2196" unicode="&#x2196;" horiz-adv-x="663" 
d="M589 167l-40 -42l-352 352l7 -240l-56 -1l-6 337l336 -7l-1 -56l-239 8z" />
    <glyph glyph-name="arrowboth" unicode="&#x2194;" horiz-adv-x="827" 
d="M540 581l244 -235l-244 -235l-39 41l179 168h-505l179 -168l-39 -41l-244 235l244 235l39 -41l-178 -167h503l-178 167z" />
    <glyph glyph-name="arrowupdn" unicode="&#x2195;" horiz-adv-x="621" 
d="M352 111l167 176l41 -39l-235 -245l-235 245l42 39l166 -176v478l-166 -177l-42 40l235 244l235 -244l-41 -40l-167 177v-478z" />
    <glyph glyph-name="uni21B3" unicode="&#x21b3;" horiz-adv-x="787" 
d="M501 581l243 -235l-243 -235l-41 42l177 166h-453v381h58v-326h394l-176 165z" />
    <glyph glyph-name="lozenge" unicode="&#x25ca;" horiz-adv-x="648" 
d="M236 0l-154 350l278 350h82l154 -350l-278 -350h-82zM281 43l249 315l-132 299l-250 -315z" />
    <glyph glyph-name="uniF8FF" unicode="&#xf8ff;" horiz-adv-x="765" 
d="M82 0v423c-4 154 139 295 292 292c155 3 298 -138 294 -292v-423h-28l-65 65l-68 -65l-63 65l-71 -65l-69 65l-63 -65l-67 65l-66 -65h-26zM319 377c0 40 -31 72 -71 72c-39 0 -71 -32 -71 -72c0 -39 32 -70 71 -70s71 31 71 70zM574 377c0 40 -32 72 -72 72
c-39 0 -70 -32 -70 -72c0 -37 33 -70 70 -70c39 0 72 33 72 70z" />
    <glyph glyph-name="at" unicode="@" horiz-adv-x="813" 
d="M758 372c0 -169 -71 -282 -176 -282c-47 0 -76 19 -85 57c-24 -36 -73 -60 -129 -60c-68 0 -111 38 -111 97c0 29 7 52 22 69c29 36 67 50 132 70c72 23 105 36 105 75c0 31 -26 48 -67 48c-56 0 -95 -32 -110 -87l-52 13c20 77 84 124 165 124c69 0 119 -40 119 -99
c0 -8 0 -14 -1 -18l-27 -163c-2 -13 -3 -24 -3 -33c0 -33 14 -47 46 -47c70 0 122 102 122 236c0 147 -91 238 -238 238c-199 3 -356 -175 -353 -397c0 -157 85 -241 242 -241c65 0 130 18 197 55l22 -41c-70 -40 -143 -60 -219 -60c-185 0 -292 104 -292 287
c-4 247 178 448 403 443c174 0 288 -112 288 -284zM488 222l17 99h-2c-17 -20 -42 -30 -89 -45c-66 -23 -97 -34 -102 -89c0 -31 22 -50 59 -50c59 0 109 37 117 85z" />
    <glyph glyph-name="ampersand" unicode="&#x26;" horiz-adv-x="675" 
d="M612 90l-41 -41l-60 64c-45 -80 -136 -128 -248 -128c-132 0 -212 66 -212 171c0 97 68 184 189 243c-42 47 -63 94 -63 142c0 99 79 174 188 174c100 0 171 -62 175 -157l-59 -6c-4 69 -48 108 -116 108c-75 0 -129 -51 -129 -119c0 -40 14 -69 50 -108l200 -210l29 168
h57l-38 -219zM469 157l-193 204c-113 -56 -166 -121 -166 -201c0 -73 60 -120 153 -120c99 0 174 44 206 117z" />
    <glyph glyph-name="paragraph" unicode="&#xb6;" horiz-adv-x="546" 
d="M112 -136l95 540c-77 15 -119 60 -119 135c0 91 77 161 176 161h266l-148 -836h-63l137 777h-144l-138 -777h-62z" />
    <glyph glyph-name="section" unicode="&#xa7;" horiz-adv-x="638" 
d="M547 256c0 -61 -37 -112 -116 -160c23 -27 35 -62 35 -103c0 -93 -83 -175 -194 -175c-113 0 -194 73 -200 177l62 7c7 -79 58 -125 138 -125c77 0 131 56 131 116c0 48 -24 77 -83 104l-111 49c-80 35 -118 76 -118 131c0 61 37 111 117 160c-23 27 -35 62 -35 103
c0 93 83 175 194 175c57 0 103 -16 139 -49c37 -33 57 -75 60 -128l-62 -7c-7 79 -57 125 -137 125c-77 0 -131 -55 -131 -116c0 -48 23 -79 83 -104l110 -49c80 -35 118 -76 118 -131zM485 250c0 33 -25 58 -88 86l-119 52c-12 5 -20 10 -25 13c-61 -35 -99 -78 -99 -117
c0 -35 24 -59 87 -87l120 -52c12 -5 20 -10 25 -13c61 35 99 79 99 118z" />
    <glyph glyph-name="copyright" unicode="&#xa9;" horiz-adv-x="735" 
d="M73 324c-3 173 137 309 305 306c169 3 308 -133 305 -306c3 -175 -136 -311 -305 -308c-168 -3 -308 133 -305 308zM639 324c0 155 -113 266 -261 266c-147 0 -260 -111 -260 -266c0 -157 113 -268 260 -268c148 0 261 111 261 268zM230 323c0 111 61 184 154 184
c73 0 129 -49 140 -124l-49 -9c-9 55 -43 86 -91 86c-63 0 -102 -53 -102 -137s39 -137 102 -137c48 0 82 31 91 86l49 -9c-11 -75 -67 -124 -140 -124c-93 0 -154 73 -154 184z" />
    <glyph glyph-name="registered" unicode="&#xae;" horiz-adv-x="735" 
d="M683 324c3 -175 -136 -311 -305 -308c-168 -3 -308 133 -305 308c-3 173 137 309 305 306c169 3 308 -133 305 -306zM639 324c0 155 -113 266 -261 266c-147 0 -260 -111 -260 -266c0 -157 113 -268 260 -268c148 0 261 111 261 268zM442 290l77 -143h-56l-72 139h-70
v-139h-52v352h140c73 0 117 -40 117 -105c0 -55 -31 -93 -84 -104zM474 394c0 40 -25 60 -72 60h-79v-125h79c45 0 72 24 72 65z" />
    <glyph glyph-name="uni2117" unicode="&#x2117;" horiz-adv-x="735" 
d="M73 324c-3 173 137 309 305 306c169 3 308 -133 305 -306c3 -175 -136 -311 -305 -308c-168 -3 -308 133 -305 308zM639 324c0 155 -113 266 -261 266c-147 0 -260 -111 -260 -266c0 -157 113 -268 260 -268c148 0 261 111 261 268zM284 145v353h130
c76 0 119 -41 119 -110s-44 -109 -120 -109h-76v-134h-53zM337 324h72c45 0 72 24 72 64c0 43 -24 65 -72 65h-72v-129z" />
    <glyph glyph-name="trademark" unicode="&#x2122;" horiz-adv-x="770" 
d="M177 361l52 296h-108l8 43h254l-7 -43h-101l-52 -296h-46zM381 361l60 339h59l64 -271h1l160 271h65l-60 -339h-46l48 268h-1l-160 -268h-33l-64 269h-1l-47 -269h-45z" />
    <glyph glyph-name="degree" unicode="&#xb0;" horiz-adv-x="436" 
d="M98 541c0 95 73 164 169 164c97 0 168 -69 168 -164c0 -97 -71 -165 -168 -165c-98 0 -169 68 -169 165zM380 541c0 67 -46 113 -113 113s-114 -46 -114 -113c0 -68 46 -113 114 -113c67 0 113 45 113 113z" />
    <glyph glyph-name="bar" unicode="|" horiz-adv-x="260" 
d="M7 -300l190 1075h46l-190 -1075h-46z" />
    <glyph glyph-name="brokenbar" unicode="&#xa6;" horiz-adv-x="260" 
d="M122 350l75 425h46l-75 -425h-46zM7 -300l75 425h46l-75 -425h-46z" />
    <glyph glyph-name="dagger" unicode="&#x2020;" horiz-adv-x="618" 
d="M197 -194l117 665h-220l10 59h221l41 235h62l-41 -235h221l-11 -59h-220l-118 -665h-62z" />
    <glyph glyph-name="daggerdbl" unicode="&#x2021;" horiz-adv-x="618" 
d="M197 -194l40 227h-220l10 59h221l67 379h-221l10 59h221l40 229h62l-40 -229h221l-10 -59h-221l-67 -379h221l-11 -59h-220l-40 -227h-63z" />
    <glyph glyph-name="uni2116" unicode="&#x2116;" horiz-adv-x="1068" 
d="M706 445c0 147 88 264 203 264c93 0 150 -65 150 -174c0 -147 -88 -264 -203 -264c-93 0 -150 65 -150 174zM44 0l123 700h70l242 -604h2l107 604h62l-124 -700h-69l-242 604h-2l-107 -604h-62zM1002 535c0 77 -35 121 -94 121c-82 0 -145 -93 -145 -210
c0 -79 35 -122 95 -122c78 0 144 95 144 211zM660 156l9 53h338l-9 -53h-338z" />
    <glyph glyph-name="asciicircum" unicode="^" horiz-adv-x="549" 
d="M484 327h-61l-81 298l-186 -298h-68l239 373h49z" />
    <glyph glyph-name="at.case" horiz-adv-x="813" 
d="M767 431c0 -169 -71 -282 -176 -282c-47 0 -76 19 -85 57c-24 -36 -73 -60 -129 -60c-68 0 -111 38 -111 97c0 29 7 52 22 69c29 36 67 50 132 70c72 23 105 36 105 75c0 31 -26 48 -67 48c-56 0 -95 -32 -110 -87l-52 13c20 77 84 124 165 124c69 0 119 -40 119 -99
c0 -8 0 -14 -1 -18l-27 -163c-2 -13 -3 -24 -3 -33c0 -33 14 -47 46 -47c70 0 122 102 122 236c0 147 -91 238 -238 238c-199 3 -356 -175 -353 -397c0 -157 85 -241 242 -241c65 0 130 18 197 55l22 -41c-70 -40 -143 -60 -219 -60c-185 0 -292 104 -292 287
c-4 247 178 448 403 443c174 0 288 -112 288 -284zM497 281l17 99h-2c-17 -20 -42 -30 -89 -45c-66 -23 -97 -34 -102 -89c0 -31 22 -50 59 -50c59 0 109 37 117 85z" />
    <glyph glyph-name="uni0308" unicode="&#x308;" horiz-adv-x="0" 
d="M-201 580l14 83h85l-14 -83h-85zM-29 580l14 83h85l-14 -83h-85z" />
    <glyph glyph-name="uni0307" unicode="&#x307;" horiz-adv-x="0" 
d="M-28 590l14 83h85l-14 -83h-85z" />
    <glyph glyph-name="gravecomb" unicode="&#x300;" horiz-adv-x="0" 
d="M3 590l-77 110h82l49 -110h-54z" />
    <glyph glyph-name="acutecomb" unicode="&#x301;" horiz-adv-x="0" 
d="M-96 590l88 110h85l-116 -110h-57z" />
    <glyph glyph-name="uni030B" unicode="&#x30b;" horiz-adv-x="0" 
d="M-232 590l88 110h85l-116 -110h-57zM-95 590l88 110h84l-116 -110h-56z" />
    <glyph glyph-name="uni0302" unicode="&#x302;" horiz-adv-x="0" 
d="M58 596l-40 -26l-56 88l-86 -88l-33 34l80 81h78z" />
    <glyph glyph-name="uni030C" unicode="&#x30c;" horiz-adv-x="0" 
d="M36 695l34 -34l-80 -81h-79l-57 89l40 26l56 -89z" />
    <glyph glyph-name="uni0306" unicode="&#x306;" horiz-adv-x="0" 
d="M-156 691h38c5 -39 25 -59 62 -59c44 0 75 20 93 59h38c-19 -71 -65 -111 -133 -111c-60 0 -99 44 -98 111z" />
    <glyph glyph-name="uni030A" unicode="&#x30a;" horiz-adv-x="0" 
d="M-171 600c0 61 47 107 114 107s114 -46 114 -107c0 -63 -47 -108 -114 -108s-114 45 -114 108zM13 600c0 40 -30 69 -70 69s-70 -29 -70 -69c0 -41 30 -70 70 -70s70 29 70 70z" />
    <glyph glyph-name="tildecomb" unicode="&#x303;" horiz-adv-x="0" 
d="M-81 608c-19 12 -35 18 -48 18c-20 0 -34 -12 -42 -36h-37c9 51 43 83 84 83c25 0 43 -8 68 -23c23 -12 33 -18 48 -18c21 0 35 12 43 36h37c-9 -51 -43 -83 -84 -83c-25 0 -44 8 -69 23z" />
    <glyph glyph-name="uni0304" unicode="&#x304;" horiz-adv-x="0" 
d="M-196 590l9 49h253l-9 -49h-253z" />
    <glyph glyph-name="uni0312" unicode="&#x312;" horiz-adv-x="0" 
d="M82 748l-5 -31c-27 -5 -40 -18 -45 -45h39l-14 -82h-93l12 71c9 53 46 84 106 87z" />
    <glyph glyph-name="dotbelowcomb" unicode="&#x323;" horiz-adv-x="0" 
d="M-154 -132l14 83h85l-14 -83h-85z" />
    <glyph glyph-name="uni0326" unicode="&#x326;" horiz-adv-x="0" 
d="M-169 -209l5 33c25 4 38 17 43 44h-38l15 82h88l-13 -71c-9 -53 -42 -83 -100 -88z" />
    <glyph glyph-name="uni0327" unicode="&#x327;" horiz-adv-x="0" 
d="M-68 -114c0 -55 -46 -96 -106 -96c-40 0 -72 13 -97 39l30 31c19 -21 38 -30 66 -30c37 0 65 24 65 56c0 23 -16 37 -45 37c-21 0 -42 -10 -63 -29l-34 18l73 102l42 -5l-43 -57c10 4 21 6 33 6c47 0 79 -29 79 -72z" />
    <glyph glyph-name="uni0328" unicode="&#x328;" horiz-adv-x="0" 
d="M-237 -128c0 49 45 99 125 140l30 -12c-61 -31 -101 -75 -101 -112c0 -18 11 -27 33 -27c19 0 40 6 63 19l11 -47c-29 -15 -58 -23 -85 -23c-49 0 -76 22 -76 62z" />
    <glyph glyph-name="uni0335" unicode="&#x335;" horiz-adv-x="0" 
d="M-331 335l9 52h344l-10 -52h-343z" />
    <glyph glyph-name="uni0336" unicode="&#x336;" horiz-adv-x="0" 
d="M-632 334l9 53h644l-9 -53h-644z" />
    <glyph glyph-name="uni0337" unicode="&#x337;" horiz-adv-x="0" 
d="M-456 -6l-24 24l499 521l25 -25z" />
    <glyph glyph-name="_646" horiz-adv-x="0" 
d="M16 356l-176 -121l1 6l-132 -91l-22 31l162 112l-1 -6l148 100z" />
    <glyph glyph-name="uni0338" unicode="&#x338;" horiz-adv-x="0" 
d="M-456 -28l-35 25l532 726l35 -26z" />
    <glyph glyph-name="_648" horiz-adv-x="0" 
d="M22 388l-259 -163l1 4l-177 -115l-21 31l228 149v-3l205 131z" />
    <glyph glyph-name="_649" horiz-adv-x="0" 
d="M-14 624l14 74h76l-13 -74h-77z" />
    <glyph glyph-name="_650" horiz-adv-x="0" 
d="M-253 341l8 46h267l-8 -46h-267z" />
    <glyph glyph-name="acute" unicode="&#xb4;" horiz-adv-x="287" 
d="M124 590l88 110h85l-116 -110h-57z" />
    <glyph glyph-name="breve" unicode="&#x2d8;" horiz-adv-x="360" 
d="M142 691h38c5 -39 25 -59 62 -59c44 0 75 20 93 59h38c-19 -71 -65 -111 -133 -111c-60 0 -99 44 -98 111z" />
    <glyph glyph-name="caron" unicode="&#x2c7;" horiz-adv-x="351" 
d="M320 695l34 -34l-80 -81h-79l-57 89l40 26l56 -89z" />
    <glyph glyph-name="cedilla" unicode="&#xb8;" horiz-adv-x="326" 
d="M193 -114c0 -55 -46 -96 -106 -96c-40 0 -72 13 -97 39l30 31c19 -21 38 -30 66 -30c37 0 65 24 65 56c0 23 -16 37 -45 37c-21 0 -42 -10 -63 -29l-34 18l73 102l42 -5l-43 -57c10 4 21 6 33 6c47 0 79 -29 79 -72z" />
    <glyph glyph-name="circumflex" unicode="&#x2c6;" horiz-adv-x="351" 
d="M342 596l-40 -26l-56 88l-86 -88l-33 34l80 81h78z" />
    <glyph glyph-name="dieresis" unicode="&#xa8;" horiz-adv-x="392" 
d="M123 580l14 83h85l-14 -83h-85zM295 580l14 83h85l-14 -83h-85z" />
    <glyph glyph-name="dotaccent" unicode="&#x2d9;" horiz-adv-x="220" 
d="M125 590l14 83h85l-14 -83h-85z" />
    <glyph glyph-name="grave" unicode="`" horiz-adv-x="285" 
d="M221 590l-77 110h82l49 -110h-54z" />
    <glyph glyph-name="hungarumlaut" unicode="&#x2dd;" horiz-adv-x="423" 
d="M124 590l88 110h85l-116 -110h-57zM261 590l88 110h84l-116 -110h-56z" />
    <glyph glyph-name="macron" unicode="&#xaf;" horiz-adv-x="387" 
d="M124 590l9 49h253l-9 -49h-253z" />
    <glyph glyph-name="ogonek" unicode="&#x2db;" horiz-adv-x="303" 
d="M-1 -128c0 49 45 99 125 140l30 -12c-61 -31 -101 -75 -101 -112c0 -18 11 -27 33 -27c19 0 40 6 63 19l11 -47c-29 -15 -58 -23 -85 -23c-49 0 -76 22 -76 62z" />
    <glyph glyph-name="ring" unicode="&#x2da;" horiz-adv-x="366" 
d="M128 600c0 61 47 107 114 107s114 -46 114 -107c0 -63 -47 -108 -114 -108s-114 45 -114 108zM312 600c0 40 -30 69 -70 69s-70 -29 -70 -69c0 -41 30 -70 70 -70s70 29 70 70z" />
    <glyph glyph-name="tilde" unicode="&#x2dc;" horiz-adv-x="399" 
d="M251 608c-19 12 -35 18 -48 18c-20 0 -34 -12 -42 -36h-37c9 51 43 83 84 83c25 0 43 -8 68 -23c23 -12 33 -18 48 -18c21 0 35 12 43 36h37c-9 -51 -43 -83 -84 -83c-25 0 -44 8 -69 23z" />
    </font>
</defs>
</svg>
